<svg width="87.999542" height="5.996216" viewBox="0 0 87.9995 5.99622" fill="none" xmlns="http://www.w3.org/2000/svg" xmlns:xlink="http://www.w3.org/1999/xlink">
	<desc>
			Created with Pixso.
	</desc>
	<defs/>
	<path id="Vector" d="M4.54871 5.80721C4.83124 5.55565 4.88477 5.11943 4.54871 4.87321C3.99255 4.46912 3.43936 4.06233 2.88321 3.65823C3.40369 3.65823 3.92712 3.65823 4.4476 3.65823C6.47592 3.65823 8.50424 3.65823 10.5355 3.65823C13.5423 3.65823 16.5521 3.65823 19.5619 3.65823C23.2319 3.65823 26.9019 3.65823 30.5719 3.65823C34.578 3.65823 38.5841 3.65823 42.5901 3.65823C46.6617 3.65823 50.7332 3.65823 54.8047 3.65823C58.5758 3.65823 62.344 3.65823 66.1151 3.65823C69.3122 3.65823 72.5094 3.65823 75.7065 3.65823C78.0055 3.65823 80.3044 3.65823 82.6034 3.65823C83.4867 3.65823 84.373 3.66893 85.2563 3.66359C84.8905 3.96332 84.5246 4.26038 84.1559 4.5601C84.0399 4.65376 83.9239 4.75011 83.8079 4.84378C83.5075 5.08731 83.4867 5.53691 83.8079 5.77777C84.132 6.0213 84.6317 6.03735 84.9529 5.77777C85.7738 5.10872 86.5976 4.43968 87.4184 3.77063C87.5344 3.67696 87.6504 3.58063 87.7664 3.48695C88.0668 3.24074 88.0876 2.79649 87.7664 2.55296C86.7255 1.76617 85.6845 0.9767 84.6466 0.189896C84.3373 -0.0456085 83.8049 -0.0803986 83.5016 0.189896C83.2131 0.446808 83.1714 0.87233 83.5016 1.12389C84.0488 1.5387 84.596 1.95351 85.1462 2.36832C84.6793 2.36832 84.2153 2.36832 83.7484 2.36832C81.7201 2.36832 79.6918 2.36832 77.6605 2.36832C74.6537 2.36832 71.6439 2.36832 68.6371 2.36832C64.9671 2.36832 61.2971 2.36832 57.6271 2.36832C53.621 2.36832 49.6149 2.36832 45.6088 2.36832C41.5373 2.36832 37.4658 2.36832 33.3943 2.36832C29.6232 2.36832 25.855 2.36832 22.0839 2.36832C18.8867 2.36832 15.6896 2.36832 12.4925 2.36832C10.1935 2.36832 7.89453 2.36832 5.59558 2.36832C4.63495 2.36832 3.67432 2.3576 2.71371 2.36563C3.07358 2.06055 3.4364 1.75546 3.79626 1.45038C3.90927 1.35403 4.02527 1.25769 4.13828 1.16135C4.43271 0.91246 4.46542 0.470901 4.13828 0.227371C3.82007 -0.0108185 3.3085 -0.0375824 2.99326 0.227371C2.18729 0.904434 1.38132 1.58687 0.575348 2.26662C0.459351 2.36296 0.346344 2.46198 0.233307 2.55832C-0.058136 2.80453 -0.0968018 3.25145 0.233307 3.49231C1.29208 4.26305 2.3479 5.03647 3.40665 5.80721C3.72192 6.03735 4.24237 6.08017 4.54871 5.80721Z" fill="#000000" fill-opacity="1.000000" fill-rule="nonzero"/>
</svg>
