<svg width="18.000000" height="7.000000" viewBox="0 0 18 7" fill="none" xmlns="http://www.w3.org/2000/svg" xmlns:xlink="http://www.w3.org/1999/xlink">
	<desc>
			Created with Pixso.
	</desc>
	<defs>
		<clipPath id="clip59_6088">
			<rect id="Frame" width="18.307692" height="7.250000" transform="translate(-0.316238 -0.428589)" fill="white" fill-opacity="0"/>
		</clipPath>
	</defs>
	<rect id="Frame" width="18.307692" height="7.250000" transform="translate(-0.316238 -0.428589)" fill="#FFFFFF" fill-opacity="0"/>
	<g clip-path="url(#clip59_6088)">
		<path id="XMLID_2_" d="M14.46 3.89C13.92 4.32 13.51 4.64 13.1 4.97C12.96 5.08 12.82 5.19 12.69 5.32C12.52 5.5 12.26 5.68 12.4 6.05C12.54 6.4 12.81 6.24 13.02 6.16C13.24 6.07 13.45 5.94 13.65 5.8C14.57 5.19 15.49 4.58 16.41 3.95C16.65 3.79 16.9 3.62 17.12 3.39C17.57 2.92 17.55 2.47 17.05 2.11C16.38 1.64 15.69 1.22 15.01 0.78C14.72 0.6 14.44 0.4 14.13 0.26C13.97 0.18 13.77 0.21 13.58 0.18C13.53 0.73 13.75 0.84 13.95 0.98C14.46 1.35 14.96 1.71 15.46 2.07C15.64 2.2 15.81 2.34 15.99 2.64C15.73 2.68 15.49 2.74 15.24 2.76C13.32 2.9 11.41 3.04 9.5 3.17C6.72 3.37 3.95 3.56 1.17 3.77C0.94 3.78 0.72 3.91 0.44 4.01C0.7 4.53 0.99 4.41 1.24 4.4C2.61 4.35 3.98 4.28 5.34 4.22C8.28 4.08 11.22 3.95 14.16 3.82C14.2 3.81 14.25 3.84 14.46 3.89Z" fill="#000000" fill-opacity="1.000000" fill-rule="nonzero"/>
		<path id="Vector" d="M12.67 6.82C12.57 6.82 12.47 6.8 12.36 6.75C12.21 6.69 12.02 6.56 11.9 6.25C11.63 5.59 12.07 5.16 12.25 4.99L12.31 4.93C12.44 4.79 12.59 4.68 12.71 4.58L12.76 4.54C12.81 4.5 12.86 4.46 12.91 4.42C10.98 4.51 9.05 4.6 7.12 4.69L4.43 4.82C3.39 4.87 2.32 4.92 1.26 4.96C1.24 4.96 1.21 4.96 1.19 4.96C0.93 4.98 0.34 5.04 -0.05 4.25L-0.32 3.68L0.27 3.48C0.35 3.45 0.43 3.42 0.5 3.39C0.69 3.32 0.89 3.23 1.13 3.22C3.14 3.07 5.15 2.93 7.16 2.79L9.46 2.62C11.23 2.5 12.99 2.37 14.76 2.24C14.55 2.09 14.34 1.93 14.12 1.78L13.59 1.4C13.37 1.25 12.96 0.95 13.03 0.13L13.09 -0.43L13.64 -0.36C13.69 -0.36 13.74 -0.36 13.78 -0.36C13.95 -0.35 14.15 -0.34 14.36 -0.24C14.65 -0.11 14.92 0.07 15.18 0.24L15.3 0.32C15.47 0.42 15.63 0.52 15.79 0.63C16.31 0.95 16.84 1.29 17.36 1.66C17.83 1.99 17.96 2.37 17.98 2.63C18.01 2.9 17.95 3.32 17.51 3.78C17.26 4.05 16.97 4.24 16.72 4.41C15.74 5.07 14.77 5.72 13.95 6.26C13.73 6.41 13.49 6.57 13.22 6.68L13.17 6.7C13.05 6.74 12.87 6.82 12.67 6.82ZM14.58 3.36C14.59 3.36 14.59 3.36 14.6 3.36L15.65 3.65L14.38 4.65C14.96 4.27 15.53 3.88 16.11 3.49C16.3 3.36 16.48 3.24 16.63 3.1L16.07 3.19C15.99 3.2 15.92 3.21 15.84 3.23C15.66 3.26 15.48 3.29 15.28 3.31C15.04 3.32 14.82 3.34 14.58 3.36ZM16.45 2.36C16.45 2.37 16.45 2.37 16.45 2.37L16.79 2.94C16.88 2.83 16.9 2.76 16.9 2.74C16.89 2.72 16.86 2.65 16.73 2.56C16.64 2.49 16.55 2.43 16.45 2.36Z" fill="#000000" fill-opacity="1.000000" fill-rule="nonzero"/>
	</g>
</svg>
