<svg width="19.001007" height="5.999313" viewBox="0 0 19.001 5.99931" fill="none" xmlns="http://www.w3.org/2000/svg" xmlns:xlink="http://www.w3.org/1999/xlink">
	<desc>
			Created with Pixso.
	</desc>
	<defs/>
	<path id="Vector" d="M18.7983 2.68112C17.8063 1.86761 16.8142 1.05681 15.8248 0.243286C15.5406 0.0108643 15.1361 -0.0323792 14.8573 0.243286C14.6141 0.483826 14.5731 0.96492 14.8573 1.20004C15.3793 1.62708 15.9013 2.05681 16.4233 2.48383C14.9721 2.48383 13.5209 2.48383 12.0696 2.48383C9.44046 2.48383 6.80856 2.48383 4.17938 2.48383C3.62459 2.48383 3.06705 2.48383 2.51224 2.48383C3.05612 2.03789 3.59726 1.59464 4.14113 1.1487C4.42537 0.91626 4.38437 0.435181 4.14113 0.19194C3.85962 -0.086441 3.4606 -0.0404968 3.17363 0.19194C2.18701 1.00545 1.19493 1.81897 0.202835 2.62978C-0.157928 2.92438 0.00878906 3.47032 0.342224 3.69194C1.42723 4.41356 2.50951 5.13248 3.59453 5.8541C3.90062 6.05681 4.35156 5.91356 4.52922 5.61086C4.726 5.27843 4.59207 4.88924 4.28325 4.68654C3.85689 4.40276 3.42781 4.11897 3.00145 3.83519C4.43356 3.83519 5.86839 3.83519 7.30051 3.83519C9.92967 3.83519 12.5616 3.83519 15.1908 3.83519C15.4859 3.83519 15.7811 3.83519 16.0735 3.83519C15.6198 4.13518 15.1689 4.43788 14.7152 4.73788C14.4091 4.94058 14.2752 5.33247 14.4692 5.66222C14.6469 5.9622 15.0951 6.10815 15.4039 5.90546C16.4889 5.18384 17.5712 4.46492 18.6562 3.74329C18.9924 3.52167 19.1591 2.97842 18.7983 2.68112Z" fill="#000000" fill-opacity="1.000000" fill-rule="nonzero"/>
</svg>
