<svg width="8.271530" height="26.253620" viewBox="0 0 8.27153 26.2536" fill="none" xmlns="http://www.w3.org/2000/svg" xmlns:xlink="http://www.w3.org/1999/xlink">
	<desc>
			Created with Pixso.
	</desc>
	<defs/>
	<path id="XMLID_1_" d="M3.92729 2.10961C4.44576 2.60015 4.90041 3.0189 5.34709 3.44563C6.87857 4.90926 7.8517 6.74777 8.1907 9.05289C8.43797 10.7399 8.12688 12.2474 7.13382 13.5156C6.14075 14.7798 5.05595 15.9523 4.00705 17.1567C3.48061 17.7589 2.9063 18.3053 2.40778 18.9354C1.53036 20.0521 1.45459 20.8816 2.0249 22.2056C2.7029 23.7809 3.92329 24.8458 5.718 25.3921C5.50662 26.3293 4.86053 26.3453 4.31813 26.1618C3.63216 25.9305 2.9382 25.5836 2.37587 25.089C1.74573 24.5347 1.16344 23.8368 0.728729 23.0711C-0.352081 21.1647 -0.232437 19.4858 1.09964 17.747C1.87733 16.734 2.79463 15.8646 3.63216 14.9114C4.40985 14.03 5.17958 13.1367 5.9214 12.2155C6.48773 11.5136 6.67117 10.6641 6.60338 9.71891C6.4957 8.28319 6.03705 7.0389 5.23543 5.9661C5.06792 5.74277 4.89244 5.52741 4.70499 5.332C3.87144 4.44664 3.02994 3.57325 2.11662 2.61212C2.38383 4.61813 2.63908 6.48855 2.87837 8.36296C2.88237 8.40284 2.74278 8.47063 2.62314 8.56236C2.51944 8.44272 2.35593 8.33902 2.30408 8.1795C1.73376 6.37688 1.1076 4.59022 0.652954 2.74372C0.305969 1.32795 0.748672 0.514377 2.01692 0.231221C3.10571 -0.0120525 4.24236 -0.0120516 5.35507 0.00788879C5.63026 0.0118771 6.01312 0.46253 6.10486 0.797531C6.16069 1.00092 5.80176 1.52337 5.54251 1.65896C5.08786 1.90224 4.5654 1.9461 3.92729 2.10961Z" fill="#000000" fill-opacity="1.000000" fill-rule="nonzero"/>
</svg>
