<svg width="5.997345" height="165.007263" viewBox="0 0 5.99734 165.007" fill="none" xmlns="http://www.w3.org/2000/svg" xmlns:xlink="http://www.w3.org/1999/xlink">
	<desc>
			Created with Pixso.
	</desc>
	<defs/>
	<path id="Vector" d="M5.59653 159.564C5.3017 159.358 4.93704 159.493 4.75861 159.826C4.36292 160.571 3.96979 161.314 3.57413 162.059C3.57413 160.732 3.57413 159.401 3.57413 158.073C3.57413 154.189 3.57413 150.309 3.57413 146.425C3.57413 140.646 3.57413 134.865 3.57413 129.087C3.57413 122.083 3.57413 115.082 3.57413 108.078C3.57413 100.356 3.57413 92.634 3.57413 84.9123C3.57413 77.1689 3.57413 69.4286 3.57413 61.6853C3.57413 54.4164 3.57413 47.1505 3.57413 39.8814C3.57413 33.7798 3.57413 27.6812 3.57413 21.5796C3.57413 17.1628 3.57413 12.7459 3.57413 8.32909C3.57413 6.55804 3.59479 4.78084 3.58188 3.0067C4.00342 3.66277 4.42755 4.3219 4.84912 4.97795C5.05084 5.29213 5.37671 5.45845 5.68704 5.23976C5.94568 5.06113 6.10858 4.5529 5.90686 4.23874C5.07413 2.94202 4.23877 1.64839 3.40601 0.351669C3.12671 -0.0795441 2.61722 -0.153458 2.34824 0.351669C1.62671 1.71924 0.905151 3.08063 0.183594 4.44202C0.00772095 4.77467 0.124115 5.24901 0.403412 5.44305C0.698242 5.64941 1.0629 5.51389 1.24136 5.18124C1.61118 4.48514 1.98102 3.78596 2.35083 3.08987C2.35083 4.10629 2.35083 5.12581 2.35083 6.14223C2.35083 10.0262 2.35083 13.9071 2.35083 17.7911C2.35083 23.5693 2.35083 29.3506 2.35083 35.1289C2.35083 42.133 2.35083 49.134 2.35083 56.1381C2.35083 63.8599 2.35083 71.5817 2.35083 79.3034C2.35083 87.0468 2.35083 94.787 2.35083 102.53C2.35083 109.799 2.35083 117.065 2.35083 124.334C2.35083 130.436 2.35083 136.534 2.35083 142.636C2.35083 147.053 2.35083 151.47 2.35083 155.887C2.35083 157.889 2.32239 159.894 2.34824 161.896C1.94739 161.274 1.5491 160.651 1.14825 160.029C0.946533 159.715 0.620667 159.549 0.310333 159.767C0.0516968 159.946 -0.111237 160.454 0.0904846 160.768C0.923248 162.065 1.75861 163.359 2.59134 164.656C2.87067 165.087 3.38016 165.161 3.64911 164.656C4.37067 163.294 5.09479 161.93 5.81635 160.568C5.99222 160.233 5.87326 159.758 5.59653 159.564Z" fill="#000000" fill-opacity="1.000000" fill-rule="nonzero"/>
</svg>
