<svg width="40.114754" height="135.000000" viewBox="0 0 40.1148 135" fill="none" xmlns="http://www.w3.org/2000/svg" xmlns:xlink="http://www.w3.org/1999/xlink">
	<desc>
			Created with Pixso.
	</desc>
	<defs>
		<clipPath id="clip81_687">
			<rect id="Frame" width="40.114754" height="135.000000" fill="white" fill-opacity="0"/>
		</clipPath>
	</defs>
	<rect id="Frame" width="40.114754" height="135.000000" fill="#FFFFFF" fill-opacity="0"/>
	<g clip-path="url(#clip81_687)">
		<path id="Vector" d="M16.7091 117.123C15.0804 117.537 13.3539 117.606 11.7112 117.204C9.87575 116.757 8.35039 115.654 6.82503 114.684C5.56786 113.885 4.29114 113.086 3.1569 112.145C2.39422 111.511 1.6902 110.787 1.29629 109.913C0.164841 107.407 0.938698 104.56 2.2685 102.247C2.46685 101.903 2.70432 101.587 2.95854 101.277C3.6877 100.386 4.49229 99.5423 5.2857 98.6986C6.62667 97.2738 7.99 95.8686 9.37288 94.4801C10.8312 93.0135 12.5186 91.7367 14.1333 90.4097C13.921 90.3594 13.7115 90.3091 13.4992 90.2589C13.7674 91.8149 14.0356 93.371 14.301 94.9271C14.4351 95.7038 14.5692 96.4832 14.7033 97.2599C14.7731 97.6622 15.0581 97.7376 15.4296 97.9332C15.8179 98.1371 16.2063 98.3383 16.5974 98.5422C19.6006 100.109 22.6066 101.677 25.6099 103.241C25.7803 103.331 26.0066 103.498 26.2049 103.518C26.3977 103.537 26.6016 103.431 26.7776 103.372C27.247 103.219 27.7163 103.065 28.1857 102.912C29.1243 102.604 30.063 102.297 31.0017 101.99C30.8453 101.85 30.6916 101.71 30.5352 101.573C29.4875 105.733 27.842 109.767 25.6182 113.542C23.428 117.254 20.6958 120.705 17.5109 123.789C16.1783 125.08 14.7675 126.303 13.2869 127.46C12.9181 127.748 13.4573 128.225 13.8232 127.94C16.7399 125.658 19.3827 123.11 21.7043 120.336C24.8276 116.609 27.3364 112.486 29.1551 108.122C30.0211 106.046 30.7223 103.917 31.2671 101.755C31.3258 101.523 31.0883 101.244 30.8006 101.339C29.2529 101.847 27.7024 102.356 26.1546 102.861C26.2524 102.872 26.3502 102.884 26.448 102.895C22.7296 100.956 19.0139 99.0171 15.2955 97.0783C15.3542 97.1453 15.4129 97.2124 15.4687 97.2822C15.0553 94.8824 14.6418 92.4826 14.2283 90.08C14.1808 89.8119 13.7841 89.7755 13.5942 89.9292C12.0828 91.1724 10.4736 92.3597 9.10468 93.7286C7.84752 94.9886 6.60712 96.2597 5.38348 97.5448C4.40848 98.5673 3.43347 99.5954 2.52552 100.665C2.20983 101.037 1.89693 101.417 1.65109 101.83C0.29335 104.13 -0.483299 106.879 0.315704 109.443C1.05603 111.815 3.3776 113.299 5.5036 114.676C6.42832 115.274 7.35583 115.869 8.2973 116.441C9.15218 116.964 10.049 117.433 11.0323 117.732C12.9237 118.305 14.9938 118.26 16.9019 117.777C17.3796 117.659 17.1813 117.006 16.7091 117.123Z" fill="#050505" fill-opacity="1.000000" fill-rule="nonzero"/>
		<path id="Vector" d="M11.7559 130.605C11.9235 130.08 11.3229 129.709 10.9793 129.373C10.848 129.245 10.6692 129.083 10.7753 128.904C10.9206 128.667 11.3005 128.53 11.5715 128.454C12.2504 128.267 12.9795 128.345 13.4684 128.834C13.8484 129.217 14.0356 129.734 14.1557 130.226C14.4015 131.251 14.3987 132.407 13.6389 133.273C13.1639 133.815 12.3789 134.369 11.5687 134.324C11.2475 134.307 10.8256 134.179 10.6161 133.944C10.4261 133.729 10.6273 133.536 10.8033 133.377C11.1329 133.078 11.8956 132.718 11.7671 132.206C11.619 131.631 10.6105 131.751 10.1551 131.79C10.2641 131.846 10.373 131.902 10.482 131.958C10.373 131.782 10.1356 131.449 10.3311 131.265C10.4373 131.164 10.6747 131.15 10.8144 131.125C11.1553 131.061 11.5464 130.994 11.7196 130.684C11.9347 130.295 11.281 129.949 11.0659 130.343C11.0407 130.388 11.0351 130.382 10.9094 130.416C10.8005 130.443 10.6859 130.457 10.577 130.48C10.3339 130.527 10.0937 130.586 9.8925 130.72C9.28627 131.117 9.51815 131.81 9.82825 132.301C9.88971 132.396 10.0266 132.48 10.1551 132.469C10.2613 132.461 11.1329 132.458 11.1217 132.477C11.1022 132.508 10.9988 132.248 11.0323 132.271C11.0156 132.262 11.0519 132.279 11.01 132.293C10.9066 132.329 10.7586 132.505 10.6692 132.575C10.1858 132.947 9.57682 133.441 9.83663 134.075C10.13 134.793 11.2335 135.081 11.999 134.978C12.9097 134.855 13.7227 134.293 14.2674 133.651C15.1558 132.606 15.1838 131.251 14.8793 130.016C14.5496 128.681 13.5578 127.502 11.8704 127.706C11.1469 127.792 10.0154 128.192 9.97911 128.974C9.96235 129.32 10.1942 129.608 10.4457 129.851C10.5434 129.946 11.0631 130.315 11.0267 130.424C10.8899 130.846 11.6218 131.025 11.7559 130.605Z" fill="#050505" fill-opacity="1.000000" fill-rule="nonzero"/>
		<path id="Vector" d="M8.60461 99.6374C8.89516 99.7212 9.05161 99.7826 9.33377 99.9307C9.70813 100.126 10.0378 100.38 10.3144 100.679C10.5854 100.97 10.7949 101.314 10.9318 101.671C10.9848 101.811 11.0295 101.953 11.0631 102.096C11.077 102.154 11.0882 102.21 11.0994 102.269C11.1022 102.28 11.1161 102.384 11.1078 102.319C11.0994 102.261 11.1106 102.344 11.1134 102.356C11.1357 102.537 11.2726 102.694 11.4933 102.694C11.6805 102.694 11.8956 102.537 11.8732 102.356C11.6777 100.794 10.4876 99.4641 8.80576 98.9808C8.33921 98.8495 8.14086 99.5033 8.60461 99.6374Z" fill="#050505" fill-opacity="1.000000" fill-rule="nonzero"/>
		<path id="Vector" d="M17.9551 106.197C19.3073 105.194 21.2545 105.222 22.6597 106.158C22.8245 106.267 23.0816 106.18 23.1793 106.035C23.2939 105.864 23.2073 105.68 23.0424 105.571C22.3329 105.096 21.4556 104.814 20.5728 104.761C19.4218 104.691 18.3015 105.065 17.4215 105.716C17.0444 105.996 17.5836 106.474 17.9551 106.197Z" fill="#050505" fill-opacity="1.000000" fill-rule="nonzero"/>
		<path id="Vector" d="M11.5408 106.42C11.3648 107.415 10.739 108.6 9.45387 108.625C7.8028 108.661 6.49534 107.328 5.97292 106.049C5.80809 105.641 5.07335 105.817 5.24097 106.23C5.77736 107.549 6.86411 108.734 8.40344 109.164C8.97335 109.323 9.6187 109.362 10.1942 109.197C10.887 108.999 11.4123 108.524 11.7531 107.96C12.0073 107.541 12.1889 107.071 12.2727 106.599C12.3454 106.175 11.6162 105.99 11.5408 106.42Z" fill="#050505" fill-opacity="1.000000" fill-rule="nonzero"/>
		<path id="Vector" d="M11.2167 107.988C11.1022 109.169 11.5352 110.354 12.3817 111.265C13.46 112.424 15.2033 112.829 16.7929 112.346C17.3209 112.184 17.8238 111.952 18.2652 111.645C18.6479 111.376 18.1088 110.899 17.7288 111.164C17.8601 111.072 17.6534 111.209 17.6171 111.231C17.5193 111.29 17.4187 111.346 17.3154 111.396C16.9969 111.558 16.6616 111.681 16.3068 111.768C15.3737 111.991 14.3987 111.86 13.5997 111.363C12.4152 110.622 11.8509 109.239 11.971 107.988C12.0185 107.555 11.2586 107.557 11.2167 107.988Z" fill="#050505" fill-opacity="1.000000" fill-rule="nonzero"/>
		<path id="Vector" d="M12.2001 105.848C12.1777 105.837 12.1554 105.82 12.1331 105.809C12.0995 105.792 12.1638 105.828 12.1638 105.831C12.1638 105.825 12.1414 105.814 12.1386 105.811C12.1191 105.795 12.0995 105.778 12.08 105.761C12.0688 105.75 12.0073 105.694 12.0492 105.73C12.0884 105.767 12.0353 105.711 12.0241 105.694C12.0101 105.677 11.999 105.658 11.9878 105.638C11.9738 105.616 11.9626 105.594 11.9487 105.571C11.9291 105.54 11.9654 105.602 11.9626 105.602C11.9626 105.602 11.9459 105.566 11.9459 105.56C11.9263 105.515 11.9124 105.468 11.9012 105.423C11.8956 105.398 11.8872 105.373 11.8844 105.348C11.8816 105.336 11.8816 105.325 11.8788 105.314C11.8704 105.269 11.8844 105.384 11.8844 105.339C11.8844 105.292 11.876 105.247 11.876 105.2C11.876 105.174 11.8788 105.149 11.8788 105.124C11.8816 105.046 11.8649 105.177 11.8788 105.121C11.89 105.077 11.8984 105.029 11.9151 104.987C11.9179 104.979 11.9235 104.968 11.9263 104.959C11.9347 104.926 11.9096 104.996 11.9068 104.996C11.9235 104.979 11.9319 104.951 11.9459 104.929C11.9515 104.92 11.9794 104.892 11.9794 104.884C11.9822 104.906 11.9179 104.945 11.9766 104.892C11.9878 104.881 12.0409 104.848 11.9878 104.881C11.9291 104.917 12.0073 104.873 12.0185 104.864C12.0353 104.856 12.0548 104.85 12.0688 104.839C12.0967 104.822 12.0241 104.856 12.0213 104.856C12.0297 104.856 12.0492 104.848 12.0576 104.845C12.1023 104.834 12.1498 104.822 12.1945 104.814C12.2588 104.803 12.1107 104.82 12.1777 104.817C12.2029 104.817 12.228 104.814 12.2532 104.811C12.3063 104.808 12.3593 104.811 12.4096 104.814C12.432 104.817 12.4543 104.82 12.4795 104.82C12.5298 104.822 12.3985 104.808 12.4487 104.817C12.4599 104.82 12.4711 104.82 12.4851 104.822C12.5409 104.831 12.594 104.842 12.6471 104.853C12.6974 104.864 12.7477 104.878 12.798 104.892C12.8203 104.898 12.8427 104.906 12.865 104.915C12.879 104.92 12.9795 104.948 12.9181 104.934C12.8594 104.917 12.946 104.945 12.96 104.951C12.9823 104.959 13.0019 104.97 13.0215 104.979C13.0689 105.001 13.1136 105.024 13.1583 105.049C13.1807 105.06 13.2002 105.074 13.2226 105.088C13.231 105.093 13.2394 105.102 13.2477 105.105C13.2505 105.105 13.1835 105.057 13.2114 105.079C13.2449 105.107 13.2813 105.133 13.3148 105.163C13.3316 105.177 13.3427 105.194 13.3595 105.208C13.4014 105.247 13.3148 105.144 13.3455 105.191C13.3567 105.205 13.3679 105.222 13.3763 105.236C13.4126 105.289 13.3707 105.25 13.3707 105.214C13.3707 105.228 13.3818 105.247 13.3874 105.261C13.4098 105.311 13.3874 105.214 13.3846 105.225C13.3818 105.236 13.3846 105.261 13.3846 105.275C13.3902 105.32 13.407 105.188 13.3874 105.25C13.3818 105.267 13.3763 105.286 13.3707 105.303C13.3539 105.356 13.3595 105.309 13.3818 105.283C13.3539 105.311 13.3399 105.362 13.3176 105.392C13.3036 105.412 13.2896 105.429 13.2757 105.448C13.2282 105.51 13.3176 105.406 13.2729 105.451C13.2366 105.487 13.203 105.524 13.1639 105.557C13.122 105.596 13.0717 105.627 13.027 105.663C12.9963 105.688 13.055 105.641 13.055 105.644C13.055 105.649 13.0187 105.666 13.0159 105.669C12.9879 105.686 12.96 105.702 12.9321 105.719C12.879 105.75 12.8259 105.775 12.77 105.8C12.7588 105.806 12.7477 105.809 12.7365 105.814C12.6639 105.848 12.7924 105.797 12.7477 105.811C12.7197 105.82 12.6946 105.831 12.6666 105.839C12.6052 105.859 12.5437 105.87 12.4795 105.884C12.418 105.898 12.5633 105.878 12.4767 105.884C12.4459 105.887 12.4152 105.887 12.3845 105.887C12.3649 105.887 12.3202 105.876 12.3035 105.884C12.3091 105.881 12.4013 105.901 12.337 105.887C12.323 105.884 12.3063 105.881 12.2923 105.878C12.2672 105.873 12.242 105.865 12.2169 105.859C12.2029 105.856 12.1526 105.845 12.2085 105.856C12.2727 105.87 12.2169 105.856 12.2001 105.848C12.0241 105.764 11.7783 105.803 11.6805 105.971C11.5883 106.127 11.6302 106.345 11.8174 106.434C12.4124 106.719 13.0913 106.49 13.5774 106.135C13.9825 105.842 14.3345 105.325 14.0188 104.876C13.7366 104.47 13.1472 104.233 12.6359 104.166C12.3621 104.13 12.0716 104.121 11.8062 104.211C11.4961 104.32 11.2894 104.521 11.1804 104.8C10.9625 105.364 11.2223 106.13 11.8146 106.432C11.9878 106.521 12.2364 106.474 12.3342 106.309C12.432 106.152 12.3845 105.943 12.2001 105.848Z" fill="#050505" fill-opacity="1.000000" fill-rule="nonzero"/>
		<path id="Vector" d="M22.1317 110.714C24.3304 111.522 26.529 112.329 28.7276 113.139C29.0405 113.254 29.3534 113.368 29.6691 113.486C30.1189 113.651 30.3173 112.997 29.8703 112.832C27.6716 112.025 25.473 111.217 23.2743 110.407C22.9614 110.293 22.6485 110.178 22.3329 110.061C21.8803 109.896 21.6847 110.552 22.1317 110.714Z" fill="#050505" fill-opacity="1.000000" fill-rule="nonzero"/>
		<path id="Vector" d="M21.4193 114.19C23.4084 115.187 25.3947 116.182 27.3839 117.179C27.6688 117.321 27.951 117.464 28.2359 117.606C28.6634 117.819 29.0461 117.235 28.6187 117.02C26.6296 116.022 24.6432 115.028 22.6541 114.03C22.3692 113.888 22.087 113.746 21.802 113.603C21.3774 113.391 20.9947 113.975 21.4193 114.19Z" fill="#050505" fill-opacity="1.000000" fill-rule="nonzero"/>
		<path id="Vector" d="M5.69913 102.906C4.27994 102.068 2.86073 101.233 1.44154 100.394C1.24319 100.277 1.04483 100.16 0.846481 100.042C0.888382 100.202 0.93029 100.361 0.972198 100.52C1.02807 100.445 1.08395 100.369 1.13982 100.294C0.980576 100.336 0.821335 100.378 0.662094 100.42C2.08129 101.258 3.5005 102.093 4.91969 102.931C5.11805 103.048 5.3164 103.166 5.51476 103.283C5.47285 103.124 5.43094 102.965 5.38904 102.805C5.33316 102.881 5.27729 102.956 5.22141 103.032C4.95322 103.395 5.55945 103.741 5.82485 103.384C5.88073 103.308 5.9366 103.233 5.99248 103.157C6.10423 103.004 6.01482 102.766 5.86676 102.68C4.44756 101.842 3.02836 101.006 1.60916 100.168C1.4108 100.051 1.21246 99.9335 1.0141 99.8161C0.838097 99.7128 0.648125 99.791 0.536377 99.9419C0.480507 100.017 0.424629 100.093 0.368752 100.168C0.257004 100.322 0.346405 100.559 0.494469 100.646C1.91367 101.484 3.33287 102.319 4.75208 103.157C4.95042 103.275 5.14878 103.392 5.34713 103.509C5.73546 103.738 6.08746 103.135 5.69913 102.906Z" fill="#1B1B1B" fill-opacity="1.000000" fill-rule="nonzero"/>
		<path id="Vector" d="M10.1914 0.653717C11.3424 1.3298 12.4906 2.00586 13.6416 2.68195C14.03 2.91104 14.382 2.30759 13.9937 2.07852C12.8427 1.40244 11.6944 0.726349 10.5434 0.050293C10.1551 -0.178802 9.8031 0.424652 10.1914 0.653717Z" fill="#1B1B1B" fill-opacity="1.000000" fill-rule="nonzero"/>
		<path id="Vector" d="M8.54034 59.232C7.69386 60.1707 7.28597 61.4837 7.63239 62.7242C7.95646 63.8891 8.92308 64.6741 10.1495 64.6685C10.9373 64.663 11.7084 64.3669 12.3314 63.8891C12.4795 63.7746 12.5605 63.5874 12.4571 63.4114C12.3705 63.2633 12.1302 63.1711 11.9794 63.2857C11.1776 63.8975 9.9344 64.2886 9.02924 63.6461C8.33361 63.1488 8.11291 62.1598 8.24142 61.358C8.3392 60.7462 8.62415 60.1875 9.03762 59.7265C9.33376 59.3913 8.84206 58.8968 8.54034 59.232Z" fill="#050505" fill-opacity="1.000000" fill-rule="nonzero"/>
		<path id="Vector" d="M13.8316 2.80487C15.1558 3.45862 16.4801 4.11511 17.8015 4.76886C18.4636 5.0957 19.1257 5.42258 19.7878 5.74945C20.0979 5.90311 20.4052 6.05396 20.7153 6.20761C21.0198 6.35846 21.2238 6.5177 21.5618 6.37524C24.2493 5.23541 26.8894 3.995 29.549 2.80487C29.3646 2.67636 29.1774 2.55066 28.993 2.42215C27.8253 7.31113 26.3195 12.1331 24.4784 16.8516C23.9923 18.0948 23.4839 19.3324 22.9531 20.5616C22.7771 20.9695 23.509 21.1455 23.685 20.7432C25.6518 16.1839 27.3112 11.5184 28.641 6.7803C29.0294 5.39465 29.3897 4.00058 29.725 2.60373C29.7948 2.30762 29.468 2.08691 29.169 2.22101C26.4843 3.4223 23.7996 4.62079 21.1148 5.82208C21.2433 5.82208 21.369 5.82208 21.4975 5.82208C19.0698 4.62079 16.6449 3.4223 14.2172 2.22101C13.7869 2.00589 13.4042 2.59256 13.8316 2.80487Z" fill="#050505" fill-opacity="1.000000" fill-rule="nonzero"/>
		<path id="Vector" d="M14.1222 24.7186C16.7874 23.9168 19.4078 22.9977 21.9753 21.9696C23.4028 21.3969 24.8109 20.7851 26.2133 20.1649C27.1185 19.7654 28.018 19.3324 28.9595 19.0083C29.1942 18.9273 29.5797 18.81 29.7473 18.7932C29.8004 18.7876 29.8507 18.7848 29.9038 18.7876C30.0127 18.7876 29.9317 18.7904 29.9652 18.7932C30.0574 18.8016 29.9541 18.7988 29.996 18.8016C30.0295 18.8044 29.9541 18.782 30.0267 18.8267C29.9513 18.7792 29.9932 18.7737 30.0183 18.8239C30.0267 18.8435 30.0351 18.8714 30.0351 18.8938C30.0323 18.7737 30.0323 18.9022 30.0295 18.9273C30.0183 19.0614 30.0351 18.986 30.0071 19.1005C29.9792 19.2039 29.9485 19.3044 29.9094 19.405C29.6328 20.1174 29.1467 20.7767 28.6913 21.4025C28.2946 21.9473 27.8756 22.4781 27.4481 23.0033C27.2386 23.2603 26.9006 23.5146 27.0011 23.8526C27.124 24.2633 27.3028 24.6656 27.4537 25.0678C28.7416 28.5181 30.0267 31.9711 31.3146 35.4213C31.3733 35.5778 31.5046 35.6532 31.6806 35.67C34.3653 35.9465 37.0501 36.2231 39.7348 36.4997C39.6706 36.2902 39.6063 36.0778 39.5448 35.8683C34.8347 37.9915 30.1245 40.1147 25.4143 42.2407C24.0845 42.8414 22.7547 43.4392 21.4249 44.0399C20.9891 44.2354 21.3718 44.8221 21.8076 44.6266C26.5178 42.5034 31.228 40.3801 35.9382 38.2541C37.268 37.6535 38.5978 37.0556 39.9276 36.455C40.2991 36.2874 40.0729 35.8571 39.7376 35.8236C37.0529 35.547 34.3681 35.2704 31.6834 34.9939C31.8063 35.0777 31.9264 35.1587 32.0493 35.2425C30.605 31.3649 29.1579 27.4872 27.7135 23.6095C27.6996 23.6961 27.6884 23.7827 27.6744 23.8722C28.7416 22.5926 29.9177 21.2461 30.5799 19.7458C30.8006 19.243 31.0045 18.4524 30.2949 18.1786C29.915 18.0333 29.4624 18.1395 29.088 18.2512C28.4427 18.4412 27.8225 18.715 27.2107 18.9776C25.0986 19.8883 23.0117 20.8382 20.8606 21.6791C18.5893 22.5647 16.2761 23.3609 13.9294 24.0677C13.4628 24.2018 13.6584 24.8583 14.1222 24.7186Z" fill="#050505" fill-opacity="1.000000" fill-rule="nonzero"/>
		<path id="Vector" d="M16.9242 46.5123C18.8351 44.8501 20.7432 43.1878 22.6541 41.5284C22.4418 41.4194 22.2323 41.3076 22.0199 41.1987C21.5981 43.1627 21.1762 45.1266 20.7516 47.0906C20.7041 47.3085 20.6566 47.5264 20.6119 47.7443C20.5644 47.9706 20.4387 48.2584 20.4583 48.4903C20.4722 48.6746 20.6343 48.8031 20.7544 48.94C20.9416 49.1523 21.126 49.3619 21.3131 49.5742C22.0116 50.3676 22.7072 51.161 23.4056 51.9572C24.7857 53.5329 26.163 55.1085 27.5403 56.6842C28.2164 57.458 28.8925 58.2347 29.5657 59.0085C29.8982 59.3885 30.2278 59.7712 30.5603 60.1512C30.7112 60.3244 30.8508 60.506 31.0129 60.6708C31.2308 60.8943 31.5493 61.0032 31.8426 61.1429C34.0496 62.1934 36.2539 63.241 38.4609 64.2914C38.4609 64.0959 38.4609 63.9003 38.4609 63.7047C31.7085 67.141 24.9561 70.5828 18.2093 74.0303C16.5443 74.8795 14.8792 75.7316 13.2142 76.5837C12.7896 76.8016 13.1723 77.3855 13.5969 77.1704C20.0392 73.8766 26.4843 70.5856 32.9349 67.3002C34.9045 66.2973 36.8741 65.2944 38.8436 64.2914C39.0839 64.1685 39.0951 63.8249 38.8436 63.7047C37.3881 63.0119 35.9326 62.3191 34.4771 61.6262C33.7703 61.291 33.0662 60.9557 32.3594 60.6177C31.9739 60.4333 31.6442 60.2964 31.3705 59.9807C31.1134 59.6874 30.8592 59.3913 30.6022 59.0979C28.5879 56.782 26.5709 54.4716 24.5482 52.1612C23.4028 50.8537 22.2574 49.5491 21.1092 48.2444C21.1427 48.3534 21.1735 48.4651 21.207 48.5741C21.7238 46.1743 22.2406 43.7745 22.7547 41.3719C22.8245 41.0506 22.4055 40.7936 22.1205 41.0422C20.2096 42.7045 18.3015 44.3668 16.3906 46.0262C16.0358 46.3363 16.5722 46.8168 16.9242 46.5123Z" fill="#050505" fill-opacity="1.000000" fill-rule="nonzero"/>
		<path id="Vector" d="M20.9751 72.8262C20.6203 73.5078 20.1984 74.1867 19.8995 74.8879C19.7375 75.2679 20.2124 75.8769 20.3856 76.2122C21.3048 78.0141 22.2239 79.8132 23.143 81.6152C23.4028 82.1236 23.6598 82.6293 23.9197 83.1377C23.9783 83.2495 24.1208 83.297 24.2465 83.3054C26.2747 83.4674 28.303 83.6266 30.3312 83.7887C30.6273 83.811 30.9207 83.8362 31.2168 83.8585C31.1079 83.6881 30.9989 83.5177 30.8899 83.3473C30.0882 84.7441 29.2836 86.1382 28.4818 87.535C28.3616 87.7418 28.2611 87.9848 28.113 88.1776C27.951 88.3871 27.7219 88.5771 27.5319 88.7643C27.2023 89.0939 26.867 89.4208 26.5262 89.7448C25.0958 91.1082 23.5872 92.4072 22.0116 93.6365C20.1063 95.1199 18.0976 96.4972 16.0051 97.7628C15.6028 98.0058 15.9828 98.5925 16.3878 98.3494C20.056 96.1312 23.4643 93.575 26.5346 90.7226C27.2218 90.0829 27.8923 89.4291 28.546 88.7614C28.7332 88.5715 28.8366 88.4011 28.9651 88.1804C29.4484 87.3423 29.9317 86.5013 30.4122 85.6632C30.7922 85.0039 31.1693 84.3474 31.5493 83.6881C31.6889 83.4478 31.5129 83.202 31.2224 83.1768C29.1942 83.0148 27.1659 82.8556 25.1377 82.6935C24.8416 82.6712 24.5482 82.646 24.2521 82.6237C24.3611 82.6796 24.47 82.7354 24.579 82.7913C23.4 80.4837 22.2239 78.1733 21.0449 75.8657C20.8801 75.5445 20.7153 75.2204 20.5505 74.8991C20.5505 75.0136 20.5505 75.1282 20.5505 75.2399C20.9108 74.5471 21.274 73.8543 21.6344 73.1614C21.8356 72.7759 21.1818 72.4323 20.9751 72.8262Z" fill="#050505" fill-opacity="1.000000" fill-rule="nonzero"/>
		<path id="Vector" d="M21.749 87.0321C21.735 87.887 21.1483 88.6748 20.2376 88.9682C19.3157 89.2643 18.268 89.0073 17.6478 88.3284C17.0444 87.6663 16.9745 86.7053 17.4634 85.9733C17.9467 85.2498 18.9217 84.8419 19.8548 85.0011C20.95 85.1883 21.7322 86.0404 21.749 87.0321C21.7545 87.468 22.5144 87.468 22.5061 87.0321C22.4893 85.8895 21.7043 84.8726 20.5058 84.4647C19.3129 84.0597 17.8964 84.4005 17.0891 85.2805C16.2789 86.1689 16.1448 87.44 16.8097 88.4318C17.4718 89.4208 18.7625 89.9236 20.0225 89.7197C21.4612 89.4878 22.4865 88.3173 22.5061 87.0294C22.5144 86.5935 21.7545 86.5935 21.749 87.0321Z" fill="#050505" fill-opacity="1.000000" fill-rule="nonzero"/>
		<path id="Vector" d="M20.2683 86.8003C20.2683 87.2339 19.8756 87.5853 19.3911 87.5853C18.9066 87.5853 18.5139 87.2339 18.5139 86.8003C18.5139 86.3667 18.9066 86.0153 19.3911 86.0153C19.8756 86.0153 20.2683 86.3667 20.2683 86.8003Z" fill="#050505" fill-opacity="1.000000" fill-rule="evenodd"/>
		<path id="Vector" d="M19.8911 86.8003C19.8911 86.8226 19.8884 86.845 19.8884 86.8645C19.8856 86.926 19.8884 86.8422 19.8939 86.8394C19.88 86.8506 19.8744 86.9204 19.866 86.9427C19.8604 86.9567 19.8409 86.9902 19.8437 87.0014C19.8437 86.993 19.8856 86.9288 19.8548 86.9763C19.8325 87.0126 19.8101 87.0461 19.785 87.0824C19.7431 87.1411 19.8325 87.0433 19.7962 87.0713C19.7822 87.0824 19.771 87.0964 19.757 87.1104C19.7459 87.1187 19.7347 87.1299 19.7235 87.1383C19.7179 87.1439 19.7123 87.1467 19.7068 87.1523C19.676 87.1746 19.6844 87.169 19.7291 87.1383C19.6984 87.1467 19.6593 87.1802 19.6341 87.1942C19.6202 87.1998 19.6062 87.2054 19.5922 87.2137C19.5308 87.2473 19.676 87.1914 19.5866 87.2165C19.5503 87.2277 19.5112 87.2389 19.4749 87.2445C19.4134 87.2556 19.4553 87.2277 19.4944 87.2445C19.4833 87.2389 19.447 87.2473 19.433 87.2473C19.3911 87.2501 19.352 87.2473 19.3101 87.2445C19.257 87.2417 19.4078 87.2612 19.3268 87.2473C19.3045 87.2417 19.2821 87.2389 19.257 87.2333C19.2346 87.2277 19.2123 87.2193 19.1899 87.2137C19.1424 87.1998 19.2011 87.1998 19.2151 87.2249C19.2039 87.2081 19.1368 87.1886 19.1145 87.1746C19.0977 87.1662 19.0838 87.1551 19.067 87.1467C19.0223 87.1243 19.1368 87.2025 19.081 87.1551C19.0642 87.1411 19.0028 87.0713 18.986 87.0685C19.0111 87.074 19.0307 87.1271 19.0028 87.088C18.9916 87.0713 18.9776 87.0545 18.9664 87.0377C18.9581 87.0266 18.9497 87.0154 18.9441 87.0014C18.9413 86.9958 18.9357 86.9902 18.9329 86.9818C18.9161 86.9483 18.9189 86.9567 18.9441 87.007C18.9469 86.9818 18.9161 86.9344 18.9078 86.9064C18.905 86.8925 18.9022 86.8785 18.8966 86.8645C18.8798 86.7975 18.9022 86.9455 18.8966 86.8589C18.8938 86.8254 18.8938 86.7947 18.8966 86.7611C18.8994 86.7276 18.9245 86.6857 18.8938 86.7667C18.8994 86.7528 18.8994 86.7388 18.9022 86.7248C18.9106 86.6913 18.9245 86.6578 18.9357 86.6243C18.9608 86.5544 18.8938 86.6913 18.9329 86.6299C18.9441 86.6131 18.9553 86.5935 18.9664 86.5768C18.9776 86.5628 18.986 86.5488 18.9972 86.5349C19.0307 86.4874 19.0195 86.5405 18.986 86.5461C19.0028 86.5432 19.0502 86.4846 19.0642 86.4734C19.0754 86.4622 19.1313 86.4371 19.0782 86.4594C19.0223 86.4846 19.0838 86.4566 19.0949 86.4483C19.1201 86.4343 19.2067 86.4063 19.2151 86.3868C19.2123 86.3924 19.1257 86.4147 19.1899 86.398C19.2123 86.3924 19.2346 86.384 19.257 86.3784C19.271 86.3756 19.2877 86.37 19.3017 86.3672C19.3129 86.3644 19.3883 86.3589 19.3212 86.3617C19.2514 86.3672 19.3324 86.3617 19.3436 86.3617C19.3631 86.3617 19.3855 86.3617 19.405 86.3617C19.4246 86.3617 19.447 86.3644 19.4665 86.3644C19.5475 86.3672 19.3883 86.3477 19.4609 86.3644C19.5056 86.3756 19.5503 86.3868 19.5978 86.398C19.6732 86.4203 19.5419 86.3672 19.581 86.3924C19.6034 86.4063 19.6285 86.4147 19.6509 86.4259C19.6649 86.4343 19.676 86.4399 19.69 86.4483C19.704 86.4566 19.7151 86.465 19.7263 86.4706C19.6788 86.4371 19.6732 86.4343 19.704 86.4566C19.7319 86.4818 19.757 86.5041 19.785 86.5293C19.8409 86.5796 19.7375 86.465 19.7822 86.5237C19.7934 86.5404 19.8073 86.5572 19.8185 86.574C19.8297 86.5907 19.8409 86.6103 19.852 86.627C19.8884 86.6829 19.8269 86.5572 19.8492 86.6215C19.8632 86.6606 19.8744 86.7025 19.8884 86.7416C19.8995 86.7835 19.8688 86.7472 19.8856 86.7137C19.8772 86.7304 19.8911 86.7807 19.8911 86.8003C19.8939 86.9763 20.0644 87.1467 20.2711 87.1383C20.475 87.1299 20.6538 86.9902 20.651 86.8003C20.6427 86.3198 20.3102 85.9091 19.8101 85.7415C19.3436 85.585 18.7625 85.7219 18.444 86.0683C18.106 86.4371 18.0333 86.9567 18.3127 87.3758C18.5921 87.792 19.1257 87.9876 19.6509 87.901C20.232 87.8088 20.6427 87.3171 20.651 86.8031C20.6538 86.627 20.475 86.4566 20.2711 86.465C20.0616 86.4706 19.8939 86.6103 19.8911 86.8003Z" fill="#050505" fill-opacity="1.000000" fill-rule="nonzero"/>
		<path id="Vector" d="M19.148 92.4938C20.232 93.114 21.3159 93.7342 22.4027 94.3517C22.5563 94.441 22.7128 94.5276 22.8664 94.617C23.2799 94.8517 23.6599 94.265 23.2492 94.0304C22.1652 93.4102 21.0813 92.7899 19.9945 92.1725C19.8409 92.0832 19.6844 91.9966 19.5308 91.9072C19.1201 91.6725 18.7374 92.2592 19.148 92.4938Z" fill="#050505" fill-opacity="1.000000" fill-rule="nonzero"/>
		<path id="Vector" d="M18.0836 94.4969C18.6563 95.3322 19.2262 96.1648 19.799 97.0001C19.88 97.1202 19.9638 97.2403 20.0448 97.3605C20.299 97.732 20.9556 97.3912 20.6985 97.0196C20.1258 96.1843 19.5559 95.3518 18.9832 94.5165C18.9022 94.3964 18.8184 94.2762 18.7374 94.1561C18.4831 93.7817 17.8266 94.1226 18.0836 94.4969Z" fill="#050505" fill-opacity="1.000000" fill-rule="nonzero"/>
		<path id="Vector" d="M15.2089 83.7552C15.2089 84.1887 14.8162 84.5402 14.3317 84.5402C13.8472 84.5402 13.4545 84.1887 13.4545 83.7552C13.4545 83.3216 13.8472 82.9701 14.3317 82.9701C14.8162 82.9701 15.2089 83.3216 15.2089 83.7552Z" fill="#050505" fill-opacity="1.000000" fill-rule="evenodd"/>
		<path id="Vector" d="M14.8318 83.7552C14.8318 83.7775 14.829 83.7999 14.829 83.8194C14.8262 83.8809 14.829 83.7971 14.8346 83.7943C14.8206 83.8055 14.815 83.8753 14.8066 83.8976C14.801 83.9116 14.7815 83.9451 14.7843 83.9563C14.7843 83.9479 14.8262 83.8837 14.7954 83.9312C14.7731 83.9675 14.7507 84.001 14.7256 84.0373C14.6837 84.096 14.7731 83.9982 14.7368 84.0262C14.7228 84.0373 14.7116 84.0513 14.6977 84.0652C14.6865 84.0736 14.6753 84.0848 14.6641 84.0932C14.6586 84.0988 14.653 84.1016 14.6474 84.1072C14.6166 84.1295 14.625 84.1239 14.6697 84.0932C14.639 84.1016 14.5999 84.1351 14.5747 84.1491C14.5608 84.1547 14.5468 84.1602 14.5328 84.1686C14.4714 84.2021 14.6166 84.1463 14.5272 84.1714C14.4909 84.1826 14.4518 84.1938 14.4155 84.1994C14.354 84.2105 14.3959 84.1826 14.4351 84.1994C14.4239 84.1938 14.3876 84.2021 14.3736 84.2021C14.3317 84.205 14.2926 84.2021 14.2507 84.1994C14.1976 84.1966 14.3484 84.2161 14.2674 84.2021C14.2451 84.1966 14.2227 84.1938 14.1976 84.1882C14.1752 84.1826 14.1529 84.1742 14.1305 84.1686C14.0831 84.1547 14.1417 84.1547 14.1557 84.1798C14.1445 84.163 14.0775 84.1435 14.0551 84.1295C14.0384 84.1211 14.0244 84.11 14.0076 84.1016C13.9629 84.0792 14.0775 84.1574 14.0216 84.11C14.0048 84.096 13.9434 84.0262 13.9266 84.0233C13.9517 84.0289 13.9713 84.082 13.9434 84.0429C13.9322 84.0262 13.9182 84.0094 13.907 83.9926C13.8987 83.9814 13.8903 83.9703 13.8847 83.9563C13.8819 83.9507 13.8763 83.9451 13.8735 83.9367C13.8568 83.9032 13.8596 83.9116 13.8847 83.9619C13.8875 83.9367 13.8568 83.8893 13.8484 83.8613C13.8456 83.8474 13.8428 83.8334 13.8372 83.8194C13.8204 83.7523 13.8428 83.9004 13.8372 83.8138C13.8344 83.7803 13.8344 83.7496 13.8372 83.716C13.84 83.6825 13.8651 83.6406 13.8344 83.7216C13.84 83.7077 13.84 83.6937 13.8428 83.6797C13.8512 83.6462 13.8651 83.6127 13.8763 83.5792C13.9015 83.5093 13.8344 83.6462 13.8735 83.5847C13.8847 83.568 13.8959 83.5484 13.907 83.5316C13.9182 83.5177 13.9266 83.5037 13.9378 83.4897C13.9713 83.4423 13.9601 83.4954 13.9266 83.5009C13.9434 83.4981 13.9909 83.4395 14.0048 83.4283C14.016 83.4171 14.0719 83.392 14.0188 83.4143C13.9629 83.4395 14.0244 83.4115 14.0356 83.4032C14.0607 83.3892 14.1473 83.3612 14.1557 83.3417C14.1529 83.3473 14.0663 83.3696 14.1305 83.3529C14.1529 83.3473 14.1752 83.3389 14.1976 83.3333C14.2116 83.3305 14.2283 83.3249 14.2423 83.3221C14.2535 83.3193 14.3289 83.3138 14.2618 83.3166C14.192 83.3221 14.273 83.3166 14.2842 83.3166C14.3037 83.3166 14.3261 83.3166 14.3457 83.3166C14.3652 83.3166 14.3876 83.3193 14.4071 83.3193C14.4881 83.3221 14.3289 83.3026 14.4015 83.3193C14.4462 83.3305 14.4909 83.3417 14.5384 83.3529C14.6139 83.3752 14.4826 83.3221 14.5217 83.3473C14.544 83.3612 14.5692 83.3696 14.5915 83.3808C14.6055 83.3892 14.6166 83.3948 14.6306 83.4032C14.6446 83.4115 14.6558 83.4199 14.6669 83.4255C14.6194 83.392 14.6139 83.3892 14.6446 83.4115C14.6725 83.4367 14.6977 83.459 14.7256 83.4842C14.7815 83.5345 14.6781 83.4199 14.7228 83.4786C14.734 83.4953 14.7479 83.5121 14.7591 83.5289C14.7703 83.5456 14.7815 83.5652 14.7926 83.5819C14.829 83.6378 14.7675 83.5121 14.7899 83.5764C14.8038 83.6155 14.815 83.6574 14.829 83.6965C14.8401 83.7384 14.8094 83.7021 14.8262 83.6685C14.8178 83.6825 14.8318 83.7356 14.8318 83.7552C14.8346 83.9312 15.005 84.1016 15.2117 84.0932C15.4156 84.0848 15.5944 83.9451 15.5917 83.7552C15.5833 83.2746 15.2508 82.864 14.7507 82.6964C14.2842 82.5399 13.7031 82.6768 13.3846 83.0232C13.0466 83.392 12.974 83.9116 13.2533 84.3307C13.5327 84.7469 14.0663 84.9425 14.5915 84.8559C15.1726 84.7637 15.5833 84.272 15.5917 83.758C15.5944 83.5819 15.4156 83.4115 15.2117 83.4199C15.0022 83.4227 14.8346 83.5652 14.8318 83.7552Z" fill="#050505" fill-opacity="1.000000" fill-rule="nonzero"/>
		<path id="Vector" d="M13.1444 87.7697C13.1416 87.7725 13.8148 88.1943 14.4853 88.5994C14.8764 88.8369 15.4128 89.1554 15.4156 89.1526C15.4212 89.1498 13.1499 87.7641 13.1444 87.7697Z" fill="#1B1B1B" fill-opacity="1.000000" fill-rule="nonzero"/>
		<path id="Vector" d="M12.8762 88.0099C12.9097 88.0491 12.9935 88.091 13.041 88.1217C13.1192 88.172 13.2002 88.2223 13.2785 88.2726C13.5439 88.4374 13.8093 88.6022 14.0747 88.7643C14.3289 88.9179 14.5831 89.0716 14.8374 89.2252C14.9882 89.3146 15.1391 89.4319 15.3123 89.485C15.4548 89.5297 15.6252 89.4627 15.7118 89.3649C15.8068 89.2531 15.8124 89.1107 15.7425 88.9878C15.6783 88.8816 15.5051 88.8006 15.3933 88.7335C15.2117 88.6218 15.0301 88.51 14.8513 88.4011C14.4379 88.1469 14.0216 87.8954 13.6053 87.644C13.4573 87.5546 13.326 87.4512 13.1444 87.4373C12.946 87.4205 12.7561 87.6049 12.7644 87.7753C12.7756 87.9736 12.9321 88.0966 13.1444 88.1133C13.0801 88.0966 13.0159 88.0826 12.9544 88.0658C13.0354 88.0994 13.1136 88.158 13.1891 88.2027C13.3679 88.3117 13.5467 88.4206 13.7255 88.5268C14.1278 88.7698 14.5273 89.0157 14.9295 89.2615C14.9994 89.3034 15.0692 89.3481 15.1363 89.39C15.1558 89.404 15.1782 89.4152 15.1977 89.4291C15.2033 89.4319 15.2089 89.4375 15.2145 89.4403C15.1894 89.4264 15.1139 89.3677 15.0888 89.3258C15.2313 89.1609 15.3737 88.9933 15.5162 88.8285C15.6559 88.8732 15.6084 88.8676 15.5665 88.8397C15.5358 88.8229 15.5078 88.8062 15.4771 88.7866C15.3821 88.7307 15.2899 88.6749 15.1949 88.619C14.9491 88.4709 14.7033 88.3228 14.4574 88.1748C14.2004 88.0183 13.9434 87.8591 13.6863 87.6999C13.6053 87.6496 13.5243 87.5993 13.4461 87.549C13.421 87.5322 13.3958 87.5182 13.3707 87.5015C13.3092 87.4624 13.3986 87.5155 13.4126 87.5322C13.2896 87.3925 13.0047 87.4093 12.8762 87.5322C12.7253 87.6775 12.7449 87.8591 12.8762 88.0099Z" fill="#050505" fill-opacity="1.000000" fill-rule="nonzero"/>
		<path id="Vector" d="M12.5745 78.137C13.4238 78.3354 14.0076 78.8634 14.0356 79.4584C14.0663 80.0647 13.5215 80.6206 12.6778 80.8497L12.5745 78.137Z" fill="#050505" fill-opacity="1.000000" fill-rule="nonzero"/>
		<path id="Vector" d="M13.2505 78.0336C13.9266 78.2543 14.4043 78.841 14.4183 79.4864C14.4323 80.1736 13.9601 80.7491 13.2645 81.0145C13.0745 81.0871 13.0354 81.3358 13.1276 81.4783C13.2421 81.6515 13.4572 81.671 13.6472 81.6012C14.5915 81.2436 15.2229 80.3552 15.1754 79.4361C15.1251 78.4918 14.435 77.7012 13.4517 77.3799C13.2589 77.3185 13.0354 77.4497 12.9851 77.6174C12.9264 77.8045 13.0577 77.9722 13.2505 78.0336Z" fill="#050505" fill-opacity="1.000000" fill-rule="nonzero"/>
		<path id="Vector" d="M25.364 64.8753C25.3472 66.0012 24.5706 67.0376 23.3721 67.4204C22.1652 67.8059 20.7991 67.4707 19.9861 66.5851C19.1871 65.7134 19.0921 64.4507 19.7375 63.4868C20.3772 62.5286 21.6596 62.0034 22.8888 62.2129C24.3192 62.456 25.3417 63.5762 25.364 64.8753C25.3696 65.3111 26.1295 65.3111 26.1211 64.8753C26.0987 63.4673 25.1349 62.2073 23.6571 61.7045C22.1764 61.2016 20.4192 61.6207 19.419 62.7186C18.4189 63.8137 18.2624 65.3866 19.0782 66.6074C19.8911 67.8255 21.4863 68.4513 23.0396 68.1998C24.822 67.9121 26.0932 66.4705 26.1183 64.8753C26.1267 64.4367 25.3696 64.4367 25.364 64.8753Z" fill="#050505" fill-opacity="1.000000" fill-rule="nonzero"/>
		<path id="Vector" d="M22.0255 64.5038C22.0255 64.9111 21.6553 65.2413 21.1986 65.2413C20.7419 65.2413 20.3717 64.9111 20.3717 64.5038C20.3717 64.0964 20.7419 63.7662 21.1986 63.7662C21.6553 63.7662 22.0255 64.0964 22.0255 64.5038Z" fill="#050505" fill-opacity="1.000000" fill-rule="evenodd"/>
		<path id="Vector" d="M21.6456 64.5038C21.6456 64.5233 21.6428 64.5457 21.6428 64.5652C21.64 64.6211 21.6428 64.5401 21.6484 64.5345C21.6316 64.5568 21.6316 64.6043 21.6233 64.6323C21.6177 64.649 21.6037 64.6714 21.6009 64.6881C21.6009 64.6797 21.6428 64.6127 21.6121 64.6602C21.5897 64.6937 21.5702 64.7272 21.545 64.7608C21.5059 64.8167 21.5953 64.7161 21.559 64.744C21.545 64.7552 21.5339 64.7692 21.5227 64.7803C21.5115 64.7887 21.5031 64.7971 21.492 64.8083C21.4612 64.8334 21.4249 64.8362 21.5031 64.8055C21.4724 64.8194 21.4445 64.8418 21.4137 64.8586C21.3998 64.8641 21.3886 64.8697 21.3746 64.8753C21.3383 64.8837 21.3048 64.8949 21.2685 64.9033C21.221 64.9116 21.2238 64.8921 21.2908 64.9033C21.274 64.9005 21.2517 64.906 21.2349 64.906C21.1958 64.9088 21.1595 64.906 21.1204 64.9033C21.0673 64.9005 21.221 64.92 21.1427 64.906C21.1204 64.9005 21.098 64.8977 21.0785 64.8921C21.0561 64.8865 21.0366 64.8809 21.017 64.8725C20.9779 64.8614 21.0086 64.853 21.0478 64.8837C21.0254 64.8641 20.9807 64.853 20.9528 64.8362C20.9388 64.8278 20.9248 64.8167 20.9081 64.8083C20.8662 64.7859 20.9779 64.8669 20.9248 64.8194C20.8997 64.7971 20.8634 64.7524 20.8354 64.7356C20.8773 64.7552 20.8773 64.7915 20.855 64.758C20.8438 64.7412 20.8298 64.7272 20.8187 64.7105C20.8103 64.6993 20.8047 64.6881 20.7963 64.677C20.7935 64.6714 20.7907 64.6658 20.7851 64.6602C20.7684 64.6267 20.7712 64.6378 20.7963 64.6881C20.7907 64.6574 20.7712 64.6239 20.7628 64.5959C20.76 64.582 20.7572 64.5708 20.7544 64.5568C20.7516 64.5261 20.7516 64.4954 20.7544 64.4646C20.7572 64.4311 20.7796 64.3864 20.7516 64.473C20.7544 64.4619 20.7572 64.4479 20.76 64.4339C20.7684 64.4004 20.7796 64.3697 20.7907 64.3389C20.8159 64.2719 20.7488 64.4088 20.7879 64.3473C20.7991 64.3305 20.8075 64.3138 20.8187 64.297C20.827 64.2831 20.8382 64.2691 20.8466 64.2551C20.8745 64.216 20.8829 64.2439 20.8326 64.2691C20.8578 64.2579 20.8857 64.216 20.9053 64.1992C20.9165 64.1909 20.9695 64.1573 20.9165 64.188C20.8606 64.2216 20.922 64.1853 20.9304 64.1797C20.9611 64.1601 21.0198 64.1461 21.045 64.1238C21.0394 64.1294 20.9556 64.1517 21.0142 64.135C21.0366 64.1294 21.0561 64.121 21.0757 64.1154C21.0897 64.1126 21.1036 64.1098 21.1176 64.1071C21.1288 64.1042 21.2014 64.0959 21.1344 64.1014C21.0645 64.1071 21.1399 64.1014 21.1511 64.1014C21.1707 64.1014 21.1902 64.1014 21.2098 64.1014C21.2293 64.1014 21.2489 64.1042 21.2685 64.1042C21.3467 64.1071 21.1874 64.0875 21.2573 64.1042C21.2992 64.1126 21.3439 64.1238 21.3858 64.135C21.4584 64.1545 21.3243 64.1014 21.3662 64.1266C21.3858 64.1378 21.4109 64.1461 21.4333 64.1573C21.4445 64.1629 21.4584 64.1713 21.4696 64.1769C21.4808 64.1853 21.492 64.1909 21.5059 64.1992C21.4584 64.1657 21.45 64.1601 21.478 64.1825C21.5031 64.2048 21.5283 64.2272 21.5534 64.2495C21.6093 64.2998 21.5059 64.1825 21.5478 64.2411C21.559 64.2579 21.573 64.2719 21.5841 64.2886C21.5953 64.3054 21.6037 64.3222 21.6149 64.3389C21.6484 64.392 21.5869 64.2663 21.6121 64.3305C21.626 64.3697 21.6372 64.406 21.6484 64.4451C21.6568 64.4786 21.6344 64.4702 21.6456 64.4144C21.6372 64.4479 21.6456 64.4814 21.6456 64.5038C21.6484 64.6797 21.8188 64.8502 22.0255 64.8418C22.2295 64.8334 22.4083 64.6937 22.4055 64.5038C22.3971 64.0428 22.0786 63.6489 21.5981 63.4868C21.1511 63.336 20.5952 63.4701 20.2907 63.7997C19.9638 64.1545 19.8967 64.6518 20.1621 65.0541C20.4303 65.4536 20.9416 65.6408 21.4473 65.5598C22.0032 65.4704 22.3971 64.9982 22.4055 64.5065C22.4083 64.3305 22.2295 64.1601 22.0255 64.1685C21.816 64.1741 21.6484 64.3138 21.6456 64.5038Z" fill="#050505" fill-opacity="1.000000" fill-rule="nonzero"/>
		<path id="Vector" d="M22.8497 60.5982C23.9895 60.6122 25.1824 61.101 25.9172 61.9447C26.3418 62.4336 26.6044 63.0287 26.6994 63.6405C26.7329 63.864 26.7441 64.0903 26.7357 64.3138C26.7329 64.3892 26.7273 64.4674 26.7217 64.5429C26.7162 64.6043 26.6994 64.7105 26.7162 64.5988C26.6882 64.7803 26.7664 64.9619 26.9816 65.015C27.1576 65.0597 27.4202 64.9591 27.4481 64.7776C27.571 63.9981 27.4565 63.1852 27.1157 62.4588C26.5709 61.2966 25.4478 60.4278 24.0929 60.0841C23.6906 59.9808 23.2659 59.9221 22.8469 59.9165C22.3636 59.9137 22.3636 60.5898 22.8497 60.5982Z" fill="#050505" fill-opacity="1.000000" fill-rule="nonzero"/>
		<path id="Vector" d="M13.664 52.1835C15.0413 52.5467 16.0414 53.6418 16.1504 54.9214C16.2789 56.4663 15.0413 57.8156 13.3567 58.0866C12.8762 58.162 13.0801 58.8158 13.5578 58.7404C14.9128 58.5252 16.1085 57.6508 16.6281 56.5166C17.2706 55.1113 16.8209 53.3876 15.5553 52.3791C15.072 51.9936 14.4909 51.6946 13.8651 51.5298C13.3958 51.4069 13.1946 52.0606 13.664 52.1835Z" fill="#050505" fill-opacity="1.000000" fill-rule="nonzero"/>
		<path id="Vector" d="M14.8988 54.9269C14.8988 55.4238 14.5061 55.8265 14.0216 55.8265C13.5371 55.8265 13.1443 55.4238 13.1443 54.9269C13.1443 54.4301 13.5371 54.0274 14.0216 54.0274C14.5061 54.0274 14.8988 54.4301 14.8988 54.9269Z" fill="#050505" fill-opacity="1.000000" fill-rule="evenodd"/>
		<path id="Vector" d="M14.5217 54.927C14.5217 54.9493 14.5217 54.9716 14.5189 54.994C14.5161 55.0164 14.5244 55.075 14.5217 54.9968C14.5244 55.0331 14.5049 55.075 14.4937 55.1114C14.4909 55.1253 14.4462 55.2063 14.4518 55.2175C14.4406 55.1979 14.4825 55.1616 14.4546 55.2036C14.4406 55.2259 14.4295 55.2455 14.4155 55.2678C14.4043 55.2845 14.3904 55.3013 14.3792 55.3181C14.3512 55.36 14.4406 55.2594 14.382 55.3153C14.354 55.3404 14.3261 55.3656 14.3009 55.3907C14.2982 55.3935 14.2954 55.3963 14.2926 55.3991C14.2618 55.4214 14.2674 55.4186 14.3093 55.3907C14.3037 55.3991 14.273 55.4131 14.2674 55.4159C14.2535 55.4242 14.2395 55.4326 14.2227 55.441C14.2116 55.4466 14.1194 55.4801 14.1752 55.4633C14.2311 55.4466 14.1166 55.4773 14.0998 55.4829C14.1026 55.4829 14.0495 55.4941 14.0495 55.4913C14.0467 55.4857 14.1417 55.4885 14.0607 55.4885C14.0523 55.4885 13.9462 55.4941 13.9434 55.4857C13.9434 55.4857 14.0328 55.5052 13.9545 55.4857C13.9294 55.4801 13.9042 55.4745 13.8819 55.4689C13.812 55.4522 13.8763 55.4801 13.8903 55.4745C13.8875 55.4773 13.8428 55.455 13.8456 55.455C13.812 55.4382 13.7813 55.4159 13.7478 55.3991C13.7031 55.3767 13.812 55.455 13.7534 55.4019C13.7422 55.3907 13.7282 55.3795 13.7143 55.3712C13.6975 55.3572 13.6835 55.3432 13.6696 55.3293C13.6109 55.2762 13.678 55.346 13.664 55.3237C13.6444 55.2929 13.6193 55.2622 13.5997 55.2315C13.5969 55.2287 13.5522 55.156 13.583 55.2063C13.6109 55.2538 13.5746 55.184 13.5718 55.1784C13.5606 55.1477 13.5494 55.1141 13.5411 55.0806C13.5355 55.0583 13.5327 55.0387 13.5271 55.0164C13.5215 54.9912 13.5243 54.9996 13.5299 55.0415C13.5271 55.0275 13.5271 55.0164 13.5271 55.0024C13.5243 54.9633 13.5243 54.9214 13.5271 54.8823C13.5271 54.8795 13.5355 54.7901 13.5299 54.8487C13.5243 54.9046 13.5355 54.8208 13.5383 54.818C13.5467 54.7845 13.555 54.7509 13.5662 54.7202C13.5746 54.7007 13.583 54.6811 13.5886 54.6616C13.5997 54.6392 13.5941 54.6448 13.5774 54.6867C13.5858 54.6727 13.5941 54.656 13.6025 54.642C13.6193 54.6141 13.6388 54.5861 13.6584 54.5582C13.7003 54.4939 13.6165 54.5917 13.6556 54.561C13.6724 54.547 13.6835 54.5302 13.7003 54.5163C13.7115 54.5051 13.7254 54.4939 13.7366 54.4828C13.7422 54.4772 13.7953 54.4241 13.7562 54.4632C13.7199 54.5023 13.7674 54.4548 13.7813 54.4492C13.8037 54.438 13.826 54.4241 13.8484 54.4129C13.854 54.4101 13.8903 54.3906 13.8931 54.3934C13.8931 54.3934 13.8176 54.4157 13.8735 54.4017C13.8819 54.399 13.9936 54.3654 13.9964 54.3738C13.9992 54.3822 13.9098 54.3766 13.9741 54.3766C13.9964 54.3766 14.0188 54.3738 14.0411 54.3766C14.0495 54.3766 14.1054 54.3766 14.1054 54.3794C14.1026 54.3738 14.0132 54.3626 14.1054 54.3822C14.1222 54.385 14.1389 54.3906 14.1557 54.3934C14.1669 54.3961 14.1808 54.399 14.192 54.4045C14.2199 54.4129 14.2088 54.4101 14.1613 54.3906C14.1808 54.385 14.2674 54.4437 14.2842 54.452C14.3401 54.4828 14.3037 54.4464 14.2786 54.4464C14.2898 54.4464 14.3289 54.4883 14.3373 54.4939C14.3484 54.5051 14.3624 54.5163 14.3736 54.5275C14.3848 54.5386 14.3959 54.5498 14.4071 54.5638C14.3987 54.5526 14.3904 54.5442 14.3792 54.5331C14.4071 54.5442 14.4434 54.6252 14.4574 54.6476C14.4686 54.6671 14.5021 54.7146 14.4602 54.6448C14.4742 54.6671 14.4797 54.6923 14.4881 54.7146C14.5021 54.7566 14.5133 54.7985 14.5217 54.8376C14.5161 54.8655 14.5217 54.8962 14.5217 54.927C14.5244 55.103 14.6949 55.2734 14.9016 55.265C15.1055 55.2566 15.2843 55.1169 15.2815 54.927C15.2732 54.4185 14.9631 53.9436 14.4267 53.7536C13.9098 53.572 13.3511 53.7787 13.0354 54.1643C12.7057 54.5638 12.6918 55.1337 12.9488 55.5667C13.2058 55.9997 13.7422 56.2372 14.2814 56.1394C14.9016 56.0249 15.276 55.4606 15.2815 54.927C15.2843 54.7509 15.1055 54.5805 14.9016 54.5889C14.6921 54.5973 14.5244 54.737 14.5217 54.927Z" fill="#050505" fill-opacity="1.000000" fill-rule="nonzero"/>
		<path id="Vector" d="M12.2839 45.948C12.3091 45.6491 12.2308 45.3753 12.0884 45.1071C12.0213 44.9814 11.8705 44.8333 11.9626 44.702C12.0772 44.5372 12.4096 44.4646 12.5996 44.4254C12.9516 44.3472 13.3316 44.3361 13.6864 44.3947C14.9156 44.5931 15.8152 45.7022 15.871 46.7861C15.9129 47.6158 15.5498 48.4651 14.7759 48.9512C14.2786 49.2641 13.6584 49.4988 13.0494 49.3312C12.879 49.2837 12.4487 49.1412 12.4292 48.9456C12.4152 48.792 12.7477 48.5909 12.8399 48.4707C13.2701 47.9176 12.8147 47.4622 12.3007 47.1661C12.161 47.0851 11.8956 46.9649 11.9235 46.7833C11.9375 46.6939 12.0437 46.6017 12.0912 46.5263C12.1861 46.3727 12.2448 46.2134 12.2755 46.0402C12.3454 45.6128 11.6162 45.4284 11.5436 45.8586C11.4933 46.1519 11.2642 46.3447 11.186 46.6241C11.1022 46.9258 11.2447 47.2415 11.4821 47.4538C11.6861 47.6382 12.0018 47.7276 12.1889 47.9204C12.2616 47.993 12.2727 47.9986 12.2197 48.0796C12.147 48.1886 12.0213 48.2724 11.9319 48.3674C11.3508 48.9875 11.8928 49.6245 12.5968 49.8955C13.3707 50.1944 14.2004 50.0492 14.91 49.6804C16.0303 49.0937 16.6533 48.0182 16.6365 46.8615C16.6142 45.5234 15.5889 44.1544 14.1194 43.7857C13.3092 43.5818 12.1414 43.6265 11.4905 44.1712C11.2223 44.3975 11.105 44.7132 11.2195 45.0317C11.3369 45.3641 11.5631 45.5793 11.5324 45.948C11.4877 46.3838 12.2476 46.381 12.2839 45.948Z" fill="#050505" fill-opacity="1.000000" fill-rule="nonzero"/>
		<path id="Vector" d="M23.6319 26.9872C23.6179 27.8365 23.0341 28.6215 22.1289 28.912C21.2098 29.2082 20.1705 28.9511 19.5531 28.2751C18.9525 27.6158 18.8854 26.6603 19.3715 25.9339C19.852 25.2132 20.8214 24.8081 21.749 24.9673C22.8413 25.1573 23.6179 26.001 23.6319 26.9872C23.6375 27.423 24.3974 27.423 24.389 26.9872C24.3722 25.8473 23.59 24.836 22.3971 24.4309C21.2126 24.0258 19.799 24.3667 18.9972 25.2439C18.1898 26.1267 18.0585 27.3951 18.7178 28.384C19.3771 29.3702 20.6622 29.8675 21.9166 29.6663C23.3497 29.4344 24.3694 28.2695 24.3918 26.99C24.3974 26.5513 23.6403 26.5513 23.6319 26.9872Z" fill="#050505" fill-opacity="1.000000" fill-rule="nonzero"/>
		<path id="Vector" d="M14.8374 30.7977C14.2926 31.3146 14.0663 32.0242 14.2451 32.7198C14.3568 33.1528 14.6502 33.5411 15.1251 33.706C15.628 33.8792 16.1895 33.706 16.6728 33.5607C17.2539 33.3847 17.8071 33.1612 18.3183 32.8539C18.4887 32.7505 18.5614 32.555 18.4552 32.3901C18.3574 32.2393 18.106 32.1667 17.9356 32.2672C17.469 32.5494 16.9717 32.7533 16.4409 32.9154C16.1783 32.9936 15.8934 33.0914 15.6224 33.097C15.4408 33.1025 15.2899 33.0606 15.1642 32.9237C15.0441 32.7924 15.0022 32.6555 14.9631 32.4796C14.9575 32.46 14.9407 32.3371 14.9547 32.4404C14.9519 32.4153 14.9491 32.3929 14.9463 32.3678C14.9351 32.2644 14.9323 32.1555 14.9491 32.0521C14.9798 31.851 15.0581 31.6889 15.1698 31.5241C15.1949 31.4878 15.2229 31.4515 15.248 31.4151C15.2592 31.3984 15.2732 31.3844 15.2843 31.3676C15.2536 31.4012 15.2536 31.404 15.276 31.376C15.3067 31.3425 15.3402 31.309 15.3737 31.2755C15.709 30.9598 15.1726 30.4792 14.8374 30.7977Z" fill="#050505" fill-opacity="1.000000" fill-rule="nonzero"/>
		<path id="Vector" d="M15.4576 33.2925C14.7535 33.7982 14.4239 34.6894 14.7619 35.4549C15.086 36.1924 15.8626 36.6478 16.7315 36.7092C16.9354 36.7232 17.1114 36.5416 17.1114 36.3712C17.1114 36.1756 16.9382 36.0471 16.7315 36.0332C16.1951 35.994 15.6643 35.6728 15.4771 35.2397C15.2424 34.6978 15.4827 34.139 15.9939 33.7731C16.1532 33.6585 16.128 33.4127 15.9939 33.2925C15.8375 33.1501 15.6196 33.1752 15.4576 33.2925Z" fill="#050505" fill-opacity="1.000000" fill-rule="nonzero"/>
		<path id="Vector" d="M22.9017 26.4644C22.99 26.7407 22.3278 27.1993 21.4225 27.4889C20.5172 27.7784 19.7117 27.7891 19.6233 27.5128C19.535 27.2365 20.1972 26.7778 21.1025 26.4883C22.0078 26.1988 22.8133 26.1881 22.9017 26.4644Z" fill="#1B1B1B" fill-opacity="1.000000" fill-rule="evenodd"/>
		<path id="Vector" d="M19.2989 27.6967C19.4162 27.9426 19.7543 28.0236 20.0225 28.046C20.3577 28.0739 20.7097 28.0208 21.0366 27.9482C21.7182 27.7973 22.5033 27.5235 23.0006 27.057C23.1849 26.8838 23.3442 26.6463 23.2743 26.3977C23.2073 26.1574 22.9698 26.0066 22.71 25.9591C22.3636 25.8948 22.0004 25.9339 21.6568 25.9982C21.2545 26.0708 20.8662 26.1965 20.4946 26.3502C20.0141 26.5485 19.0503 27.0123 19.2626 27.6185C19.4079 28.0348 20.1398 27.856 19.9945 27.4369C19.9778 27.3867 19.9973 27.4705 19.9973 27.4732C20.0001 27.4453 20.0057 27.4313 19.9889 27.5068C19.9917 27.4956 20.0001 27.476 20.0001 27.4677C20.0001 27.4872 19.9554 27.5291 19.9945 27.4872C20.0029 27.4789 20.0588 27.4062 20.0309 27.4341C20.0001 27.4677 20.0476 27.4202 20.0532 27.4118C20.0728 27.3922 20.0951 27.3727 20.1147 27.3559C20.2683 27.2246 20.4667 27.1184 20.6818 27.0207C21.1651 26.7972 21.735 26.6184 22.2798 26.6044C22.3357 26.6016 22.3915 26.6044 22.4474 26.6072C22.467 26.6072 22.4865 26.61 22.5061 26.61C22.439 26.6044 22.4977 26.61 22.5117 26.6128C22.5312 26.6156 22.5536 26.624 22.5731 26.6268C22.6458 26.6351 22.5731 26.6212 22.5647 26.6184C22.5787 26.6184 22.5955 26.6379 22.6094 26.6407C22.5955 26.6324 22.5843 26.6212 22.5703 26.6128C22.5927 26.6324 22.5927 26.6324 22.5703 26.6072C22.5256 26.5541 22.5787 26.6491 22.5536 26.5821C22.5424 26.5541 22.5368 26.5346 22.534 26.5038C22.5368 26.5569 22.5396 26.4759 22.5424 26.4703C22.5424 26.4703 22.5284 26.5066 22.5312 26.5094C22.5284 26.4955 22.5787 26.4452 22.5368 26.4899C22.5256 26.501 22.5172 26.5206 22.5061 26.5318C22.4977 26.5457 22.4642 26.5765 22.5089 26.529C22.4949 26.5429 22.4781 26.5597 22.4642 26.5737C22.1373 26.881 21.6009 27.0849 21.126 27.219C20.8354 27.3 20.5337 27.3671 20.2292 27.3727C20.1733 27.3727 20.1203 27.3699 20.0644 27.3699C19.9862 27.3671 20.0364 27.3671 20.056 27.3699C20.0281 27.3643 20.0029 27.3587 19.975 27.3531C19.9638 27.3503 19.8996 27.3308 19.9498 27.3503C20.0029 27.3671 19.9331 27.3364 19.9219 27.3364C19.9498 27.3419 19.9778 27.3783 19.9442 27.3503C19.975 27.3755 19.9834 27.4062 19.9582 27.3531C19.8772 27.1855 19.6006 27.1464 19.4386 27.2302C19.2402 27.3336 19.2179 27.5263 19.2989 27.6967Z" fill="#050505" fill-opacity="1.000000" fill-rule="nonzero"/>
		<path id="Vector" d="M26.6569 35.6758C26.7452 35.9521 26.083 36.4108 25.1777 36.7003C24.2724 36.9898 23.4669 37.0005 23.3785 36.7242C23.2902 36.4479 23.9524 35.9893 24.8577 35.6998C25.763 35.4103 26.5685 35.3996 26.6569 35.6758Z" fill="#1B1B1B" fill-opacity="1.000000" fill-rule="evenodd"/>
		<path id="Vector" d="M23.0564 36.9048C23.1737 37.1506 23.5118 37.2317 23.78 37.254C24.1152 37.282 24.4672 37.2289 24.7941 37.1562C25.4758 37.0054 26.2608 36.7316 26.7581 36.265C26.9424 36.0918 27.1017 35.8543 27.0318 35.6057C26.9648 35.3654 26.7273 35.2146 26.4675 35.1671C26.1211 35.1028 25.7579 35.142 25.4143 35.2062C25.012 35.2788 24.6237 35.4046 24.2521 35.5582C23.7716 35.7566 22.8078 36.2203 23.0201 36.8266C23.1654 37.2428 23.8973 37.064 23.752 36.645C23.7353 36.5947 23.7548 36.6785 23.7548 36.6813C23.7576 36.6534 23.7632 36.6394 23.7465 36.7148C23.7492 36.7036 23.7576 36.6841 23.7576 36.6757C23.7576 36.6953 23.7129 36.7344 23.752 36.6953C23.7604 36.6869 23.8163 36.6142 23.7884 36.6422C23.7576 36.6757 23.8051 36.6282 23.8107 36.6198C23.8303 36.6003 23.8526 36.5807 23.8722 36.564C24.0258 36.4326 24.2242 36.3265 24.4393 36.2287C24.9226 36.0052 25.4925 35.8264 26.0373 35.8124C26.0932 35.8097 26.149 35.8124 26.2049 35.8152C26.2245 35.8152 26.244 35.818 26.2636 35.818C26.1965 35.8124 26.2552 35.818 26.2692 35.8208C26.2887 35.8236 26.3111 35.832 26.3306 35.8348C26.4033 35.8432 26.3306 35.8292 26.3222 35.8264C26.3362 35.8264 26.353 35.846 26.3669 35.8488C26.353 35.8404 26.3418 35.8292 26.3278 35.8208C26.3502 35.8404 26.3502 35.8404 26.3278 35.8152C26.2831 35.7621 26.3362 35.8571 26.3111 35.7901C26.2999 35.7622 26.2943 35.7426 26.2915 35.7119C26.2943 35.765 26.2971 35.6839 26.2999 35.6783C26.2999 35.6783 26.2859 35.7147 26.2887 35.7175C26.2859 35.7035 26.3362 35.6532 26.2943 35.6979C26.2831 35.7091 26.2748 35.7286 26.2636 35.7398C26.2552 35.7538 26.2217 35.7845 26.2664 35.737C26.2524 35.751 26.2356 35.7678 26.2217 35.7817C25.8948 36.089 25.3584 36.293 24.8835 36.4271C24.5929 36.5081 24.2912 36.5751 23.9867 36.5807C23.9308 36.5807 23.8778 36.5779 23.8219 36.5779C23.7437 36.5751 23.7939 36.5751 23.8135 36.5779C23.7856 36.5723 23.7604 36.5667 23.7325 36.5612C23.7213 36.5584 23.6571 36.5388 23.7073 36.5584C23.7604 36.5751 23.6906 36.5444 23.6794 36.5444C23.7073 36.55 23.7353 36.5863 23.7018 36.5584C23.7325 36.5835 23.7409 36.6142 23.7157 36.5612C23.6347 36.3935 23.3581 36.3544 23.1961 36.4382C22.9977 36.5416 22.9754 36.7372 23.0564 36.9048Z" fill="#050505" fill-opacity="1.000000" fill-rule="nonzero"/>
		<path id="Vector" d="M27.7386 36.3712C27.694 38.8268 23.9057 39.5029 22.2099 37.9217C21.3858 37.1534 21.2628 36.0052 21.9333 35.1224C22.6374 34.1949 24.0146 33.7926 25.2215 33.9854C26.5429 34.1949 27.7135 35.1084 27.7386 36.3712C27.747 36.807 28.5041 36.807 28.4957 36.3712C28.4706 34.9743 27.3503 33.8485 25.8948 33.435C24.4197 33.0187 22.6625 33.3596 21.6093 34.3988C20.6147 35.3794 20.4331 36.8489 21.274 37.9608C22.1568 39.1286 23.7911 39.6426 25.3193 39.4247C27.0207 39.1816 28.465 37.958 28.4929 36.3684C28.5041 35.9326 27.7442 35.9326 27.7386 36.3712Z" fill="#050505" fill-opacity="1.000000" fill-rule="nonzero"/>
		<path id="Vector" d="M18.8407 32.2393C18.8379 32.2141 18.8407 32.189 18.8379 32.1639C18.8351 32.1052 18.8184 32.2086 18.8407 32.1527C18.8463 32.1387 18.877 32.0549 18.8603 32.0912C18.8463 32.1248 18.8882 32.0437 18.8966 32.0298C18.9134 32.0046 18.9301 31.9767 18.9497 31.9515C18.9581 31.9404 19.0083 31.8761 18.9748 31.9152C19.0307 31.8482 19.0949 31.7867 19.1592 31.7253C19.2933 31.5967 19.433 31.4766 19.5727 31.3537C19.6397 31.295 19.7068 31.2364 19.7766 31.1805C19.8018 31.1609 19.8297 31.1386 19.8548 31.119C19.8018 31.1581 19.8632 31.1162 19.8856 31.105C19.8967 31.0995 19.9107 31.0939 19.9191 31.0883C19.9191 31.0883 19.8465 31.1134 19.8828 31.1023C19.9554 31.0799 19.8492 31.1023 19.8688 31.0995C19.9442 31.0939 19.8325 31.0939 19.8492 31.0939C19.8604 31.0939 19.8744 31.0995 19.8884 31.1023C19.9247 31.1162 19.8269 31.0631 19.852 31.0883C19.8604 31.0967 19.8939 31.1134 19.9051 31.1162C19.9191 31.119 19.8465 31.0659 19.8939 31.1107C19.9107 31.1246 19.9275 31.1386 19.9414 31.1526C19.9722 31.1833 19.9833 31.2112 19.9498 31.1581C20.0057 31.2448 20.0672 31.3257 20.1146 31.4207C20.1314 31.4543 20.1426 31.4822 20.1202 31.4291C20.1286 31.4515 20.1398 31.4738 20.151 31.4962C20.1733 31.5493 20.1929 31.6023 20.2124 31.6554C20.2683 31.8063 20.3102 31.9627 20.3465 32.1192C20.3661 32.203 20.38 32.284 20.3968 32.3678C20.4052 32.4041 20.4108 32.4432 20.4164 32.4796C20.4192 32.4963 20.422 32.5131 20.422 32.5326C20.4303 32.6053 20.4331 32.6807 20.4303 32.7533C20.4303 32.7673 20.4275 32.7813 20.4275 32.7953C20.4275 32.7869 20.4443 32.7422 20.4275 32.7729C20.422 32.7841 20.394 32.8595 20.4164 32.8176C20.4443 32.7617 20.3689 32.8735 20.4108 32.826C20.4415 32.7924 20.4108 32.8232 20.4052 32.8288C20.3633 32.8651 20.4722 32.798 20.4331 32.812C20.4192 32.8176 20.3996 32.8288 20.3856 32.8372C20.3298 32.8707 20.422 32.8288 20.4052 32.8316C20.3633 32.8372 20.3158 32.8539 20.2739 32.8623C20.2096 32.8763 20.3549 32.8595 20.2851 32.8595C20.2571 32.8595 20.2292 32.8623 20.2012 32.8623C20.1482 32.8623 20.0923 32.8623 20.0392 32.8567C19.9917 32.8539 19.975 32.8483 20.0364 32.8567C20.0085 32.8511 19.9833 32.8483 19.9554 32.8455C19.8912 32.8344 19.8269 32.8204 19.7654 32.8064C19.7012 32.7896 19.6369 32.7729 19.5727 32.7505C19.5559 32.745 19.4665 32.7142 19.5084 32.7282C19.5531 32.745 19.5084 32.7282 19.5 32.7254C19.4777 32.717 19.4553 32.7086 19.433 32.6975C19.3129 32.6444 19.2067 32.5801 19.0921 32.5159C19.0558 32.4963 19.1117 32.5298 19.1145 32.5326C19.0977 32.5187 19.081 32.5075 19.0614 32.4935C19.0391 32.4768 19.0167 32.4572 18.9944 32.4377C18.972 32.4181 18.9525 32.4013 18.9329 32.379C18.9022 32.3483 18.8882 32.3175 18.9217 32.3706C18.9078 32.3483 18.891 32.3287 18.877 32.3091C18.8659 32.2952 18.8212 32.2169 18.8491 32.2672C18.877 32.3147 18.8435 32.2505 18.8379 32.2337C18.8407 32.2169 18.8268 32.1303 18.8407 32.2393C18.8156 32.0577 18.6843 31.9012 18.4608 31.9012C18.2736 31.9012 18.0585 32.0577 18.0808 32.2393C18.1618 32.8483 18.7793 33.2143 19.3799 33.4099C19.9051 33.5803 20.7404 33.678 21.0757 33.164C21.2936 32.8316 21.179 32.4041 21.1064 32.0493C21.0729 31.8901 21.0338 31.7308 20.9835 31.5744C20.8326 31.1162 20.5169 30.3815 19.852 30.4206C19.6146 30.4346 19.4302 30.5491 19.257 30.6888C19.0642 30.8424 18.8798 31.0073 18.701 31.1749C18.3937 31.4571 18.0473 31.8147 18.0836 32.2365C18.0976 32.4181 18.2457 32.5746 18.4636 32.5746C18.6563 32.5773 18.8575 32.4209 18.8407 32.2393Z" fill="#050505" fill-opacity="1.000000" fill-rule="nonzero"/>
		<path id="Vector" d="M26.962 23.6989C26.9788 25.1601 26.9955 26.6212 27.0123 28.0851C27.247 28.0292 27.4844 27.9705 27.7191 27.9146C27.1157 27.1911 26.515 26.4675 25.9116 25.7439C25.6573 25.4394 25.1321 25.6126 25.2187 26.0066C25.4758 27.1911 25.7356 28.3756 25.9926 29.5602C26.0513 29.4316 26.1099 29.3059 26.1658 29.1774C25.2718 29.7613 24.375 30.348 23.4811 30.9319C23.2045 31.1134 23.2604 31.5828 23.671 31.5632C24.6851 31.5157 25.702 31.471 26.7162 31.4235C26.6072 31.3677 26.4982 31.3118 26.3893 31.2559C27.0765 32.1164 27.7666 32.9796 28.4538 33.8401C28.6662 34.1055 29.1523 34.0245 29.1606 33.6697C29.1774 33.0076 29.1942 32.3455 29.2109 31.6862C29.021 31.7839 28.831 31.8817 28.641 31.9795C29.2612 32.2561 29.8814 32.5326 30.4988 32.8092C30.9346 33.0048 31.3174 32.4181 30.8816 32.2225C30.2614 31.946 29.6412 31.6694 29.0238 31.3928C28.7667 31.2783 28.4594 31.4179 28.4538 31.6862C28.4371 32.3482 28.4203 33.0103 28.4036 33.6697C28.6382 33.6138 28.8757 33.5551 29.1104 33.4993C28.5321 32.7757 27.9538 32.0521 27.3755 31.3286C27.1911 31.0967 27.0179 30.7614 26.6687 30.7475C26.1714 30.7279 25.6518 30.795 25.1573 30.8173C24.6628 30.8397 24.1683 30.862 23.671 30.8843C23.7353 31.0939 23.7995 31.3062 23.861 31.5157C24.755 30.9319 25.6518 30.3452 26.5457 29.7613C26.6938 29.6663 26.7553 29.5406 26.719 29.3785C26.4619 28.194 26.2021 27.0095 25.9451 25.825C25.7132 25.9116 25.4841 25.9982 25.2523 26.0876C25.8557 26.8111 26.4563 27.5347 27.0598 28.2583C27.2693 28.5097 27.7694 28.451 27.7666 28.0879C27.7498 26.6267 27.7331 25.1656 27.7163 23.7018C27.7163 23.2631 26.9592 23.2631 26.962 23.6989Z" fill="#050505" fill-opacity="1.000000" fill-rule="nonzero"/>
		<path id="Vector" d="M20.3745 11.6497C20.3745 12.108 19.9579 12.4795 19.4442 12.4795C18.9304 12.4795 18.5139 12.108 18.5139 11.6497C18.5139 11.1915 18.9304 10.82 19.4442 10.82C19.9579 10.82 20.3745 11.1915 20.3745 11.6497Z" fill="#1B1B1B" fill-opacity="1.000000" fill-rule="evenodd"/>
		<path id="Vector" d="M19.9945 11.6497C19.9945 11.6721 19.9917 11.6972 19.9917 11.7196C19.9889 11.7866 19.9917 11.6972 19.9945 11.6972C19.9945 11.6972 19.9694 11.7922 19.9666 11.8062C19.9638 11.8118 19.9442 11.8704 19.9414 11.8676C19.9358 11.8648 19.9861 11.7894 19.9498 11.8453C19.9247 11.8844 19.9023 11.9207 19.8744 11.957C19.8325 12.0157 19.9191 11.9207 19.8828 11.9487C19.8688 11.9598 19.8548 11.9766 19.8409 11.9878C19.8297 11.9989 19.8185 12.0073 19.8073 12.0185C19.7431 12.0716 19.8073 12.0157 19.8101 12.0213C19.8129 12.0241 19.7124 12.0772 19.7096 12.08C19.6956 12.0883 19.6816 12.0939 19.6677 12.0995C19.6034 12.133 19.7459 12.08 19.6565 12.1051C19.6174 12.1163 19.5783 12.1274 19.5363 12.1358C19.4581 12.1498 19.5503 12.1358 19.5503 12.1358C19.5503 12.1386 19.4917 12.1386 19.4861 12.1414C19.4414 12.1442 19.3995 12.1414 19.3576 12.1386C19.3017 12.1358 19.4525 12.1554 19.3715 12.1386C19.3464 12.133 19.324 12.1302 19.2989 12.1219C19.2737 12.1163 19.2514 12.1079 19.229 12.1023C19.1732 12.0855 19.2542 12.1023 19.2514 12.1107C19.2514 12.1107 19.1564 12.066 19.1452 12.0576C19.1285 12.0492 19.1117 12.0352 19.0949 12.0269C19.0502 12.0045 19.162 12.0828 19.1061 12.0325C19.0977 12.0241 19 11.9431 19.0055 11.9403C19.0111 11.9375 19.053 12.0017 19.0195 11.957C19.0055 11.9375 18.9916 11.9207 18.9804 11.9012C18.972 11.89 18.9636 11.876 18.9553 11.8621C18.9134 11.7894 18.9553 11.8621 18.9525 11.8648C18.9497 11.8648 18.9161 11.7671 18.9134 11.7587C18.9106 11.7447 18.905 11.7307 18.9022 11.714C18.8854 11.6469 18.9078 11.7922 18.9022 11.7028C18.8994 11.6693 18.8994 11.633 18.9022 11.5995C18.905 11.5603 18.9329 11.5268 18.8994 11.5995C18.905 11.5883 18.905 11.5687 18.9078 11.5547C18.9161 11.5184 18.9301 11.4849 18.9441 11.4486C18.9553 11.429 18.9664 11.4095 18.9804 11.3899C18.9916 11.3731 19.0028 11.3592 19.0139 11.3452C19.0558 11.2866 19.0111 11.3564 19.0055 11.3536C19.0028 11.3508 19.0838 11.281 19.0894 11.2754C19.0949 11.2698 19.1005 11.267 19.1061 11.2614C19.1005 11.267 19.0921 11.2698 19.0866 11.2754C19.1005 11.267 19.1117 11.2586 19.1257 11.2502C19.1396 11.2419 19.2514 11.1832 19.2542 11.186C19.2542 11.1888 19.162 11.2139 19.2318 11.1944C19.2542 11.1888 19.2793 11.1804 19.3017 11.1748C19.3184 11.172 19.3352 11.1664 19.3492 11.1636C19.3576 11.1608 19.3659 11.1608 19.3743 11.1581C19.3659 11.1581 19.3576 11.1608 19.3492 11.1608C19.3659 11.1581 19.3827 11.1581 19.3995 11.1581C19.4218 11.1581 19.4414 11.1581 19.4637 11.1581C19.4861 11.1581 19.5056 11.1608 19.528 11.1608C19.5755 11.172 19.623 11.1832 19.6704 11.1971C19.7459 11.2195 19.6174 11.1664 19.6593 11.1916C19.6816 11.2055 19.7096 11.2139 19.7347 11.2279C19.7487 11.2363 19.7626 11.2419 19.7766 11.2502C19.7906 11.2586 19.8045 11.267 19.8157 11.2754C19.771 11.2446 19.7654 11.239 19.7962 11.2642C19.8241 11.2893 19.852 11.3145 19.8828 11.3396C19.8967 11.3592 19.9107 11.3759 19.9219 11.3955C19.9331 11.4151 19.9442 11.4346 19.9582 11.4542C19.9722 11.4961 19.9861 11.538 19.9973 11.5827C20.0113 11.6358 19.9861 11.5603 19.9945 11.5603C19.9917 11.5603 19.9945 11.6441 19.9945 11.6497C19.9973 11.8257 20.1677 11.9962 20.3745 11.9878C20.5784 11.9794 20.7572 11.8397 20.7544 11.6497C20.746 11.1497 20.3996 10.7222 19.88 10.5462C19.3911 10.3814 18.7876 10.5267 18.4552 10.8871C18.1032 11.2698 18.0305 11.8118 18.3183 12.2476C18.6088 12.6806 19.162 12.8846 19.7096 12.7951C20.3158 12.6974 20.7432 12.1861 20.7516 11.6497C20.7544 11.4737 20.5756 11.3033 20.3717 11.3117C20.1649 11.3201 19.9973 11.4597 19.9945 11.6497Z" fill="#050505" fill-opacity="1.000000" fill-rule="nonzero"/>
		<path id="Vector" d="M14.0216 15.533C14.0803 15.1837 13.6863 14.8401 13.3846 14.7144C12.8594 14.4937 12.1358 14.7368 12.0548 15.1167C11.9738 15.4966 12.5186 16.0693 13.0857 16.0889C13.4573 16.1057 13.9629 15.8878 14.0216 15.533Z" fill="#1B1B1B" fill-opacity="1.000000" fill-rule="nonzero"/>
		<path id="Vector" d="M14.3568 15.5888C14.4378 14.9798 14.002 14.5496 13.6109 14.3513C13.2002 14.1445 12.6722 14.1417 12.242 14.382C12.0464 14.4909 11.8593 14.6585 11.7615 14.91C11.6553 15.1866 11.714 15.4827 11.8285 15.7174C12.0604 16.1811 12.5549 16.4912 12.9991 16.5136C13.4964 16.5415 14.2143 16.3068 14.3568 15.5888C14.4015 15.3682 14.2702 15.1279 14.0942 15.1083C13.9042 15.0888 13.7366 15.2397 13.6891 15.4771C13.6752 15.5497 13.6975 15.4492 13.7003 15.4408C13.6752 15.5134 13.7115 15.4128 13.7171 15.4156C13.7171 15.4156 13.6919 15.4547 13.6891 15.4603C13.6472 15.5302 13.7059 15.4436 13.7031 15.4464C13.7003 15.4687 13.636 15.5078 13.6193 15.5218C13.5997 15.5386 13.569 15.5469 13.6277 15.5162C13.6053 15.5274 13.5858 15.5414 13.5634 15.5525C13.5271 15.5721 13.4908 15.5888 13.4545 15.6028C13.4461 15.6056 13.3846 15.628 13.4265 15.614C13.4684 15.6 13.407 15.6196 13.3986 15.6224C13.3176 15.6447 13.2338 15.6559 13.1527 15.6615C13.1332 15.6643 13.0913 15.6531 13.1611 15.6615C13.1416 15.6587 13.1192 15.6587 13.0997 15.6559C13.0578 15.6503 13.0186 15.6447 12.9767 15.6335C12.9628 15.6308 12.946 15.6252 12.932 15.6224C12.879 15.614 12.9795 15.6447 12.9292 15.6224C12.8845 15.6056 12.8426 15.5861 12.8007 15.5637C12.7644 15.5442 12.7281 15.5246 12.6918 15.4995C12.675 15.4883 12.6583 15.4743 12.6415 15.4631C12.5772 15.4073 12.5242 15.3402 12.4627 15.2816C12.4264 15.248 12.4934 15.3346 12.4683 15.2899C12.4599 15.2732 12.4487 15.2592 12.4376 15.2424C12.4208 15.2117 12.4068 15.1782 12.3901 15.1475C12.3677 15.1055 12.404 15.2201 12.4012 15.1726C12.4012 15.1642 12.3929 15.1475 12.3901 15.1391C12.3705 15.0804 12.3929 15.167 12.3929 15.1782C12.3873 15.1363 12.3984 15.0832 12.3845 15.2061C12.3956 15.1055 12.3621 15.2648 12.3789 15.2145C12.4012 15.1502 12.3314 15.3123 12.3817 15.2173C12.4068 15.167 12.323 15.2704 12.3845 15.2173C12.3956 15.2061 12.4096 15.1977 12.4208 15.1866C12.4487 15.1558 12.3565 15.2229 12.4152 15.1894C12.4795 15.153 12.5437 15.1223 12.6108 15.0944C12.5325 15.1279 12.6443 15.086 12.661 15.0832C12.7057 15.072 12.7477 15.0636 12.7924 15.058C12.8315 15.0525 12.8734 15.0525 12.9125 15.0469C12.932 15.0497 12.9544 15.0497 12.9739 15.0497C13.0605 15.0553 13.1472 15.072 13.2282 15.0972C13.2142 15.0916 13.1667 15.072 13.2282 15.0999C13.2477 15.1083 13.2673 15.1167 13.284 15.1251C13.3204 15.1418 13.3567 15.1614 13.3902 15.1838C13.407 15.1949 13.4209 15.2033 13.4377 15.2145C13.4461 15.2201 13.5103 15.2676 13.4712 15.2368C13.4349 15.2089 13.4824 15.248 13.4908 15.2536C13.5103 15.2704 13.5271 15.2871 13.5439 15.3039C13.5774 15.3374 13.6109 15.3737 13.6416 15.4128C13.6333 15.4045 13.5997 15.3458 13.6361 15.4045C13.6472 15.424 13.6584 15.4436 13.6724 15.4659C13.6752 15.4715 13.6919 15.4967 13.6919 15.5023C13.6724 15.452 13.6696 15.4436 13.678 15.4715C13.6835 15.4827 13.6863 15.4967 13.6891 15.5106C13.6975 15.5358 13.6975 15.5888 13.6835 15.4799C13.6919 15.5581 13.6975 15.3821 13.6863 15.4687C13.6556 15.6922 13.7618 15.9297 13.9489 15.9492C14.1305 15.9772 14.3261 15.8263 14.3568 15.5888Z" fill="#050505" fill-opacity="1.000000" fill-rule="nonzero"/>
		<path id="Vector" d="M13.5942 64.5792C13.1136 64.5792 12.6862 64.4395 12.3817 64.1685C11.8872 63.7327 11.7028 62.9533 11.89 62.09C12.0353 61.4223 12.4404 60.6289 13.1444 60.411C13.8596 60.1903 14.6502 60.6345 15.153 61.1262C15.7956 61.7548 16.0833 62.5342 15.9045 63.1572C15.7369 63.7383 15.1558 64.2384 14.382 64.4619C14.111 64.5401 13.8456 64.5792 13.5942 64.5792ZM13.5299 61.1904C13.4796 61.1904 13.4321 61.196 13.3874 61.21C13.1053 61.2966 12.8175 61.7408 12.7058 62.266C12.5884 62.8136 12.6778 63.3137 12.9348 63.5399C13.1779 63.7551 13.6528 63.8026 14.1445 63.6573C14.6278 63.5176 15.0106 63.2215 15.0944 62.9253C15.1866 62.6068 14.9715 62.1235 14.5636 61.724C14.2283 61.3944 13.8204 61.1904 13.5299 61.1904Z" fill="#050505" fill-opacity="1.000000" fill-rule="nonzero"/>
		<path id="Vector" d="M19.4442 15.153C17.4997 15.153 15.9213 13.5718 15.9213 11.6302C15.9213 9.68857 17.5025 8.10733 19.4442 8.10733C21.3858 8.10733 22.967 9.68857 22.967 11.6302C22.967 13.5718 21.3886 15.153 19.4442 15.153ZM19.4442 8.94543C17.9635 8.94543 16.7594 10.1495 16.7594 11.6302C16.7594 13.1108 17.9635 14.3149 19.4442 14.3149C20.9248 14.3149 22.1289 13.1108 22.1289 11.6302C22.1289 10.1495 20.9248 8.94543 19.4442 8.94543Z" fill="#050505" fill-opacity="1.000000" fill-rule="nonzero"/>
		<path id="Vector" d="M12.5493 8.3392C12.5493 8.79742 12.1328 9.16891 11.619 9.16891C11.1052 9.16891 10.6887 8.79742 10.6887 8.3392C10.6887 7.88095 11.1052 7.50946 11.619 7.50946C12.1328 7.50946 12.5493 7.88095 12.5493 8.3392Z" fill="#1B1B1B" fill-opacity="1.000000" fill-rule="evenodd"/>
		<path id="Vector" d="M12.1693 8.3392C12.1693 8.36157 12.1666 8.38672 12.1666 8.40906C12.1638 8.4761 12.1666 8.38672 12.1693 8.38672C12.1693 8.38672 12.1442 8.48169 12.1414 8.49567C12.1386 8.50125 12.1191 8.55991 12.1163 8.55713C12.1107 8.55432 12.161 8.47891 12.1246 8.53476C12.0995 8.57388 12.0772 8.6102 12.0492 8.64651C12.0073 8.7052 12.0939 8.6102 12.0576 8.63815C12.0436 8.64932 12.0297 8.66608 12.0157 8.67725C12.0045 8.68842 11.9933 8.69681 11.9822 8.70798C11.9179 8.76105 11.9822 8.7052 11.985 8.71078C11.9878 8.71356 11.8872 8.76666 11.8844 8.76944C11.8704 8.77783 11.8565 8.78342 11.8425 8.789C11.7782 8.82251 11.9207 8.76944 11.8313 8.79459C11.7922 8.80576 11.7531 8.81693 11.7112 8.82532C11.633 8.83929 11.7252 8.82532 11.7252 8.82532C11.7252 8.82812 11.6665 8.82812 11.6609 8.8309C11.6162 8.83371 11.5743 8.8309 11.5324 8.82812C11.4765 8.82532 11.6274 8.84488 11.5464 8.82812C11.5212 8.82251 11.4989 8.81973 11.4737 8.81134C11.4486 8.80576 11.4262 8.79739 11.4039 8.79178C11.348 8.77502 11.429 8.79178 11.4262 8.80017C11.4262 8.80017 11.3312 8.75546 11.3201 8.7471C11.3033 8.73871 11.2865 8.72473 11.2698 8.71637C11.2251 8.694 11.3368 8.77225 11.281 8.72195C11.2726 8.71356 11.1748 8.63254 11.1804 8.62976C11.186 8.62695 11.2279 8.69122 11.1944 8.64651C11.1804 8.62695 11.1664 8.6102 11.1552 8.59064C11.1469 8.57947 11.1385 8.56549 11.1301 8.55154C11.0882 8.47891 11.1301 8.55154 11.1273 8.55432C11.1245 8.55432 11.091 8.45654 11.0882 8.44818C11.0854 8.4342 11.0798 8.42023 11.077 8.40347C11.0602 8.33643 11.0826 8.48169 11.077 8.3923C11.0742 8.35876 11.0742 8.32245 11.077 8.28894C11.0798 8.24982 11.1077 8.21628 11.0742 8.28894C11.0798 8.27774 11.0798 8.25821 11.0826 8.24423C11.091 8.20792 11.1049 8.17438 11.1189 8.13806C11.1301 8.1185 11.1413 8.09897 11.1552 8.07941C11.1664 8.06262 11.1776 8.04868 11.1888 8.0347C11.2307 7.97604 11.186 8.04587 11.1804 8.04309C11.1776 8.04028 11.2586 7.97046 11.2642 7.96484C11.2698 7.95926 11.2754 7.95648 11.281 7.9509C11.2754 7.95648 11.267 7.95926 11.2614 7.96484C11.2754 7.95648 11.2865 7.94809 11.3005 7.93973C11.3145 7.93134 11.4262 7.87265 11.429 7.87546C11.429 7.87827 11.3368 7.90338 11.4067 7.88385C11.429 7.87827 11.4542 7.86987 11.4765 7.86429C11.4933 7.86148 11.51 7.8559 11.524 7.85312C11.5324 7.85031 11.5408 7.85031 11.5491 7.84753C11.5408 7.84753 11.5324 7.85031 11.524 7.85031C11.5408 7.84753 11.5575 7.84753 11.5743 7.84753C11.5966 7.84753 11.6162 7.84753 11.6385 7.84753C11.6609 7.84753 11.6805 7.85031 11.7028 7.85031C11.7503 7.86148 11.7978 7.87265 11.8453 7.88663C11.9207 7.909 11.7922 7.8559 11.8341 7.88104C11.8565 7.89502 11.8844 7.90338 11.9095 7.91736C11.9235 7.92575 11.9375 7.93134 11.9514 7.93973C11.9654 7.94809 11.9794 7.95648 11.9906 7.96484C11.9459 7.93411 11.9403 7.92853 11.971 7.95367C11.9989 7.97882 12.0269 8.00397 12.0576 8.02911C12.0716 8.04868 12.0855 8.06543 12.0967 8.08499C12.1079 8.10455 12.1191 8.12408 12.133 8.14365C12.147 8.18555 12.161 8.22748 12.1721 8.27216C12.1861 8.32526 12.161 8.24982 12.1693 8.24982C12.1693 8.24701 12.1693 8.33362 12.1693 8.3392C12.1721 8.51523 12.3426 8.68564 12.5493 8.67725C12.7532 8.66888 12.932 8.52917 12.9292 8.3392C12.9209 7.83914 12.5744 7.41171 12.0548 7.23569C11.5659 7.07086 10.9625 7.21616 10.63 7.57654C10.278 7.95926 10.2054 8.50125 10.4931 8.93707C10.7837 9.37009 11.3368 9.57404 11.8844 9.48462C12.4906 9.38684 12.9181 8.87561 12.9264 8.3392C12.9292 8.16321 12.7504 7.9928 12.5465 8.00119C12.3426 8.00955 12.1721 8.14923 12.1693 8.3392Z" fill="#050505" fill-opacity="1.000000" fill-rule="nonzero"/>
		<path id="Vector" d="M9.23598 16.5247C10.0462 17.7205 11.6022 17.7232 12.5856 16.7371C12.3901 16.6868 12.1973 16.6337 12.0017 16.5834C12.175 17.8629 12.8762 19.0391 13.9937 19.7124C15.2927 20.4974 16.9159 20.5225 18.3183 20.0197C18.7374 19.8688 18.5558 19.1927 18.1339 19.3464C16.8991 19.7906 15.4967 19.8046 14.3485 19.1117C13.3763 18.5222 12.8287 17.5025 12.6778 16.399C12.6415 16.1281 12.2616 16.0778 12.0939 16.2454C11.4458 16.8963 10.401 17.0025 9.84222 16.1755C9.58799 15.804 8.98455 16.1532 9.23598 16.5247Z" fill="#050505" fill-opacity="1.000000" fill-rule="nonzero"/>
		<path id="Vector" d="M13.2617 76.6256C12.3901 77.0531 11.5184 77.4777 10.6468 77.9052C10.4764 77.989 10.4317 78.2292 10.5211 78.3829C10.6217 78.5561 10.8284 78.5924 10.9988 78.5086C11.8704 78.0811 12.7421 77.6565 13.6137 77.2291C13.7841 77.1453 13.8288 76.905 13.7394 76.7513C13.6361 76.5781 13.4293 76.5418 13.2617 76.6256Z" fill="#050505" fill-opacity="1.000000" fill-rule="nonzero"/>
		<path id="Vector" d="M11.6777 62.9142C10.8312 63.8528 10.4233 65.1659 10.7697 66.4063C11.0938 67.5713 12.0604 68.3563 13.2868 68.3507C14.0747 68.3451 14.8457 68.049 15.4687 67.5713C15.6168 67.4567 15.6978 67.2695 15.5944 67.0935C15.5078 66.9455 15.2676 66.8533 15.1167 66.9678C14.3149 67.5796 13.0717 67.9707 12.1666 67.3282C11.4709 66.8309 11.2502 65.8419 11.3787 65.0402C11.4765 64.4283 11.7615 63.8696 12.1749 63.4086C12.4711 63.0734 11.9794 62.5789 11.6777 62.9142Z" fill="#050505" fill-opacity="1.000000" fill-rule="nonzero"/>
		<path id="Vector" d="M12.1694 13.7534C12.7169 13.4796 13.3958 13.3846 13.9713 13.6417C14.4406 13.8512 14.7424 14.2758 14.8569 14.7703C15.086 15.7509 14.6027 16.8516 13.6556 17.2399C13.2924 17.388 12.9516 17.4439 12.5689 17.4271C12.1191 17.4104 12.1191 18.1088 12.5689 18.1255C13.6835 18.1674 14.8178 17.6143 15.3039 16.5834C15.8598 15.4017 15.6643 13.7646 14.4267 13.0941C13.6081 12.6499 12.6303 12.7505 11.8174 13.1555C11.4151 13.3511 11.7671 13.9546 12.1694 13.7534Z" fill="#050505" fill-opacity="1.000000" fill-rule="nonzero"/>
	</g>
</svg>
