<svg width="34.000000" height="9.000000" viewBox="0 0 34 9" fill="none" xmlns="http://www.w3.org/2000/svg" xmlns:xlink="http://www.w3.org/1999/xlink">
	<desc>
			Created with Pixso.
	</desc>
	<defs/>
	<path id="Vector" d="M4.5 9C2.01 9 0 6.97 0 4.5C0 2.02 2.01 0 4.5 0C6.98 0 9 2.01 9 4.5C9 6.97 6.97 9 4.5 9ZM4.5 1.53C2.86 1.53 1.53 2.86 1.53 4.5C1.53 6.13 2.86 7.46 4.5 7.46C6.13 7.46 7.46 6.13 7.46 4.5C7.46 2.86 6.13 1.53 4.5 1.53Z" fill="#E54F1E" fill-opacity="1.000000" fill-rule="nonzero"/>
	<path id="Vector" d="M29.5 9C27.02 9 25 6.98 25 4.5C25 2.01 27.01 0 29.5 0C31.98 0 34 2.01 34 4.5C34 6.98 31.98 9 29.5 9ZM29.5 1.53C27.86 1.53 26.53 2.86 26.53 4.5C26.53 6.13 27.86 7.46 29.5 7.46C31.13 7.46 32.46 6.13 32.46 4.5C32.46 2.86 31.13 1.53 29.5 1.53Z" fill="#E54F1E" fill-opacity="1.000000" fill-rule="nonzero"/>
	<path id="Vector" d="M17.5 9C15.02 9 13 6.98 13 4.5C13 2.01 15.01 0 17.5 0C19.98 0 22 2.01 22 4.5C22 6.98 19.97 9 17.5 9ZM17.5 1.53C15.86 1.53 14.53 2.86 14.53 4.5C14.53 6.13 15.86 7.46 17.5 7.46C19.13 7.46 20.46 6.13 20.46 4.5C20.46 2.86 19.13 1.53 17.5 1.53Z" fill="#E54F1E" fill-opacity="1.000000" fill-rule="nonzero"/>
</svg>
