<svg width="41.965424" height="55.009064" viewBox="0 0 41.9654 55.0091" fill="none" xmlns="http://www.w3.org/2000/svg" xmlns:xlink="http://www.w3.org/1999/xlink">
	<desc>
			Created with Pixso.
	</desc>
	<defs/>
	<path id="Vector" d="M35.7656 0C36.3976 0.351013 36.7014 0.919891 36.8229 1.65823C36.9809 2.59024 37.1996 3.51013 37.3455 4.44211C37.4062 4.79312 37.5399 4.87787 37.8438 4.86575C38.4757 4.84155 39.1198 4.85364 39.7517 4.86575C41.1371 4.88995 41.9271 5.73724 41.9514 7.2139C41.9635 8.26694 41.9757 9.33209 41.9514 10.3851C41.9271 11.8739 41.1371 12.6848 39.7396 12.7091C38.9861 12.7091 38.9861 12.7091 38.8646 13.5442C38.7188 14.5489 38.5851 15.5656 38.4757 16.5702C38.4514 16.7397 38.5365 16.9938 38.658 17.1028C39.1927 17.599 39.3629 18.2163 39.2656 18.9426C38.2448 26.5922 37.2118 34.2419 36.191 41.8794C35.9844 43.4166 35.7778 44.9538 35.5833 46.5031C35.4861 47.3019 35.1701 47.9192 34.4531 48.2703C34.3195 48.3429 34.1979 48.585 34.1736 48.7665C33.9913 49.9648 33.8576 51.1752 33.6632 52.3735C33.408 53.947 32.2778 55 30.7951 55C24.2448 55.0121 17.7066 55.0121 11.1562 55C9.64929 55 8.5191 53.9106 8.27603 52.325C8.09375 51.1268 7.96008 49.9164 7.76562 48.7181C7.74133 48.5486 7.59549 48.3308 7.44965 48.2581C6.81772 47.9313 6.47742 47.3867 6.38022 46.6725C5.85764 42.8477 5.35938 39.0229 4.84897 35.1981C4.26562 30.8044 3.68228 26.4228 3.09897 22.0291C2.95312 20.9639 2.79514 19.9109 2.67361 18.8457C2.58853 18.1679 2.79514 17.5869 3.2934 17.1149C3.41492 17.006 3.5 16.7518 3.48785 16.5823C3.35416 15.4324 3.18402 14.2826 3.05035 13.1327C3.01389 12.818 2.91666 12.6848 2.61285 12.7091C2.34549 12.7333 2.07812 12.7212 1.81076 12.697C0.875 12.6122 0.0729065 11.8255 0.0364685 10.833C-0.012146 9.48944 -0.012146 8.1459 0.0364685 6.81448C0.0729065 5.84616 0.765625 5.05942 1.68924 4.95047C2.44272 4.84155 3.24478 4.86575 4.02258 4.86575C4.36285 4.86575 4.52084 4.79312 4.5816 4.39371C4.72742 3.47382 4.95834 2.57812 5.10416 1.65823C5.22571 0.932007 5.52951 0.363129 6.14929 0C16.0295 0 25.8976 0 35.7656 0ZM32.6788 48.4155C32.4358 48.4155 32.2535 48.4155 32.0712 48.4155C30.3576 48.4155 28.6441 48.4155 26.9305 48.4155C26.7483 48.4155 26.566 48.4034 26.3837 48.3671C25.9826 48.2823 25.776 47.9919 25.7882 47.5561C25.8125 47.1325 26.0434 46.8662 26.4566 46.8178C26.6389 46.7936 26.8212 46.7936 27.0035 46.7936C29.1545 46.7936 31.3055 46.7815 33.4445 46.7936C33.8212 46.7936 34.0035 46.6846 34.0642 46.2368C34.5382 42.5693 35.0486 38.9019 35.5347 35.2465C36.2639 29.7876 36.9809 24.3409 37.7222 18.8941C37.7951 18.3979 37.6493 18.2647 37.1996 18.2647C26.3594 18.2769 15.507 18.2769 4.66666 18.2647C4.20486 18.2647 4.09549 18.4221 4.1684 18.9062C4.73959 23.0458 5.27429 27.1974 5.83334 31.3369C6.48959 36.239 7.14584 41.1411 7.80209 46.0431C7.89929 46.7936 7.92361 46.7936 8.65277 46.7936C13.2708 46.7936 17.8889 46.7936 22.507 46.7936C22.7135 46.7936 22.908 46.7936 23.1146 46.8299C23.5035 46.8904 23.7101 47.1688 23.7344 47.5561C23.7587 47.9555 23.5642 48.2581 23.1875 48.355C22.993 48.4034 22.75 48.4155 22.5191 48.4155C18.3021 48.4155 14.0972 48.4155 9.88022 48.4155C9.68576 48.4155 9.49133 48.4155 9.27258 48.4155C9.35764 49.0207 9.4184 49.5291 9.49133 50.0374C9.56424 50.5458 9.63715 51.0663 9.69791 51.5746C9.8559 52.9302 10.3299 53.3781 11.6059 53.3781C16.9045 53.3781 22.2153 53.3781 27.5139 53.3781C28.559 53.3781 29.592 53.3902 30.6371 53.3781C31.4271 53.366 31.9861 53.0029 32.1198 52.2887C32.3385 51.0299 32.4844 49.759 32.6788 48.4155ZM35.8871 4.86575C35.7049 3.90955 35.5104 3.02597 35.3767 2.13028C35.3038 1.65823 35.1458 1.50089 34.6719 1.50089C25.533 1.51297 16.4062 1.50089 7.26736 1.50089C7.17014 1.50089 7.04861 1.46457 6.96353 1.51297C6.85416 1.5856 6.67188 1.69455 6.64758 1.81558C6.42883 2.80811 6.24652 3.80063 6.03992 4.86575C6.57465 4.86575 7.04861 4.86575 7.53473 4.86575C7.97223 4.86575 8.40973 4.85367 8.83508 4.90207C9.26041 4.95047 9.50348 5.24097 9.47916 5.70093C9.47916 6.17297 9.22397 6.41504 8.79861 6.46347C8.62848 6.47559 8.45834 6.47559 8.28821 6.47559C6.29514 6.47559 4.28992 6.47559 2.29688 6.47559C1.62848 6.47559 1.49478 6.62082 1.49478 7.32285C1.49478 8.23062 1.49478 9.15054 1.49478 10.0583C1.49478 11.0387 1.53125 11.0872 2.46701 11.0872C14.8021 11.0872 27.1493 11.0872 39.4844 11.0872C39.5816 11.0872 39.691 11.0872 39.7882 11.0872C40.2621 11.1114 40.4566 10.8572 40.4566 10.373C40.4445 9.44101 40.4566 8.50903 40.4566 7.57703C40.4566 6.54819 40.3958 6.47559 39.4358 6.47559C30.5764 6.47559 21.7049 6.47559 12.8455 6.47559C12.6267 6.47559 12.408 6.47559 12.1892 6.45135C11.8004 6.40295 11.5816 6.12457 11.5573 5.73724C11.5208 5.3378 11.7031 5.0231 12.0799 4.92627C12.3108 4.86575 12.5417 4.85367 12.7726 4.85367C20.2465 4.85367 27.7083 4.85367 35.1823 4.85367C35.401 4.86575 35.6198 4.86575 35.8871 4.86575ZM5.0191 16.6065C15.7014 16.6065 26.2986 16.6065 36.9201 16.6065C37.0903 15.2993 37.2604 14.0284 37.4305 12.7454C26.4323 12.7454 15.4948 12.7454 4.50867 12.7454C4.67883 14.0647 4.84897 15.3356 5.0191 16.6065Z" fill="#000000" fill-opacity="1.000000" fill-rule="nonzero"/>
</svg>
