<svg width="104.000000" height="23.000000" viewBox="0 0 104 23" fill="none" xmlns="http://www.w3.org/2000/svg" xmlns:xlink="http://www.w3.org/1999/xlink">
	<desc>
			Created with Pixso.
	</desc>
	<defs/>
	<path id="Vector" d="M0.62973 23C7.63327 22.9977 14.6368 22.9955 21.6404 22.9932C28.6439 22.991 35.6475 22.9887 42.651 22.9865C43.5055 22.9865 44.3599 22.9865 45.2144 22.9865C45.7033 22.9865 46.0219 22.9188 46.4689 22.7496C46.8788 22.5939 47.2913 22.4382 47.7012 22.2848C49.3113 21.6756 50.9239 21.0664 52.534 20.4573C55.7888 19.2277 59.0412 17.998 62.296 16.7662C68.7711 14.3182 75.2487 11.8702 81.7237 9.42227C88.1692 6.9856 94.6121 4.54892 101.058 2.11224C101.88 1.80087 102.7 1.49179 103.522 1.18042C103.851 1.05634 104.075 0.785583 103.977 0.447174C103.895 0.165161 103.5 -0.0920715 103.174 0.0320435C96.7285 2.46872 90.2855 4.9054 83.8401 7.34207C77.3947 9.77875 70.9517 12.2154 64.5062 14.6499C61.2835 15.8682 58.0608 17.0865 54.8381 18.3049C53.228 18.9141 51.6154 19.5232 50.0052 20.1324C49.1829 20.4437 48.363 20.7528 47.5406 21.0642C46.7652 21.3575 45.9552 21.7952 45.1082 21.7952C38.1392 21.7975 31.1702 21.7997 24.2013 21.802C17.2323 21.8042 10.2633 21.8065 3.29434 21.8087C2.4053 21.8087 1.51874 21.8087 0.62973 21.8087C-0.2099 21.8087 -0.2099 23 0.62973 23Z" fill="#DE5922" fill-opacity="1.000000" fill-rule="nonzero"/>
</svg>
