<svg width="104.000008" height="12.000000" viewBox="0 0 104 12" fill="none" xmlns="http://www.w3.org/2000/svg" xmlns:xlink="http://www.w3.org/1999/xlink">
	<desc>
			Created with Pixso.
	</desc>
	<defs/>
	<path id="Vector" d="M103.33 0C96.3312 0.0273132 89.3321 0.0525208 82.333 0.079834C75.3007 0.107147 68.2656 0.13446 61.2333 0.159668C54.2342 0.186981 47.2351 0.212219 40.236 0.239502C33.2368 0.266815 26.235 0.294128 19.2359 0.321442C18.7597 0.323547 18.5465 0.413879 18.1727 0.63028C17.7934 0.850891 17.4141 1.07358 17.032 1.29416C16.3537 1.68915 15.6754 2.08411 14.9971 2.4791C13.5851 3.30054 12.1759 4.12198 10.7639 4.94556C7.99521 6.55695 5.22658 8.17044 2.45795 9.78183C1.75195 10.1936 1.04594 10.6033 0.339951 11.0151C0.0409241 11.1895 -0.108582 11.4647 0.0907593 11.7336C0.256882 11.9563 0.741394 12.0949 1.03764 11.9227C6.57491 8.69778 12.1094 5.47498 17.6467 2.25009C17.9761 2.0589 18.3028 1.86981 18.6268 1.68073C18.7707 1.59671 18.9479 1.44754 19.114 1.39713C19.2802 1.34668 19.5487 1.37192 19.7481 1.37192C20.6008 1.36771 21.4563 1.3656 22.3091 1.36139C24.0505 1.3551 25.792 1.34879 27.5335 1.3425C31.0164 1.3299 34.4993 1.31519 37.9823 1.30258C44.9482 1.27527 51.914 1.25006 58.8772 1.22275C65.8403 1.19543 72.8089 1.17023 79.772 1.14291C86.7379 1.1156 93.7038 1.09039 100.667 1.06308C101.556 1.05887 102.442 1.05676 103.33 1.05258C104.222 1.04626 104.225 -0.00418091 103.33 0Z" fill="#DE5922" fill-opacity="1.000000" fill-rule="nonzero"/>
</svg>
