<svg width="73.000000" height="13.000000" viewBox="0 0 73 13" fill="none" xmlns="http://www.w3.org/2000/svg" xmlns:xlink="http://www.w3.org/1999/xlink">
	<desc>
			Created with Pixso.
	</desc>
	<defs/>
	<path id="Vector" d="M0.505615 1.06454C8.21393 1.11041 15.92 1.15631 23.6283 1.20218C31.3117 1.24808 38.9951 1.29395 46.6786 1.33984C51.0104 1.36508 55.3445 1.39032 59.6763 1.41785C59.5521 1.36508 59.4301 1.31461 59.3059 1.26184C63.5677 5.12759 67.8296 8.99335 72.0914 12.8591C72.5928 13.3134 73.3358 12.5632 72.8322 12.1066C69.1214 8.741 65.4084 5.37308 61.6977 2.00745C61.237 1.58762 60.774 1.17007 60.3132 0.750214C60.0851 0.543732 59.9225 0.367096 59.6041 0.353333C59.2698 0.33728 58.9333 0.348724 58.599 0.346436C57.3546 0.339569 56.1101 0.332672 54.8657 0.323486C52.352 0.307434 49.8383 0.293671 47.3268 0.277618C42.3491 0.247803 37.369 0.217957 32.3913 0.188141C27.3887 0.158325 22.3861 0.128479 17.3835 0.0986633C12.3809 0.0688477 7.37827 0.0390015 2.37567 0.00918579C1.75006 0.00689697 1.12671 0.00460815 0.505615 0C-0.167419 -0.00457764 -0.169678 1.05994 0.505615 1.06454Z" fill="#DE5922" fill-opacity="1.000000" fill-rule="nonzero"/>
</svg>
