<svg width="130.000000" height="2.000000" viewBox="0 0 130 2" fill="none" xmlns="http://www.w3.org/2000/svg" xmlns:xlink="http://www.w3.org/1999/xlink">
	<desc>
			Created with Pixso.
	</desc>
	<defs/>
	<path id="Vector" d="M0.97 0.01C2.12 0.01 3.27 0.01 4.42 0.01C7.52 0.01 10.62 0.01 13.72 0.01C18.32 0.01 22.91 0.01 27.51 0.01C33.12 0.01 38.72 0.01 44.33 0.01C50.45 0.01 56.57 0.01 62.69 0.01C68.91 0.01 75.13 0.01 81.35 0.01C87.11 0.01 92.87 0.01 98.63 0.01C103.51 0.01 108.4 0.01 113.28 0.01C116.79 0.01 120.31 0.01 123.82 0.01C125.48 0.01 127.14 -0.02 128.8 0.01C128.87 0.01 128.95 0.01 129.02 0.01C130.32 0.01 130.32 1.98 129.02 1.98C127.87 1.98 126.72 1.98 125.57 1.98C122.47 1.98 119.37 1.98 116.27 1.98C111.67 1.98 107.08 1.98 102.48 1.98C96.87 1.98 91.27 1.98 85.66 1.98C79.54 1.98 73.42 1.98 67.3 1.98C61.08 1.98 54.86 1.98 48.64 1.98C42.88 1.98 37.12 1.98 31.36 1.98C26.48 1.98 21.59 1.98 16.71 1.98C13.19 1.98 9.68 1.98 6.17 1.98C4.51 1.98 2.85 2.01 1.19 1.98C1.12 1.98 1.04 1.98 0.97 1.98C-0.33 1.98 -0.33 0.01 0.97 0.01Z" fill="#DE5922" fill-opacity="1.000000" fill-rule="nonzero"/>
</svg>
