<svg width="95.000000" height="37.000000" viewBox="0 0 95 37" fill="none" xmlns="http://www.w3.org/2000/svg" xmlns:xlink="http://www.w3.org/1999/xlink">
	<desc>
			Created with Pixso.
	</desc>
	<defs>
		<clipPath id="clip81_652">
			<rect id="Frame" width="95.000000" height="37.000000" fill="white" fill-opacity="0"/>
		</clipPath>
	</defs>
	<rect id="Frame" width="95.000000" height="37.000000" fill="#FFFFFF" fill-opacity="0"/>
	<g clip-path="url(#clip81_652)">
		<path id="Vector" d="M51.6306 23.9477C50.3278 21.5138 47.1789 21.5084 46.4879 21.5031C45.7811 21.5031 42.4528 21.4923 41.2713 24.0013C40.5329 25.5721 41.034 27.2823 41.0603 27.3735C41.2028 27.8345 41.5509 28.7137 42.3737 29.4106C43.07 30.0004 43.7873 30.1183 44.6893 30.2845C45.4066 30.4132 45.9763 30.4078 46.5301 30.4025C47.105 30.3971 47.6905 30.3864 48.4237 30.2255C49.236 30.0486 49.9639 29.8985 50.6865 29.2927C51.003 29.03 51.7309 28.3974 52.0526 27.2555C52.5062 25.6579 51.7783 24.2319 51.6306 23.9477ZM49.4417 27.2073C49.1305 27.663 48.7349 27.8184 48.2549 28.006C47.5587 28.2795 46.9784 28.2849 46.5196 28.2849C46.0132 28.2849 45.4594 28.2795 44.7948 28.006C44.3622 27.8292 43.9297 27.6522 43.6027 27.1644C43.4972 27.0089 43.2071 26.5211 43.244 25.8509C43.2809 25.1593 43.6502 24.7036 43.8084 24.516C44.6154 23.5457 45.8813 23.5617 46.567 23.5724C47.2686 23.5831 48.4501 23.5992 49.2254 24.532C49.3784 24.7197 49.7476 25.1808 49.7898 25.8831C49.8004 26.0117 49.8267 26.6443 49.4417 27.2073Z" fill="#444342" fill-opacity="1.000000" fill-rule="nonzero"/>
		<path id="Vector" d="M44.0774 9.40308C42.4687 6.70642 38.6604 6.74396 37.8217 6.74933C36.9673 6.7547 32.9322 6.79218 31.5344 9.60144C30.6588 11.3545 31.2812 13.2577 31.3181 13.3596C31.4922 13.8688 31.9247 14.8445 32.9322 15.6058C33.7814 16.2491 34.6517 16.3778 35.7435 16.5494C36.6191 16.6834 37.3048 16.6727 37.9747 16.6566C38.6709 16.6405 39.3777 16.6245 40.2639 16.4368C41.2449 16.2277 42.1258 16.0562 42.9908 15.3699C43.3706 15.0697 44.2462 14.3621 44.626 13.0861C45.1587 11.2902 44.262 9.71399 44.0774 9.40308ZM41.4665 13.0593C41.0973 13.5686 40.6173 13.7455 40.0371 13.96C39.1984 14.2709 38.4969 14.2817 37.9378 14.2924C37.3259 14.2977 36.6561 14.2977 35.849 14.0082C35.3216 13.8206 34.7994 13.6276 34.3985 13.0861C34.2719 12.9146 33.908 12.3731 33.9449 11.6333C33.9818 10.8666 34.4249 10.352 34.6148 10.1375C35.5853 9.04388 37.1149 9.04919 37.9483 9.04919C38.7975 9.04919 40.2322 9.05457 41.1764 10.0839C41.3663 10.293 41.8199 10.7969 41.8779 11.5797C41.8885 11.7191 41.9254 12.4213 41.4665 13.0593Z" fill="#444342" fill-opacity="1.000000" fill-rule="nonzero"/>
		<path id="Vector" d="M63.757 16.5816L61.5838 16.5816C61.2779 16.5816 61.0353 16.3297 61.0353 16.024L61.0511 10.738C61.0511 10.4324 61.299 10.1805 61.5996 10.1805L63.7042 10.1805C64.0049 10.1805 64.2528 10.4271 64.2528 10.7327C64.2686 12.4965 64.2897 14.2549 64.3055 16.0187C64.3108 16.3297 64.0629 16.5816 63.757 16.5816Z" fill="#444342" fill-opacity="1.000000" fill-rule="nonzero"/>
		<path id="Vector" d="M63.9046 7.62323C63.9046 7.62323 63.8994 7.61786 63.8994 7.61249C63.8994 7.56958 63.9046 7.53204 63.9046 7.4892C63.9046 6.58313 63.3244 5.84332 62.6176 5.84332C61.9056 5.84332 61.3306 6.58313 61.3306 7.4892C61.3306 7.53741 61.3306 7.58569 61.3359 7.63391C61.3359 7.63391 61.3359 7.63928 61.3306 7.63928L61.3359 7.63928C61.3992 8.47565 61.9478 9.1297 62.6176 9.1297C63.2928 9.1297 63.8466 8.4649 63.8994 7.62323L63.9046 7.62323Z" fill="#444342" fill-opacity="1.000000" fill-rule="nonzero"/>
		<path id="Vector" d="M84.7446 16.544L82.5715 16.544C82.2655 16.544 82.0229 16.2921 82.0229 15.9865L82.0387 10.7004C82.0387 10.3948 82.2866 10.1429 82.5873 10.1429L84.6918 10.1429C84.9925 10.1429 85.2404 10.3895 85.2404 10.6951C85.2562 12.4589 85.2773 14.2173 85.2931 15.9811C85.2984 16.2921 85.0505 16.544 84.7446 16.544Z" fill="#444342" fill-opacity="1.000000" fill-rule="nonzero"/>
		<path id="Vector" d="M84.8923 7.59106C84.8923 7.59106 84.887 7.58569 84.887 7.58032C84.887 7.53741 84.8923 7.49988 84.8923 7.45703C84.8923 6.55096 84.3121 5.81116 83.6053 5.81116C82.8932 5.81116 82.3183 6.55096 82.3183 7.45703C82.3183 7.50525 82.3183 7.55353 82.3235 7.60175C82.3235 7.60175 82.3235 7.60712 82.3183 7.60712L82.3235 7.60712C82.3868 8.44348 82.9354 9.09753 83.6053 9.09753C84.2804 9.09753 84.8343 8.43274 84.887 7.59106L84.8923 7.59106Z" fill="#444342" fill-opacity="1.000000" fill-rule="nonzero"/>
		<path id="Vector" d="M67.2804 16.1527C67.2435 15.5255 68.0135 13.1022 67.9819 11.5529C67.9555 10.2287 67.2962 7.47845 67.2804 7.25867C67.2804 7.24792 67.2804 7.23718 67.2804 7.23718C67.2804 7.17822 67.2857 7.03888 67.3964 6.93164C67.4755 6.86194 67.6127 6.8244 67.8078 6.8244L69.6223 6.8244C69.77 6.8244 69.8966 6.84583 70.0021 6.88336C70.1076 6.92627 70.1761 6.96381 70.2183 6.99597C70.2553 7.02814 70.308 7.09247 70.366 7.17822C70.424 7.26935 70.461 7.31763 70.4662 7.32837L72.8715 10.8292C72.9189 10.8989 73.0191 10.8989 73.0666 10.8292L75.4982 7.32837C75.5246 7.28546 75.5668 7.22113 75.6195 7.14606C75.6881 7.05493 75.7303 7.00134 75.8041 6.94769C75.8885 6.88336 75.9677 6.86194 76.0257 6.84583C76.1364 6.81366 76.2419 6.80835 76.3263 6.81903C76.9118 6.81903 77.5026 6.81903 78.088 6.81903C78.2832 6.81903 78.4203 6.85657 78.4995 6.92627C78.5628 6.98523 78.6102 7.0871 78.6155 7.2533C78.6366 7.85907 78.088 10.3574 78.0775 11.6226C78.0669 12.9736 78.6472 15.5362 78.6155 16.1473C78.6102 16.2117 78.6102 16.3886 78.4836 16.4797C78.3992 16.5441 78.2621 16.5762 78.088 16.5762L76.3263 16.5762C76.147 16.5762 76.0151 16.5441 75.9307 16.4797C75.8147 16.394 75.8041 16.217 75.7989 16.1473C75.783 15.8793 75.994 14.0244 76.3263 11.5208C76.2841 11.0919 76.0784 10.7595 75.7989 10.679C75.514 10.5986 75.2028 10.7755 75.0974 10.931C74.8231 11.3331 74.5119 11.8799 74.2692 12.5608C74.1163 12.9843 74.0213 13.3757 73.9633 13.7188C73.9264 13.7724 73.8473 13.8743 73.7101 13.9547C73.6205 14.0083 73.5308 14.0297 73.4359 14.0297L72.5128 14.0297C72.3335 14.0297 72.1647 13.9279 72.0012 13.7188C71.9326 13.3757 71.5634 11.5368 70.7933 10.9792C70.6614 10.8828 70.4135 10.7112 70.1603 10.7863C69.8808 10.8667 69.6803 11.2259 69.6329 11.703C69.9652 14.0619 70.1709 15.7989 70.1498 16.1527C70.1445 16.217 70.1498 16.394 70.0179 16.4851C69.9335 16.5494 69.7964 16.5816 69.6223 16.5816L67.8078 16.5816C67.6285 16.5816 67.4966 16.5494 67.4122 16.4851C67.2804 16.394 67.2857 16.2117 67.2804 16.1527Z" fill="#444342" fill-opacity="1.000000" fill-rule="nonzero"/>
		<path id="Vector" d="M46.7991 16.1849C46.7622 15.5576 47.5323 13.1344 47.5006 11.5851C47.4742 10.2609 46.8149 7.51062 46.7991 7.29083C46.7991 7.28009 46.7991 7.26935 46.7991 7.26935C46.7991 7.21039 46.8044 7.07104 46.9151 6.96381C46.9942 6.8941 47.1314 6.85657 47.3266 6.85657L49.141 6.85657C49.2887 6.85657 49.4153 6.87799 49.5208 6.91553C49.6263 6.95844 49.6949 6.99597 49.737 7.02814C49.774 7.0603 49.8267 7.12463 49.8847 7.21039C49.9428 7.30151 49.9797 7.34979 49.985 7.36053L52.3902 10.8613C52.4377 10.931 52.5379 10.931 52.5853 10.8613L55.0169 7.36053C55.0433 7.31763 55.0855 7.2533 55.1382 7.17822C55.2068 7.0871 55.249 7.03351 55.3228 6.97986C55.4072 6.91553 55.4864 6.8941 55.5444 6.87799C55.6552 6.84583 55.7606 6.84052 55.845 6.8512C56.4305 6.8512 57.0213 6.8512 57.6068 6.8512C57.8019 6.8512 57.9391 6.88873 58.0182 6.95844C58.0815 7.0174 58.1289 7.11926 58.1342 7.28546C58.1553 7.89124 57.6068 10.3895 57.5962 11.6547C57.5856 13.0057 58.1659 15.5684 58.1342 16.1795C58.1289 16.2438 58.1289 16.4208 58.0023 16.5119C57.918 16.5762 57.7808 16.6084 57.6068 16.6084L55.8398 16.6084C55.6604 16.6084 55.5286 16.5762 55.4442 16.5119C55.3281 16.4261 55.3176 16.2492 55.3123 16.1795C55.2965 15.9114 55.5075 14.0565 55.8398 11.5529C55.7976 11.124 55.5919 10.7916 55.3123 10.7112C55.0275 10.6308 54.7163 10.8077 54.6108 10.9632C54.3365 11.3652 54.0253 11.9121 53.7827 12.593C53.6297 13.0165 53.5348 13.4078 53.4767 13.7509C53.4398 13.8046 53.3607 13.9064 53.2236 13.9868C53.1339 14.0405 53.0442 14.0619 52.9493 14.0619L52.0262 14.0619C51.8469 14.0619 51.6781 13.96 51.5146 13.7509C51.446 13.4078 51.0768 11.569 50.3067 11.0114C50.1748 10.9149 49.9269 10.7433 49.6738 10.8184C49.3942 10.8989 49.1938 11.2581 49.1463 11.7352C49.4786 14.0941 49.6843 15.8311 49.6632 16.1849C49.6579 16.2492 49.6632 16.4261 49.5313 16.5173C49.4469 16.5816 49.3098 16.6138 49.1357 16.6138L47.3213 16.6138C47.1419 16.6138 47.0101 16.5816 46.9257 16.5173C46.7991 16.4261 46.7991 16.2438 46.7991 16.1849Z" fill="#444342" fill-opacity="1.000000" fill-rule="nonzero"/>
		<path id="Vector" d="M31.2179 26.0332C31.2179 25.3631 31.3234 24.7466 31.5397 24.1944C31.7559 23.6422 32.0619 23.1597 32.4575 22.7576C32.8531 22.3555 33.3225 22.0446 33.871 21.8248C34.4196 21.605 35.0209 21.4977 35.6802 21.4977C36.2974 21.4977 36.8407 21.5621 37.3154 21.6907C37.7901 21.8194 38.1857 21.9856 38.5022 22.184C38.8186 22.3877 39.0613 22.6021 39.23 22.838C39.3936 23.0739 39.478 23.2991 39.478 23.5082C39.478 23.6529 39.4463 23.7923 39.3777 23.9263C39.3092 24.0604 39.23 24.1729 39.1298 24.2694C39.0296 24.3659 38.9188 24.441 38.7923 24.4946C38.6657 24.5482 38.5338 24.5804 38.4019 24.5804C38.1698 24.5804 37.98 24.4999 37.8217 24.3445C37.7215 24.2426 37.6107 24.1407 37.4894 24.0443C37.3681 23.9424 37.2257 23.8566 37.0622 23.7762C36.8987 23.6958 36.7035 23.6315 36.4767 23.5832C36.2499 23.535 35.9862 23.5082 35.675 23.5082C34.926 23.5082 34.351 23.6958 33.9554 24.071C33.5598 24.4464 33.3594 25.1004 33.3594 26.0279C33.3594 26.9553 33.5598 27.6094 33.9554 27.9847C34.351 28.3599 34.926 28.5476 35.675 28.5476C35.9809 28.5476 36.2499 28.5208 36.4767 28.4725C36.7035 28.4243 36.8987 28.3599 37.0622 28.2795C37.2257 28.1991 37.3681 28.1133 37.4894 28.0115C37.6107 27.9096 37.7215 27.8077 37.8217 27.7112C37.9747 27.5558 38.1698 27.4753 38.4019 27.4753C38.5338 27.4753 38.6657 27.5022 38.7923 27.5612C38.9188 27.6147 39.0296 27.6952 39.1298 27.7863C39.23 27.8828 39.3092 27.9954 39.3777 28.124C39.4463 28.2527 39.478 28.3975 39.478 28.5529C39.478 28.7674 39.3936 28.9872 39.23 29.2231C39.0665 29.459 38.8239 29.6788 38.5022 29.8771C38.1804 30.0809 37.7848 30.2417 37.3154 30.3704C36.8407 30.499 36.2974 30.5634 35.6802 30.5634C35.0209 30.5634 34.4143 30.4561 33.871 30.2363C33.3278 30.0165 32.8531 29.7056 32.4575 29.3035C32.0619 28.9014 31.7559 28.4243 31.5397 27.8667C31.3234 27.3199 31.2179 26.7034 31.2179 26.0332Z" fill="#444342" fill-opacity="1.000000" fill-rule="nonzero"/>
		<path id="Vector" d="M54.1255 22.7522C54.2627 22.7522 54.3734 22.7576 54.4578 22.7737C54.5422 22.7897 54.6266 22.8005 54.7163 22.8112C54.9062 22.8326 55.0064 22.7361 55.0275 22.527C55.0591 22.0928 55.1541 21.7014 55.3229 21.3422C55.4917 20.983 55.729 20.6775 56.0349 20.4148C56.3409 20.1521 56.7259 19.9484 57.1848 19.8036C57.6437 19.6589 58.1817 19.5838 58.7936 19.5838C58.8832 19.5838 58.9623 19.6267 59.0309 19.7071C59.0995 19.7875 59.1522 19.8894 59.1944 20.0073C59.2314 20.1252 59.263 20.254 59.2841 20.3826C59.3052 20.5113 59.3157 20.6238 59.3157 20.715C59.3157 20.8062 59.3052 20.908 59.2841 21.0259C59.263 21.1439 59.2366 21.2511 59.1944 21.3476C59.1522 21.4495 59.0995 21.5299 59.0309 21.5942C58.9623 21.6586 58.8832 21.6907 58.7936 21.6907C58.2186 21.6907 57.8125 21.7819 57.5699 21.9641C57.3272 22.1464 57.1795 22.334 57.1321 22.5217C57.111 22.6021 57.1268 22.6718 57.1743 22.7308C57.2217 22.7897 57.2956 22.8165 57.38 22.8058C57.5276 22.7844 57.6806 22.7683 57.8336 22.7629C57.9865 22.7522 58.1342 22.7468 58.2714 22.7468C58.361 22.7468 58.4402 22.7897 58.5087 22.8702C58.5773 22.9506 58.63 23.0524 58.6722 23.1703C58.7144 23.2937 58.7408 23.417 58.7619 23.5457C58.783 23.6743 58.7936 23.7869 58.7936 23.8781C58.7936 23.9692 58.783 24.0818 58.7619 24.2104C58.7408 24.3391 58.7144 24.4678 58.6722 24.5857C58.63 24.709 58.5773 24.8055 58.5087 24.8859C58.4402 24.9664 58.361 25.0038 58.2714 25.0038C58.1342 25.0038 57.9865 24.9985 57.8336 24.9878C57.6806 24.9771 57.5276 24.961 57.38 24.9449C57.2903 24.9341 57.2217 24.9556 57.1637 25.0146C57.111 25.0682 57.0846 25.1432 57.0846 25.2344C57.0846 25.6043 57.0899 26.0118 57.1004 26.4514C57.111 26.891 57.1215 27.3199 57.1321 27.7434C57.1426 28.1669 57.1479 28.569 57.1532 28.9496C57.1584 29.3303 57.1584 29.6519 57.1584 29.9146C57.1584 30.0165 57.1162 30.0969 57.0371 30.1613C56.958 30.2256 56.8578 30.2792 56.7417 30.3221C56.6204 30.365 56.4991 30.3918 56.3725 30.4132C56.2459 30.4346 56.1352 30.4454 56.0455 30.4454C55.9558 30.4454 55.845 30.4346 55.7185 30.4132C55.5919 30.3918 55.4653 30.365 55.3492 30.3221C55.2279 30.2845 55.133 30.231 55.0539 30.1613C54.98 30.0969 54.9431 30.0165 54.9431 29.9146C54.9431 29.6519 54.9431 29.3303 54.9484 28.9496C54.9536 28.569 54.9589 28.1669 54.9695 27.7434C54.98 27.3199 54.9906 26.891 55.0011 26.4514C55.0117 26.0118 55.0169 25.6097 55.0169 25.2344C55.0169 25.1432 54.9906 25.0735 54.9326 25.0146C54.8798 24.961 54.806 24.9341 54.7163 24.9449C54.6161 24.9556 54.5264 24.9663 54.442 24.9824C54.3576 24.9985 54.2521 25.0038 54.1255 25.0038C54.0359 25.0038 53.9567 24.9664 53.8882 24.8859C53.8196 24.8055 53.7669 24.7037 53.7247 24.5857C53.6825 24.4624 53.6561 24.3391 53.635 24.2104C53.6139 24.0818 53.6033 23.9692 53.6033 23.8781C53.6033 23.7869 53.6139 23.6797 53.635 23.5457C53.6561 23.417 53.6825 23.2883 53.7247 23.1703C53.7669 23.0471 53.8196 22.9506 53.8882 22.8702C53.9567 22.7897 54.0359 22.7522 54.1255 22.7522Z" fill="#444342" fill-opacity="1.000000" fill-rule="nonzero"/>
		<path id="Vector" d="M60.8981 22.7522C61.0353 22.7522 61.146 22.7576 61.2304 22.7737C61.3148 22.7897 61.3992 22.8005 61.4889 22.8112C61.6788 22.8326 61.779 22.7361 61.8001 22.527C61.8317 22.0928 61.9267 21.7014 62.0955 21.3422C62.2642 20.983 62.5016 20.6775 62.8075 20.4148C63.1135 20.1521 63.4985 19.9484 63.9574 19.8036C64.4163 19.6589 64.9543 19.5838 65.5661 19.5838C65.6558 19.5838 65.7349 19.6267 65.8035 19.7071C65.8721 19.7875 65.9248 19.8894 65.967 20.0073C66.0039 20.1252 66.0356 20.254 66.0567 20.3826C66.0778 20.5113 66.0883 20.6238 66.0883 20.715C66.0883 20.8062 66.0778 20.908 66.0567 21.0259C66.0356 21.1439 66.0092 21.2511 65.967 21.3476C65.9248 21.4495 65.8721 21.5299 65.8035 21.5942C65.7349 21.6586 65.6558 21.6907 65.5661 21.6907C64.9912 21.6907 64.5851 21.7819 64.3424 21.9641C64.0998 22.1464 63.9521 22.334 63.9046 22.5217C63.8835 22.6021 63.8994 22.6718 63.9468 22.7308C63.9943 22.7897 64.0682 22.8165 64.1526 22.8058C64.3002 22.7844 64.4532 22.7683 64.6062 22.7629C64.7591 22.7522 64.9068 22.7468 65.044 22.7468C65.1336 22.7468 65.2127 22.7897 65.2813 22.8702C65.3499 22.9506 65.4026 23.0524 65.4448 23.1703C65.487 23.2937 65.5134 23.417 65.5345 23.5457C65.5556 23.6743 65.5661 23.7869 65.5661 23.8781C65.5661 23.9692 65.5556 24.0818 65.5345 24.2104C65.5134 24.3391 65.487 24.4678 65.4448 24.5857C65.4026 24.709 65.3499 24.8055 65.2813 24.8859C65.2127 24.9664 65.1336 25.0038 65.044 25.0038C64.9068 25.0038 64.7591 24.9985 64.6062 24.9878C64.4532 24.9771 64.3002 24.961 64.1526 24.9449C64.0629 24.9341 63.9943 24.9556 63.9363 25.0146C63.8835 25.0682 63.8572 25.1432 63.8572 25.2344C63.8572 25.6043 63.8624 26.0118 63.873 26.4514C63.8835 26.891 63.8941 27.3199 63.9046 27.7434C63.9152 28.1669 63.9205 28.569 63.9258 28.9496C63.931 29.3303 63.931 29.6519 63.931 29.9146C63.931 30.0165 63.8888 30.0969 63.8097 30.1613C63.7306 30.2256 63.6304 30.2792 63.5143 30.3221C63.393 30.365 63.2717 30.3918 63.1451 30.4132C63.0185 30.4346 62.9077 30.4454 62.8181 30.4454C62.7284 30.4454 62.6176 30.4346 62.4911 30.4132C62.3645 30.3918 62.2379 30.365 62.1218 30.3221C62.0005 30.2792 61.9056 30.231 61.8264 30.1613C61.7473 30.0969 61.7051 30.0111 61.7051 29.9146C61.7051 29.6519 61.7051 29.3303 61.7104 28.9496C61.7157 28.569 61.721 28.1669 61.7315 27.7434C61.7421 27.3199 61.7526 26.891 61.7632 26.4514C61.7737 26.0118 61.779 25.6097 61.779 25.2344C61.779 25.1432 61.7526 25.0735 61.6946 25.0146C61.6418 24.961 61.568 24.9341 61.4783 24.9449C61.3781 24.9556 61.2884 24.9663 61.2041 24.9824C61.1197 24.9985 61.0142 25.0038 60.8876 25.0038C60.7979 25.0038 60.7188 24.9664 60.6502 24.8859C60.5816 24.8055 60.5289 24.7037 60.4867 24.5857C60.4445 24.4624 60.4181 24.3391 60.397 24.2104C60.3759 24.0818 60.3654 23.9692 60.3654 23.8781C60.3654 23.7869 60.3759 23.6797 60.397 23.5457C60.4181 23.417 60.4445 23.2883 60.4867 23.1703C60.5289 23.0471 60.5816 22.9506 60.6502 22.8702C60.7293 22.7897 60.8085 22.7522 60.8981 22.7522Z" fill="#444342" fill-opacity="1.000000" fill-rule="nonzero"/>
		<path id="Vector" d="M82.0071 21.5031C82.5609 21.5031 83.0831 21.5781 83.5631 21.7228C84.0483 21.8676 84.4703 22.066 84.829 22.3126C85.1877 22.5592 85.4725 22.8594 85.6835 23.2079C85.8945 23.5563 86 23.9316 86 24.3444C86 24.8538 85.8945 25.2773 85.6835 25.6204C85.4725 25.9635 85.1877 26.2369 84.829 26.446C84.4703 26.6551 84.0483 26.8052 83.5631 26.8909C83.0778 26.9767 82.5609 27.0196 82.0071 27.0196C81.6062 27.0196 81.237 26.9928 80.9047 26.9392C80.5724 26.8856 80.3087 26.832 80.1135 26.7784C80.0027 26.7569 79.9236 26.7676 79.8761 26.8212C79.8287 26.8695 79.8128 26.9392 79.8339 27.025C79.8656 27.1536 79.9289 27.293 80.0133 27.4485C80.0977 27.5986 80.2243 27.7433 80.3878 27.872C80.5513 28.0007 80.7623 28.1079 81.026 28.199C81.2845 28.2849 81.6115 28.3277 82.0071 28.3277C82.313 28.3277 82.5767 28.3009 82.7983 28.2527C83.0198 28.2044 83.215 28.1401 83.3785 28.065C83.542 27.99 83.6844 27.9042 83.8004 27.8077C83.9218 27.7112 84.0273 27.6147 84.1275 27.5182C84.2804 27.3681 84.4703 27.293 84.6971 27.293C84.829 27.293 84.9556 27.3198 85.0822 27.3735C85.2088 27.4271 85.3195 27.5021 85.4145 27.5933C85.5147 27.6844 85.5938 27.7916 85.6571 27.9203C85.7204 28.0436 85.7573 28.183 85.7573 28.3331C85.7573 28.5368 85.6782 28.7566 85.5147 28.9818C85.3512 29.207 85.1138 29.4214 84.7973 29.6144C84.4809 29.8074 84.0905 29.9682 83.6211 30.0916C83.1517 30.2148 82.6136 30.2792 82.0071 30.2792C81.3319 30.2792 80.7253 30.1719 80.1768 29.9628C79.6335 29.7538 79.1693 29.4536 78.7896 29.0622C78.4098 28.6708 78.1144 28.2098 77.9087 27.6736C77.703 27.1376 77.5975 26.5479 77.5975 25.8938C77.5975 25.2451 77.703 24.65 77.9087 24.1139C78.1144 23.5778 78.4098 23.1168 78.7896 22.7254C79.1693 22.334 79.6335 22.0338 80.1768 21.8247C80.7253 21.6103 81.3319 21.5031 82.0071 21.5031ZM80.1135 24.9931C80.3192 25.036 80.5988 25.0896 80.9469 25.1486C81.295 25.2076 81.6484 25.2397 82.0071 25.2397C82.5398 25.2397 82.9881 25.1593 83.3468 25.0038C83.7055 24.8484 83.8848 24.6285 83.8848 24.3444C83.8848 24.0657 83.7055 23.8458 83.3468 23.685C82.9881 23.5295 82.5398 23.4492 82.0071 23.4492C81.6378 23.4492 81.3214 23.4866 81.0629 23.5617C80.8045 23.6368 80.5882 23.7333 80.4194 23.8458C80.2506 23.9584 80.124 24.0817 80.0344 24.2104C79.9447 24.3391 79.8867 24.4624 79.855 24.5857C79.8339 24.6714 79.8445 24.7573 79.8972 24.8376C79.9447 24.9181 80.0186 24.9717 80.1135 24.9931Z" fill="#444342" fill-opacity="1.000000" fill-rule="nonzero"/>
		<path id="Vector" d="M72.0645 21.5298C72.6236 21.5298 73.1458 21.6049 73.631 21.7496C74.1163 21.8944 74.5382 22.0928 74.9022 22.3447C75.2609 22.5967 75.551 22.8915 75.7619 23.2401C75.9729 23.5885 76.0837 23.9691 76.0837 24.382C76.0837 24.8912 75.9782 25.3201 75.7619 25.6633C75.551 26.0063 75.2609 26.2852 74.9022 26.4942C74.5435 26.7087 74.1163 26.8534 73.631 26.9446C73.1458 27.0303 72.6236 27.0732 72.0645 27.0732C71.6583 27.0732 71.2891 27.0464 70.9568 26.9928C70.6245 26.9392 70.3608 26.8856 70.1603 26.832C70.0496 26.8105 69.9704 26.8212 69.923 26.8749C69.8755 26.9231 69.8597 26.9928 69.8808 27.0786C69.9124 27.2072 69.9757 27.352 70.0601 27.5021C70.1445 27.6522 70.2711 27.7969 70.4399 27.9257C70.6034 28.0543 70.8144 28.1669 71.0781 28.2527C71.3418 28.3384 71.6689 28.3813 72.0592 28.3813C72.3651 28.3813 72.6288 28.3545 72.8557 28.3063C73.0772 28.258 73.2723 28.1937 73.4359 28.1187C73.5994 28.0436 73.7418 27.9578 73.8631 27.856C73.9844 27.7595 74.0899 27.663 74.1901 27.5611C74.3431 27.4109 74.533 27.3306 74.765 27.3306C74.8969 27.3306 75.0235 27.3574 75.1501 27.4109C75.2767 27.4646 75.3875 27.5396 75.4877 27.6308C75.5879 27.7219 75.667 27.8345 75.7356 27.9578C75.7989 28.0811 75.8358 28.2205 75.8358 28.376C75.8358 28.585 75.7514 28.7995 75.5879 29.03C75.4244 29.2606 75.1817 29.4696 74.8653 29.668C74.5488 29.861 74.1532 30.0218 73.6838 30.1505C73.2143 30.2738 72.671 30.3381 72.0592 30.3381C71.384 30.3381 70.7669 30.2309 70.2236 30.0218C69.6751 29.8074 69.2109 29.5071 68.8311 29.1158C68.4461 28.7244 68.1507 28.258 67.945 27.7219C67.7393 27.1858 67.6338 26.5907 67.6338 25.9366C67.6338 25.2826 67.7393 24.6875 67.945 24.1514C68.1507 23.6153 68.4461 23.1489 68.8311 22.7575C69.2109 22.3661 69.6803 22.066 70.2236 21.8515C70.7775 21.6317 71.3893 21.5298 72.0645 21.5298ZM70.1656 25.036C70.3713 25.0789 70.6509 25.1325 71.0043 25.1915C71.3524 25.2504 71.7111 25.2826 72.0697 25.2826C72.6025 25.2826 73.0508 25.2022 73.4147 25.0468C73.7734 24.8912 73.958 24.6714 73.958 24.3873C73.958 24.1031 73.7787 23.8834 73.4147 23.7279C73.0561 23.5724 72.6077 23.492 72.0697 23.492C71.7005 23.492 71.3788 23.5295 71.1203 23.6046C70.8566 23.6796 70.6403 23.7761 70.4715 23.8887C70.3027 24.0013 70.1761 24.1246 70.0865 24.2533C69.9968 24.382 69.9388 24.5106 69.9072 24.6285C69.886 24.7144 69.8966 24.8001 69.9493 24.8806C69.9915 24.9609 70.0654 25.0146 70.1656 25.036Z" fill="#444342" fill-opacity="1.000000" fill-rule="nonzero"/>
		<path id="Vector" d="M27.4783 21.4709C27.4572 21.873 27.4572 22.3502 27.415 22.8219C27.262 24.3981 26.8717 25.9099 26.2071 27.3413C25.6796 28.4779 24.9992 29.5126 24.15 30.4293C23.4274 31.2067 22.6151 31.8553 21.6868 32.3647C20.8797 32.8096 20.02 33.1152 19.1127 33.2707C18.7013 33.3404 18.2899 33.3833 17.8732 33.3833C17.7202 33.3833 17.5726 33.3833 17.4196 33.3779C16.5071 33.3511 15.621 33.1581 14.7717 32.8204C13.701 32.4022 12.7516 31.7803 11.9024 30.9976C10.9635 30.1345 10.2092 29.1212 9.60263 27.9954C9.01189 26.891 8.58992 25.7223 8.32619 24.4999C8.22597 24.0282 8.15211 23.5457 8.08882 23.0685C8.073 22.9345 8.06245 22.7951 8.05191 22.6611C7.99916 22.0553 7.99388 21.5835 8.00444 21.0528C8.01498 20.5864 8.04663 20.1146 8.10464 19.6535C8.1996 18.8762 8.35255 18.1149 8.5741 17.3697C8.9855 15.9812 9.59737 14.6891 10.436 13.5204C11.1375 12.5447 11.9657 11.703 12.9467 11.0222C13.8909 10.3627 14.9142 9.90167 16.0324 9.66046C16.3436 9.59076 16.6548 9.54785 16.9713 9.51569C17.3985 9.47278 17.831 9.47278 18.2583 9.49426C18.5958 9.51031 18.9281 9.55859 19.2604 9.62292C20.0991 9.78912 20.8956 10.0786 21.6551 10.486C22.4041 10.8935 23.0845 11.3975 23.7069 11.9872C24.6405 12.8771 25.3842 13.9064 25.975 15.0537C26.5341 16.1313 26.9297 17.2732 27.1776 18.4634C27.2726 18.9297 27.3464 19.3962 27.3991 19.868C27.4519 20.3666 27.4783 20.8812 27.4783 21.4709ZM16.1115 12.3464C16.0377 12.3464 15.9743 12.341 15.9163 12.3464C15.6368 12.3732 15.3625 12.4268 15.0935 12.5072C14.566 12.6734 14.0913 12.9307 13.6535 13.2684C13.105 13.6866 12.6514 14.2013 12.261 14.7696C11.6914 15.6005 11.2852 16.5065 10.9899 17.4662C10.8316 17.9755 10.7156 18.4902 10.6259 19.0156C10.5732 19.348 10.531 19.6803 10.4993 20.0181C10.4729 20.2861 10.4677 20.5542 10.4571 20.8223C10.4255 21.4656 10.4571 22.1089 10.531 22.7469C10.5837 23.2294 10.6681 23.7065 10.7736 24.1783C10.9899 25.1058 11.3011 25.9957 11.7441 26.8374C12.1133 27.5343 12.5564 28.1723 13.1155 28.7245C13.5639 29.1694 14.0702 29.534 14.6452 29.7913C15.0302 29.9629 15.4258 30.0701 15.8425 30.1183C15.8794 30.1237 15.9163 30.1345 15.948 30.0916C15.9585 30.0326 15.9269 29.9736 15.9058 29.9147C15.5788 28.8102 15.2992 27.6952 15.1304 26.5479C15.0618 26.0869 15.0091 25.6258 14.9933 25.1647C14.9722 24.634 14.9775 24.1032 15.046 23.5725C15.104 23.1221 15.199 22.6826 15.352 22.2537C15.5577 21.68 15.8636 21.1761 16.3014 20.7472C16.4227 20.6293 16.544 20.5059 16.6706 20.388C17.0082 20.0663 17.2614 19.6857 17.4196 19.2407C17.5673 18.8333 17.6411 18.4097 17.6622 17.9755C17.6833 17.5681 17.6517 17.166 17.5937 16.7639C17.5251 16.2707 17.409 15.7828 17.2719 15.3003C16.9871 14.3085 16.5915 13.3542 16.159 12.4214C16.1431 12.4 16.1273 12.3785 16.1115 12.3464ZM19.1339 12.3517C19.1549 12.4107 19.1655 12.4482 19.1813 12.4857C19.2393 12.6144 19.2973 12.743 19.3554 12.8771C19.6771 13.6276 19.9672 14.3835 20.1888 15.1716C20.405 15.949 20.5633 16.7371 20.5844 17.5466C20.5949 18.072 20.558 18.5867 20.4208 19.0959C20.2732 19.6481 20.0253 20.1467 19.6402 20.5703C19.5031 20.7204 19.3554 20.8597 19.2077 20.9991C18.7171 21.4548 18.3796 22.007 18.1791 22.6504C17.9893 23.2615 17.9207 23.8834 17.9049 24.5214C17.8943 25.0146 17.9365 25.5025 17.9893 25.985C18.0473 26.4836 18.1317 26.9767 18.2319 27.4647C18.3638 28.124 18.5325 28.7781 18.7224 29.4214C18.7804 29.6252 18.8437 29.8235 18.907 30.0272C18.9334 30.1077 18.9545 30.1291 19.0284 30.1183C19.2024 30.0969 19.3817 30.0809 19.5505 30.0487C20.1993 29.92 20.7795 29.6359 21.307 29.2445C21.8608 28.8317 22.3197 28.3278 22.7206 27.7648C23.248 27.0197 23.6331 26.1994 23.9285 25.3309C24.1816 24.575 24.3557 23.803 24.4612 23.015C24.5139 22.6075 24.5509 22.2 24.5667 21.7872C24.5825 21.3315 24.5825 20.8705 24.5509 20.4148C24.5245 20.0127 24.4823 19.616 24.4243 19.2193C24.3135 18.4794 24.1394 17.7557 23.8915 17.048C23.6067 16.2278 23.2322 15.4558 22.7417 14.7427C22.3619 14.1906 21.9188 13.6973 21.3914 13.2845C20.8217 12.8396 20.1888 12.5233 19.4767 12.3839C19.3712 12.3678 19.2657 12.3356 19.1339 12.3517Z" fill="#444342" fill-opacity="1.000000" fill-rule="nonzero"/>
		<path id="Vector" d="M19.5452 6.34717C19.5663 6.30432 19.5822 6.27747 19.598 6.25604C19.9567 5.75214 20.347 5.26959 20.769 4.81927C21.1065 4.46008 21.4652 4.12231 21.8503 3.82214C22.1404 3.59692 22.441 3.39325 22.768 3.23242C22.9737 3.13055 23.1847 3.04474 23.4115 3.01257C23.5276 2.99652 23.6489 2.99652 23.7649 3.0072C23.9021 3.01794 24.0181 3.08765 24.1183 3.18414C24.2396 3.30206 24.3293 3.44147 24.3979 3.59692C24.5245 3.86499 24.593 4.14917 24.6405 4.44403C24.7249 4.93719 24.7249 5.43042 24.6985 5.92365C24.6563 6.65277 24.5297 7.36578 24.3504 8.06812C24.2291 8.54523 24.0814 9.01703 23.9179 9.48346C23.8968 9.54242 23.8704 9.59601 23.8493 9.65497C23.786 9.63354 23.7755 9.58527 23.7544 9.54779C23.5487 9.19391 23.3219 8.8562 23.0634 8.53986C22.5834 7.94482 22.0243 7.44086 21.3703 7.0495C20.8428 6.73322 20.2837 6.50269 19.6824 6.39008C19.6613 6.3847 19.6402 6.37933 19.6244 6.37402C19.6085 6.36328 19.5874 6.35791 19.5452 6.34717Z" fill="#444342" fill-opacity="1.000000" fill-rule="nonzero"/>
		<path id="Vector" d="M12.05 8.92053C12.0289 8.87769 12.0078 8.84552 11.9973 8.80798C11.7177 8.14319 11.5067 7.45697 11.3749 6.74396C11.2694 6.15961 11.2325 5.5752 11.2641 4.98016C11.2852 4.57806 11.3538 4.17596 11.512 3.80072C11.5858 3.62378 11.6755 3.45758 11.8021 3.31818C11.9076 3.20563 12.0236 3.1145 12.1766 3.07697C12.2241 3.06622 12.2715 3.06085 12.319 3.05554C12.6408 3.02332 12.9467 3.10376 13.2421 3.22705C13.5374 3.35034 13.8117 3.51123 14.0702 3.69348C14.5343 4.02051 14.951 4.41187 15.3308 4.84076C15.6842 5.23749 15.9954 5.66101 16.2802 6.11133C16.3013 6.14349 16.3172 6.18103 16.3383 6.22931C16.3013 6.24536 16.275 6.26147 16.2433 6.26147C15.1779 6.37402 14.239 6.80292 13.4003 7.47302C12.9309 7.8537 12.5247 8.29327 12.1661 8.78119C12.1397 8.82941 12.1186 8.883 12.05 8.92053Z" fill="#444342" fill-opacity="1.000000" fill-rule="nonzero"/>
	</g>
</svg>
