<svg width="10.000000" height="15.000000" viewBox="0 0 10 15" fill="none" xmlns="http://www.w3.org/2000/svg" xmlns:xlink="http://www.w3.org/1999/xlink">
	<desc>
			Created with Pixso.
	</desc>
	<defs/>
	<path id="Vector" d="M9.32 9.09C9.33 8.95 9.34 8.8 9.34 8.66C9.34 5.51 7.21 2.94 4.6 2.94C1.99 2.94 -0.13 5.51 -0.13 8.66C-0.13 8.83 -0.13 8.99 -0.11 9.16C-0.12 9.17 -0.12 9.17 -0.12 9.18L-0.11 9.19C0.11 12.1 2.14 14.38 4.6 14.38C7.08 14.38 9.11 12.07 9.32 9.15L9.34 9.13C9.34 9.12 9.33 9.11 9.32 9.09ZM4.38 7.76C4.27 7.98 4.15 8.1 4.01 8.23C3.89 8.34 3.76 8.46 3.64 8.65C3.1 9.48 3.13 10.88 3.74 12.81C2.26 12.7 1.08 10.85 1.07 8.58C1.07 8.49 1.07 8.4 1.08 8.31L1.14 8.26C1.13 8.24 1.11 8.21 1.09 8.17C1.14 7.18 1.43 6.27 1.9 5.57C2.41 4.79 3.1 4.36 3.82 4.33C4.56 5.87 4.75 7.02 4.38 7.76ZM5.45 12.78C5.37 12.79 5.27 12.8 5.19 12.81C4.59 10.92 4.53 9.57 5.03 8.8C5.14 8.64 5.25 8.53 5.36 8.42C5.51 8.29 5.65 8.15 5.78 7.89C6.18 7.09 6.01 5.89 5.28 4.33C6.75 4.47 7.91 6.31 7.92 8.56C7.92 10.7 6.86 12.52 5.45 12.78Z" fill="#333333" fill-opacity="1.000000" fill-rule="nonzero"/>
	<path id="Vector" d="M1.84 2.72C1.22 1.31 1.42 0.12 1.84 -0.08C2.22 -0.27 3.2 0.21 3.95 1.42C3.21 1.48 2.52 1.86 2 2.52C1.94 2.59 1.89 2.66 1.84 2.72Z" fill="#333333" fill-opacity="1.000000" fill-rule="nonzero"/>
	<path id="Vector" d="M5.45 1.48C6.31 0.27 7.24 -0.29 7.61 -0.11C8.02 0.08 8.23 1.32 7.56 3.09C7.09 2.22 6.33 1.62 5.45 1.48Z" fill="#333333" fill-opacity="1.000000" fill-rule="nonzero"/>
</svg>
