<svg width="145.997681" height="48.998688" viewBox="0 0 145.998 48.9987" fill="none" xmlns="http://www.w3.org/2000/svg" xmlns:xlink="http://www.w3.org/1999/xlink">
	<desc>
			Created with Pixso.
	</desc>
	<defs/>
	<path id="Vector" d="M63.9571 9.70227C60.8469 4.70212 53.4771 4.76559 51.8509 4.77734C50.1982 4.79147 42.3924 4.8573 39.6893 10.069C37.998 13.3272 39.2026 16.8581 39.2701 17.0462C39.6097 17.9912 40.4482 19.8036 42.3948 21.2212C44.0427 22.4201 45.7171 22.6505 47.8348 22.9678C49.5236 23.2217 50.8583 23.1935 52.1497 23.1653C53.4964 23.1347 54.8672 23.1065 56.5802 22.7586C58.4762 22.3754 60.1819 22.0486 61.8563 20.7816C62.5863 20.2292 64.28 18.9103 65.0148 16.5407C66.0483 13.212 64.3185 10.2806 63.9571 9.70227ZM58.9026 16.4937C58.1895 17.4388 57.2596 17.7702 56.1417 18.1675C54.5203 18.7458 53.1615 18.7693 52.0822 18.7811C50.8969 18.7928 49.5983 18.7905 48.042 18.2521C47.0229 17.8995 46.0086 17.5469 45.2328 16.536C44.9847 16.214 44.2884 15.2126 44.3583 13.835C44.433 12.4081 45.2858 11.4583 45.6544 11.061C47.5288 9.03464 50.4945 9.03934 52.1015 9.04169C53.7397 9.04407 56.5175 9.04877 58.3437 10.9623C58.7123 11.3478 59.5869 12.2905 59.6977 13.7433C59.7169 14.0089 59.7916 15.3136 58.9026 16.4937Z" fill="#DE5922" fill-opacity="1.000000" fill-rule="nonzero"/>
	<path id="Vector" d="M102.027 23.0384L97.8233 23.0384C97.2355 23.0384 96.7584 22.5729 96.7608 21.9993L96.7873 12.1848C96.7897 11.6135 97.2644 11.1504 97.8498 11.1504L101.924 11.1504C102.507 11.1504 102.981 11.6088 102.986 12.1777C103.02 15.45 103.056 18.7223 103.09 21.9922C103.097 22.5682 102.618 23.0384 102.027 23.0384Z" fill="#DE5922" fill-opacity="1.000000" fill-rule="nonzero"/>
	<path id="Vector" d="M102.312 6.40176C102.309 6.39706 102.307 6.39001 102.3 6.38062C102.304 6.30539 102.307 6.22781 102.307 6.15024C102.307 4.46707 101.189 3.09656 99.8133 3.09656C98.4376 3.09656 97.3198 4.46707 97.3198 6.15024C97.3198 6.23956 97.3246 6.32889 97.3294 6.41589C97.327 6.42059 97.3246 6.42529 97.3222 6.42764L97.3294 6.43234C97.4474 7.98386 98.5147 9.20157 99.8109 9.20157C101.114 9.20157 102.186 7.96976 102.295 6.40884L102.312 6.40176Z" fill="#DE5922" fill-opacity="1.000000" fill-rule="nonzero"/>
	<path id="Vector" d="M140.994 23.1465L136.79 23.1465C136.202 23.1465 135.725 22.681 135.727 22.1075L135.754 12.2929C135.756 11.7216 136.231 11.2585 136.816 11.2585L140.89 11.2585C141.473 11.2585 141.948 11.7169 141.953 12.2858C141.986 15.5581 142.023 18.8304 142.056 22.1004C142.063 22.6763 141.586 23.1465 140.994 23.1465Z" fill="#DE5922" fill-opacity="1.000000" fill-rule="nonzero"/>
	<path id="Vector" d="M141.28 6.51224C141.278 6.50754 141.276 6.50049 141.268 6.49109C141.273 6.41586 141.276 6.33829 141.276 6.26071C141.276 4.57755 140.158 3.20703 138.782 3.20703C137.406 3.20703 136.289 4.57755 136.289 6.26071C136.289 6.35004 136.293 6.43936 136.298 6.52637C136.296 6.53107 136.293 6.53577 136.291 6.53812L136.298 6.54282C136.416 8.09433 137.484 9.31204 138.78 9.31204C140.083 9.31204 141.155 8.08023 141.264 6.51932L141.28 6.51224Z" fill="#DE5922" fill-opacity="1.000000" fill-rule="nonzero"/>
	<path id="Vector" d="M108.841 22.2391C108.771 21.0801 110.262 16.5713 110.199 13.6916C110.146 11.2303 108.874 6.12906 108.841 5.71533C108.838 5.69653 108.838 5.67535 108.838 5.67535C108.836 5.56958 108.848 5.30627 109.065 5.11118C109.214 4.97717 109.479 4.909 109.86 4.909L113.372 4.909C113.661 4.909 113.905 4.94662 114.107 5.0242C114.309 5.09943 114.447 5.16995 114.521 5.23343C114.596 5.29688 114.693 5.40973 114.808 5.57663C114.924 5.74118 114.986 5.83286 114.998 5.85168L119.655 12.3563C119.747 12.4833 119.937 12.4833 120.029 12.3563L124.736 5.85168C124.789 5.76706 124.867 5.64951 124.973 5.51785C125.107 5.35095 125.187 5.24988 125.324 5.15347C125.491 5.0383 125.645 4.99362 125.748 4.96542C125.965 4.9043 126.168 4.8996 126.329 4.91135C127.464 4.91135 128.601 4.91135 129.736 4.91135C130.116 4.91135 130.381 4.97952 130.531 5.11353C130.656 5.22635 130.745 5.41678 130.755 5.71768C130.791 6.83902 129.736 11.4842 129.716 13.8373C129.697 16.348 130.822 21.1013 130.755 22.2414C130.747 22.3637 130.747 22.6904 130.504 22.8597C130.335 22.9772 130.08 23.0336 129.733 23.0336L126.327 23.0336C125.98 23.0336 125.724 22.9749 125.558 22.8597C125.329 22.6998 125.315 22.3707 125.307 22.2414C125.279 21.743 125.688 18.3015 126.329 13.6469C126.252 12.8477 125.852 12.2294 125.312 12.086C124.763 11.9426 124.163 12.2646 123.956 12.5585C123.426 13.3084 122.828 14.3169 122.356 15.584C122.065 16.3668 121.879 17.0932 121.761 17.7303C121.694 17.829 121.537 18.0147 121.272 18.1628C121.101 18.2592 120.925 18.3062 120.74 18.3062L118.957 18.3062C118.61 18.3062 118.282 18.1134 117.971 17.7279C117.844 17.0885 117.128 13.6775 115.632 12.6361C115.372 12.455 114.897 12.14 114.413 12.274C113.869 12.4245 113.483 13.0921 113.396 13.976C114.044 18.3579 114.437 21.5855 114.394 22.2391C114.387 22.3542 114.389 22.6857 114.143 22.8573C113.977 22.9749 113.719 23.0313 113.375 23.0313L109.862 23.0313C109.515 23.0313 109.26 22.9725 109.091 22.8573C108.843 22.6834 108.848 22.3472 108.841 22.2391Z" fill="#EE820B" fill-opacity="1.000000" fill-rule="nonzero"/>
	<path id="Vector" d="M69.2164 22.3026C69.1465 21.1436 70.6378 16.6348 70.5752 13.7551C70.5222 11.2938 69.2502 6.19254 69.2164 5.77881C69.214 5.76001 69.214 5.73883 69.214 5.73883C69.2116 5.63306 69.2237 5.36975 69.4405 5.17465C69.5898 5.04065 69.8549 4.97247 70.2355 4.97247L73.7481 4.97247C74.0372 4.97247 74.2805 5.0101 74.4829 5.08768C74.6853 5.1629 74.8226 5.23343 74.8973 5.29691C74.972 5.36035 75.0684 5.47321 75.184 5.64011C75.2997 5.80466 75.3623 5.89633 75.3743 5.91516L80.0313 12.4198C80.1229 12.5468 80.3132 12.5468 80.4048 12.4198L85.1123 5.91516C85.1653 5.83054 85.2424 5.71298 85.3484 5.58133C85.4833 5.41443 85.5628 5.31335 85.7002 5.21695C85.8664 5.10178 86.0206 5.0571 86.1242 5.0289C86.341 4.96777 86.5434 4.96307 86.7048 4.97482C87.8395 4.97482 88.9767 4.97482 90.1114 4.97482C90.4921 4.97482 90.7571 5.043 90.9065 5.177C91.0317 5.28983 91.1209 5.48026 91.1305 5.78116C91.1667 6.9025 90.1114 11.5477 90.0921 13.9008C90.0729 16.4115 91.198 21.1648 91.1305 22.3049C91.1233 22.4272 91.1233 22.7539 90.8799 22.9232C90.7113 23.0407 90.4559 23.0971 90.109 23.0971L86.7024 23.0971C86.3555 23.0971 86.1001 23.0384 85.9339 22.9232C85.705 22.7633 85.6905 22.4342 85.6833 22.3049C85.6544 21.8065 86.064 18.365 86.7048 13.7104C86.6277 12.9111 86.2278 12.2928 85.6881 12.1495C85.1388 12.0061 84.5389 12.3281 84.3318 12.622C83.8017 13.3719 83.2042 14.3804 82.732 15.6475C82.4405 16.4303 82.255 17.1566 82.137 17.7937C82.0695 17.8925 81.9129 18.0782 81.6479 18.2263C81.4768 18.3227 81.301 18.3697 81.1154 18.3697L79.3326 18.3697C78.9857 18.3697 78.6581 18.1769 78.3473 17.7914C78.2196 17.1519 77.5041 13.741 76.008 12.6996C75.7478 12.5185 75.2732 12.2035 74.7889 12.3375C74.2444 12.488 73.8589 13.1556 73.7722 14.0395C74.4203 18.4214 74.813 21.649 74.7696 22.3026C74.7624 22.4177 74.7648 22.7492 74.5191 22.9208C74.3528 23.0384 74.0951 23.0948 73.7505 23.0948L70.2379 23.0948C69.891 23.0948 69.6356 23.036 69.467 22.9208C69.2188 22.7469 69.2236 22.4107 69.2164 22.3026Z" fill="#EE820B" fill-opacity="1.000000" fill-rule="nonzero"/>
	<path id="Vector" d="M80.0482 35.3542C77.545 30.8712 71.51 30.8571 70.1777 30.8547C68.8238 30.8524 62.4321 30.8383 60.1723 35.46C58.7605 38.3491 59.7146 41.5062 59.7675 41.6754C60.0374 42.5217 60.7072 44.1438 62.29 45.425C63.6271 46.5087 64.9979 46.7297 66.7302 47.0329C68.1106 47.2751 69.2044 47.261 70.2621 47.2469C71.3654 47.2327 72.4881 47.2186 73.8951 46.9248C75.4514 46.6004 76.8512 46.3253 78.2341 45.2111C78.8364 44.7245 80.2361 43.5655 80.8577 41.4615C81.7298 38.4995 80.3373 35.8713 80.0482 35.3542ZM75.8466 41.3604C75.2539 42.195 74.4902 42.4818 73.5723 42.8273C72.24 43.3281 71.127 43.3375 70.2428 43.3351C69.2719 43.3351 68.2094 43.321 66.9373 42.8273C66.1062 42.5029 65.2774 42.1809 64.6534 41.2735C64.4535 40.9843 63.8921 40.084 63.962 38.8592C64.0367 37.5898 64.7426 36.7505 65.0461 36.4003C66.6001 34.6113 69.0261 34.6419 70.344 34.6583C71.6859 34.6748 73.9602 34.7054 75.4394 36.4261C75.7382 36.7717 76.4465 37.6227 76.5236 38.918C76.538 39.153 76.5862 40.3167 75.8466 41.3604Z" fill="#DE5922" fill-opacity="1.000000" fill-rule="nonzero"/>
	<path id="Vector" d="M40.8891 39.1954C40.8891 37.9588 41.0963 36.8305 41.5082 35.8102C41.9202 34.79 42.5056 33.9084 43.2669 33.1656C44.0283 32.4227 44.9293 31.8515 45.9773 31.4495C47.0229 31.0475 48.1793 30.8453 49.4466 30.8453C50.6295 30.8453 51.675 30.9652 52.5833 31.2003C53.4916 31.4377 54.2529 31.741 54.8648 32.1124C55.4768 32.4839 55.9417 32.8858 56.2598 33.3184C56.5778 33.7509 56.7344 34.1647 56.7344 34.5549C56.7344 34.8229 56.6717 35.0815 56.544 35.3283C56.4164 35.5751 56.2598 35.7867 56.0694 35.963C55.8791 36.1393 55.6623 36.278 55.4189 36.3815C55.1756 36.4849 54.9275 36.5366 54.6745 36.5366C54.2312 36.5366 53.8602 36.3932 53.5663 36.1041C53.3759 35.9184 53.1639 35.7326 52.9326 35.5469C52.699 35.3612 52.4243 35.1967 52.1087 35.0509C51.7907 34.9075 51.4173 34.7876 50.9836 34.696C50.55 34.6042 50.0368 34.5573 49.4466 34.5573C48.0107 34.5573 46.9121 34.9028 46.1508 35.5939C45.3895 36.2851 45.0088 37.4863 45.0088 39.1954C45.0088 40.9067 45.3895 42.108 46.1508 42.7968C46.9121 43.4879 48.0083 43.8311 49.4466 43.8311C50.0368 43.8311 50.55 43.7841 50.9836 43.6924C51.4173 43.6008 51.7907 43.4809 52.1087 43.3375C52.4267 43.1941 52.699 43.0272 52.9326 42.8415C53.1639 42.6557 53.3759 42.47 53.5663 42.2843C53.8626 41.9951 54.2312 41.8518 54.6745 41.8518C54.9275 41.8518 55.1756 41.9035 55.4189 42.0069C55.6623 42.1104 55.8791 42.2491 56.0694 42.423C56.2598 42.5993 56.4188 42.8038 56.544 43.0413C56.6717 43.2787 56.7344 43.542 56.7344 43.8288C56.7344 44.2214 56.5754 44.6328 56.2598 45.0653C55.9417 45.4979 55.4768 45.8998 54.8648 46.2713C54.2529 46.6427 53.4916 46.946 52.5833 47.1834C51.675 47.4208 50.6295 47.5383 49.4466 47.5383C48.1793 47.5383 47.0229 47.3385 45.9773 46.9365C44.9317 46.5345 44.0283 45.9633 43.2669 45.2205C42.5056 44.4776 41.9202 43.5961 41.5082 42.5758C41.0938 41.5603 40.8891 40.4319 40.8891 39.1954Z" fill="#EE820B" fill-opacity="1.000000" fill-rule="nonzero"/>
	<path id="Vector" d="M84.8377 33.1468C85.1027 33.1468 85.3171 33.1609 85.4785 33.1891C85.64 33.2173 85.8062 33.2408 85.9773 33.2596C86.3362 33.2972 86.5362 33.1209 86.5747 32.7307C86.6326 31.9338 86.8205 31.2074 87.1433 30.5492C87.4662 29.8909 87.9215 29.322 88.5093 28.8401C89.0972 28.3582 89.8344 27.9844 90.7162 27.7141C91.5979 27.4461 92.6291 27.3121 93.8047 27.3121C93.9758 27.3121 94.1276 27.3873 94.2601 27.5354C94.3926 27.6835 94.4962 27.8692 94.5733 28.0902C94.648 28.3112 94.7058 28.5439 94.7444 28.7837C94.7829 29.0258 94.8022 29.228 94.8022 29.3949C94.8022 29.5618 94.7829 29.7522 94.7444 29.9638C94.7058 30.1777 94.6504 30.3752 94.5733 30.5609C94.4962 30.7466 94.3926 30.8994 94.2601 31.0193C94.1276 31.1392 93.9758 31.2003 93.8047 31.2003C92.7037 31.2003 91.9207 31.3672 91.4558 31.701C90.9908 32.0349 90.7113 32.3781 90.615 32.7283C90.5764 32.8764 90.6053 33.0057 90.6993 33.1162C90.7932 33.2267 90.9282 33.2737 91.0968 33.2549C91.3811 33.2173 91.6702 33.1891 91.9666 33.1703C92.2605 33.1515 92.5399 33.1421 92.8073 33.1421C92.9784 33.1421 93.1302 33.2173 93.2627 33.3654C93.3952 33.5135 93.4988 33.6992 93.5759 33.9202C93.653 34.1412 93.7084 34.3739 93.7469 34.6137C93.7855 34.8558 93.8047 35.058 93.8047 35.2249C93.8047 35.3918 93.7855 35.5963 93.7469 35.8361C93.7084 36.0782 93.653 36.3086 93.5759 36.5296C93.4988 36.7505 93.3952 36.9386 93.2627 37.0844C93.1302 37.2325 92.9784 37.3053 92.8073 37.3053C92.5423 37.3053 92.2605 37.2959 91.9666 37.2771C91.6726 37.2583 91.3835 37.2325 91.0968 37.1949C90.9258 37.1761 90.7885 37.2184 90.6848 37.3195C90.5812 37.4205 90.5283 37.5545 90.5283 37.7214C90.5283 38.4079 90.5379 39.1531 90.5572 39.9594C90.5764 40.7657 90.5957 41.5579 90.615 42.336C90.6342 43.1142 90.6487 43.8546 90.6583 44.5576C90.668 45.2628 90.6728 45.8552 90.6728 46.3347C90.6728 46.5204 90.5957 46.6732 90.4439 46.7932C90.2921 46.9131 90.1018 47.0118 89.8753 47.0847C89.6465 47.1599 89.4104 47.2139 89.1622 47.2516C88.9165 47.2892 88.7069 47.308 88.5358 47.308C88.3648 47.308 88.1552 47.2892 87.9095 47.2516C87.6637 47.2139 87.4252 47.1599 87.1987 47.0847C86.9698 47.0118 86.7795 46.9131 86.6302 46.7932C86.4784 46.6732 86.4013 46.5204 86.4013 46.3347C86.4013 45.8528 86.4061 45.2604 86.4157 44.5576C86.4254 43.8546 86.4398 43.1142 86.4591 42.336C86.4784 41.5579 86.4977 40.7657 86.5169 39.9594C86.5362 39.1531 86.5458 38.4079 86.5458 37.7214C86.5458 37.5545 86.4928 37.4205 86.3892 37.3195C86.2856 37.2184 86.1483 37.1761 85.9773 37.1949C85.7869 37.2137 85.6111 37.2372 85.4496 37.263C85.2882 37.2912 85.0835 37.3053 84.8377 37.3053C84.6667 37.3053 84.5149 37.2325 84.3824 37.0844C84.2499 36.9362 84.1439 36.7505 84.0692 36.5296C83.9921 36.3062 83.9367 36.0759 83.8981 35.8361C83.8596 35.5963 83.8403 35.3918 83.8403 35.2249C83.8403 35.058 83.8596 34.8558 83.8981 34.6137C83.9367 34.3739 83.9921 34.1412 84.0692 33.9202C84.1463 33.6969 84.2499 33.5135 84.3824 33.3654C84.5149 33.222 84.6667 33.1468 84.8377 33.1468Z" fill="#EE820B" fill-opacity="1.000000" fill-rule="nonzero"/>
	<path id="Vector" d="M97.8257 33.1468C98.0907 33.1468 98.3051 33.1609 98.4665 33.1891C98.6279 33.2173 98.7942 33.2408 98.9652 33.2596C99.3242 33.2972 99.5242 33.1209 99.5627 32.7307C99.6205 31.9338 99.8085 31.2074 100.131 30.5492C100.454 29.8909 100.909 29.322 101.497 28.8401C102.085 28.3582 102.822 27.9844 103.704 27.7141C104.586 27.4461 105.617 27.3121 106.793 27.3121C106.964 27.3121 107.116 27.3873 107.248 27.5354C107.381 27.6835 107.484 27.8692 107.561 28.0902C107.636 28.3112 107.694 28.5439 107.732 28.7837C107.771 29.0258 107.79 29.228 107.79 29.3949C107.79 29.5618 107.771 29.7522 107.732 29.9638C107.694 30.1777 107.638 30.3752 107.561 30.5609C107.484 30.7466 107.381 30.8994 107.248 31.0193C107.116 31.1392 106.964 31.2003 106.793 31.2003C105.692 31.2003 104.909 31.3672 104.444 31.701C103.979 32.0349 103.699 32.3781 103.603 32.7283C103.564 32.8764 103.593 33.0057 103.687 33.1162C103.781 33.2267 103.916 33.2737 104.085 33.2549C104.369 33.2173 104.658 33.1891 104.955 33.1703C105.248 33.1515 105.528 33.1421 105.795 33.1421C105.966 33.1421 106.118 33.2173 106.251 33.3654C106.383 33.5135 106.487 33.6992 106.564 33.9202C106.641 34.1412 106.696 34.3739 106.735 34.6137C106.773 34.8558 106.793 35.058 106.793 35.2249C106.793 35.3918 106.773 35.5963 106.735 35.8361C106.696 36.0782 106.641 36.3086 106.564 36.5296C106.487 36.7505 106.383 36.9363 106.251 37.0844C106.118 37.2325 105.966 37.3053 105.795 37.3053C105.53 37.3053 105.248 37.2959 104.955 37.2771C104.661 37.2583 104.371 37.2301 104.085 37.1925C103.914 37.1737 103.776 37.216 103.673 37.3171C103.569 37.4182 103.516 37.5522 103.516 37.7191C103.516 38.4032 103.526 39.1507 103.545 39.9547C103.564 40.761 103.584 41.5532 103.603 42.3314C103.622 43.1095 103.637 43.8499 103.646 44.5552C103.656 45.2604 103.661 45.8528 103.661 46.3324C103.661 46.5181 103.584 46.6709 103.432 46.7908C103.28 46.9107 103.09 47.0094 102.863 47.0823C102.637 47.1552 102.398 47.2116 102.15 47.2492C101.902 47.2868 101.695 47.3056 101.524 47.3056C101.353 47.3056 101.143 47.2868 100.897 47.2492C100.652 47.2116 100.413 47.1575 100.187 47.0823C99.9602 47.0071 99.7675 46.9107 99.6181 46.7908C99.4664 46.6709 99.3893 46.5181 99.3893 46.3324C99.3893 45.8505 99.3941 45.2581 99.4037 44.5552C99.4133 43.8523 99.4278 43.1118 99.4471 42.3314C99.4664 41.5532 99.4856 40.761 99.5049 39.9547C99.5242 39.1484 99.5338 38.4032 99.5338 37.7191C99.5338 37.5522 99.4808 37.4182 99.3772 37.3171C99.2736 37.216 99.1363 37.1737 98.9652 37.1925C98.7749 37.2113 98.599 37.2348 98.4376 37.263C98.2762 37.2912 98.0714 37.3053 97.8257 37.3053C97.6546 37.3053 97.5029 37.2325 97.3703 37.0844C97.2378 36.9363 97.1318 36.7505 97.0571 36.5296C96.9825 36.3086 96.9246 36.0759 96.8861 35.8361C96.8475 35.5963 96.8283 35.3918 96.8283 35.2249C96.8283 35.058 96.8475 34.8558 96.8861 34.6137C96.9246 34.3739 96.9801 34.1412 97.0571 33.9202C97.1342 33.6992 97.2378 33.5135 97.3703 33.3654C97.5029 33.222 97.6546 33.1468 97.8257 33.1468Z" fill="#DE5922" fill-opacity="1.000000" fill-rule="nonzero"/>
	<path id="Vector" d="M138.329 30.85C139.394 30.85 140.389 30.984 141.319 31.2544C142.247 31.5224 143.056 31.8867 143.745 32.3452C144.434 32.8036 144.981 33.3513 145.388 33.9883C145.795 34.6254 145.998 35.3236 145.998 36.0806C145.998 37.0185 145.795 37.799 145.388 38.4267C144.981 39.0543 144.434 39.5621 143.745 39.9523C143.056 40.3402 142.247 40.6152 141.319 40.7751C140.389 40.935 139.394 41.0149 138.329 41.0149C137.556 41.0149 136.852 40.9655 136.216 40.8644C135.58 40.7657 135.074 40.6646 134.699 40.5659C134.489 40.5259 134.34 40.5518 134.246 40.6411C134.152 40.7304 134.125 40.855 134.169 41.0149C134.231 41.2547 134.347 41.5132 134.513 41.793C134.679 42.0728 134.92 42.3313 135.233 42.5711C135.547 42.8109 135.954 43.0107 136.455 43.1682C136.956 43.3281 137.582 43.408 138.334 43.408C138.919 43.408 139.425 43.3633 139.852 43.274C140.278 43.1847 140.649 43.0695 140.962 42.9308C141.276 42.7921 141.545 42.6322 141.777 42.4512C142.006 42.2726 142.215 42.0916 142.403 41.9129C142.695 41.6331 143.061 41.4944 143.499 41.4944C143.75 41.4944 143.996 41.5438 144.234 41.6449C144.475 41.7436 144.689 41.88 144.877 42.0492C145.065 42.2185 145.222 42.4183 145.347 42.6463C145.472 42.8767 145.535 43.1306 145.535 43.408C145.535 43.7865 145.379 44.1861 145.065 44.6046C144.752 45.023 144.292 45.4109 143.687 45.7705C143.083 46.1302 142.331 46.4241 141.432 46.6521C140.534 46.8801 139.502 46.9953 138.332 46.9953C137.038 46.9953 135.869 46.8002 134.826 46.4123C133.783 46.0244 132.896 45.4696 132.166 44.7527C131.436 44.0356 130.873 43.1823 130.475 42.1973C130.078 41.21 129.88 40.1192 129.88 38.925C129.88 37.7285 130.078 36.6377 130.475 35.6504C130.87 34.663 131.434 33.812 132.166 33.0951C132.896 32.3781 133.783 31.8256 134.826 31.4354C135.867 31.0452 137.035 30.85 138.329 30.85ZM134.699 37.2771C135.096 37.3571 135.626 37.4511 136.296 37.5616C136.963 37.6721 137.643 37.7261 138.332 37.7261C139.356 37.7261 140.211 37.5827 140.9 37.2936C141.589 37.0044 141.933 36.6024 141.933 36.0829C141.933 35.5657 141.589 35.1614 140.9 34.8723C140.211 34.5831 139.356 34.4397 138.332 34.4397C137.621 34.4397 137.016 34.5102 136.515 34.6489C136.014 34.7876 135.602 34.9616 135.279 35.1732C134.956 35.3824 134.711 35.6057 134.544 35.8455C134.378 36.0853 134.262 36.3133 134.2 36.5319C134.156 36.6918 134.183 36.8469 134.277 36.995C134.371 37.1431 134.511 37.2372 134.699 37.2771Z" fill="#DE5922" fill-opacity="1.000000" fill-rule="nonzero"/>
	<path id="Vector" d="M119.253 30.8947C120.323 30.8947 121.323 31.0287 122.257 31.299C123.19 31.5694 124.004 31.9338 124.696 32.3945C125.387 32.8553 125.939 33.4054 126.346 34.0471C126.755 34.6889 126.96 35.3894 126.96 36.1487C126.96 37.0891 126.755 37.8766 126.346 38.5066C125.936 39.1366 125.387 39.6467 124.696 40.0393C124.004 40.4295 123.19 40.7046 122.257 40.8644C121.325 41.0243 120.323 41.1042 119.253 41.1042C118.477 41.1042 117.769 41.0549 117.131 40.9538C116.49 40.855 115.984 40.754 115.606 40.6529C115.396 40.6129 115.244 40.6388 115.15 40.7281C115.056 40.8174 115.03 40.9444 115.071 41.1042C115.133 41.344 115.249 41.6049 115.418 41.8847C115.586 42.1644 115.827 42.4254 116.14 42.6652C116.454 42.9049 116.863 43.1071 117.367 43.2646C117.87 43.4245 118.499 43.5044 119.253 43.5044C119.841 43.5044 120.349 43.4597 120.778 43.368C121.207 43.2764 121.58 43.1635 121.894 43.0225C122.209 42.8814 122.481 42.7216 122.71 42.5429C122.942 42.3619 123.151 42.1832 123.339 42.0022C123.633 41.7225 123.999 41.5814 124.44 41.5814C124.691 41.5814 124.939 41.6308 125.18 41.7319C125.421 41.833 125.635 41.967 125.825 42.1362C126.013 42.3078 126.172 42.5077 126.298 42.7357C126.423 42.9661 126.486 43.2223 126.486 43.502C126.486 43.8829 126.329 44.2825 126.013 44.7033C125.698 45.1241 125.238 45.5143 124.628 45.874C124.019 46.2337 123.264 46.5298 122.363 46.7603C121.462 46.9906 120.424 47.1058 119.251 47.1058C117.95 47.1058 116.776 46.9107 115.728 46.5204C114.68 46.1302 113.789 45.5731 113.054 44.8537C112.319 44.132 111.753 43.2764 111.356 42.2867C110.958 41.297 110.758 40.1992 110.758 38.9979C110.758 37.7967 110.958 36.7012 111.356 35.7091C111.753 34.7171 112.319 33.8614 113.054 33.1421C113.787 32.4204 114.678 31.8656 115.728 31.4754C116.779 31.0898 117.952 30.8947 119.253 30.8947ZM115.603 37.3524C116.001 37.4323 116.536 37.5287 117.208 37.6368C117.877 37.7473 118.559 37.8014 119.253 37.8014C120.279 37.8014 121.14 37.6556 121.831 37.3665C122.522 37.0773 122.869 36.6706 122.869 36.1511C122.869 35.6316 122.522 35.2249 121.831 34.9357C121.14 34.6466 120.279 34.5008 119.253 34.5008C118.54 34.5008 117.933 34.5714 117.429 34.7101C116.926 34.8511 116.511 35.0251 116.186 35.2366C115.861 35.4459 115.615 35.6715 115.447 35.9113C115.278 36.1511 115.162 36.3815 115.1 36.6024C115.056 36.7623 115.085 36.9174 115.179 37.0679C115.273 37.216 115.415 37.3124 115.603 37.3524Z" fill="#EE820B" fill-opacity="1.000000" fill-rule="nonzero"/>
	<path id="Vector" d="M32.7267 29.7899C32.6906 30.4434 32.693 31.2074 32.6159 31.9691C32.3581 34.5079 31.7028 36.9457 30.5825 39.2565C29.6935 41.0901 28.5564 42.7615 27.1277 44.2379C25.9159 45.4885 24.5475 46.5393 22.9911 47.3574C21.6323 48.072 20.1916 48.5656 18.669 48.8195C17.9824 48.9347 17.2885 49.0052 16.5899 48.9982C16.3369 48.9958 16.0839 49.0005 15.8334 48.9935C14.2963 48.9465 12.8146 48.6362 11.3812 48.0978C9.58151 47.4185 7.98419 46.4217 6.55795 45.1594C4.98233 43.763 3.71027 42.1362 2.69119 40.3144C1.69617 38.5348 0.992706 36.6518 0.544586 34.6748C0.371124 33.9108 0.24826 33.1397 0.147064 32.364C0.118164 32.1454 0.103699 31.9244 0.0844116 31.7034C-0.00231934 30.7231 -0.00952148 29.9638 0.00732422 29.1105C0.0217896 28.3535 0.0820312 27.6013 0.178375 26.849C0.337402 25.5984 0.597595 24.3713 0.968597 23.1653C1.65762 20.925 2.68396 18.8445 4.10056 16.9545C5.27625 15.3842 6.66876 14.0254 8.31668 12.9229C9.89951 11.8627 11.6245 11.1175 13.5013 10.7225C14.0193 10.6144 14.5445 10.5415 15.0745 10.4898C15.7972 10.4193 16.5176 10.424 17.2404 10.4569C17.8065 10.4828 18.3679 10.558 18.922 10.6638C20.3338 10.9294 21.6733 11.3949 22.9405 12.0555C24.2005 12.7113 25.3449 13.5247 26.3833 14.4791C27.9468 15.9131 29.202 17.5751 30.1971 19.4252C31.1318 21.1648 31.7968 23.0008 32.2135 24.9237C32.375 25.6713 32.4978 26.4259 32.5822 27.1852C32.6785 28.015 32.7267 28.8448 32.7267 29.7899ZM13.6266 15.0762C13.5037 15.0762 13.4001 15.0668 13.2965 15.0786C12.8291 15.1256 12.3665 15.2055 11.916 15.3419C11.0318 15.6052 10.232 16.0259 9.49478 16.569C8.57687 17.246 7.81314 18.0688 7.15543 18.9879C6.20139 20.3232 5.51477 21.7854 5.02087 23.3369C4.75827 24.1573 4.55591 24.9919 4.41376 25.8382C4.32462 26.3741 4.25476 26.9148 4.19934 27.4555C4.15598 27.8857 4.15115 28.3206 4.12949 28.7531C4.07889 29.7922 4.13431 30.8265 4.25235 31.8586C4.34149 32.6343 4.47882 33.4054 4.6619 34.1647C5.02328 35.6598 5.54849 37.0961 6.29535 38.4502C6.91452 39.5715 7.66379 40.6012 8.60095 41.4921C9.35745 42.2091 10.2007 42.8015 11.1692 43.2152C11.8124 43.4903 12.4822 43.6619 13.1784 43.7465C13.2363 43.7536 13.3013 43.77 13.3519 43.6995C13.3664 43.6031 13.3134 43.5091 13.2845 43.4151C12.7327 41.6331 12.2678 39.8325 11.9859 37.9894C11.8727 37.2489 11.7859 36.5061 11.7546 35.7609C11.7185 34.9028 11.7257 34.0448 11.8389 33.1915C11.9353 32.4651 12.0919 31.7528 12.3545 31.064C12.7038 30.1425 13.217 29.3221 13.9445 28.638C14.1518 28.4428 14.3565 28.2454 14.5661 28.055C15.1347 27.5331 15.5539 26.9195 15.8261 26.2025C16.0767 25.542 16.1948 24.8579 16.2309 24.1597C16.2646 23.5038 16.214 22.8503 16.1177 22.2038C15.9972 21.4046 15.8117 20.6194 15.578 19.8436C15.0962 18.2427 14.4384 16.7077 13.7036 15.2032C13.6844 15.1609 13.6579 15.1279 13.6266 15.0762ZM18.7027 15.0856C18.7365 15.1797 18.7557 15.2431 18.7822 15.3043C18.8786 15.5135 18.9774 15.7203 19.0738 15.9319C19.6158 17.1379 20.1001 18.365 20.4711 19.6344C20.8373 20.8874 21.0999 22.1592 21.1336 23.4686C21.1553 24.3148 21.0903 25.1494 20.859 25.9675C20.6084 26.8584 20.1964 27.6647 19.546 28.3441C19.3147 28.5862 19.0689 28.8143 18.8184 29.0399C17.9969 29.7758 17.4283 30.662 17.091 31.6987C16.773 32.679 16.6549 33.6898 16.6357 34.7124C16.6212 35.5046 16.6862 36.2898 16.7802 37.0773C16.8741 37.8789 17.0163 38.6735 17.1825 39.4634C17.4066 40.5283 17.6909 41.5791 18.0041 42.6228C18.1004 42.9496 18.2065 43.2717 18.3124 43.5961C18.3534 43.7254 18.3968 43.7559 18.5196 43.7418C18.8136 43.7089 19.1099 43.683 19.399 43.629C20.4855 43.4221 21.4589 42.9661 22.3503 42.3314C23.2802 41.6684 24.056 40.855 24.7233 39.9453C25.6051 38.7393 26.2604 37.4205 26.7543 36.0242C27.1831 34.8088 27.4771 33.5605 27.6529 32.2864C27.7445 31.6282 27.8071 30.9699 27.8336 30.307C27.8625 29.5689 27.8601 28.8284 27.8071 28.0902C27.7613 27.4461 27.6939 26.8044 27.5951 26.1649C27.4096 24.9684 27.1157 23.8 26.7013 22.6599C26.2219 21.3387 25.5955 20.0928 24.7667 18.9456C24.1259 18.057 23.3862 17.2601 22.502 16.5972C21.5408 15.8778 20.4831 15.3654 19.2858 15.1468C19.1051 15.1115 18.9268 15.0621 18.7027 15.0856Z" fill="#DE5922" fill-opacity="1.000000" fill-rule="nonzero"/>
	<path id="Vector" d="M19.3966 5.40268C19.4351 5.33685 19.4544 5.29221 19.4833 5.25223C20.0856 4.43884 20.7385 3.66544 21.4468 2.93906C22.013 2.36075 22.6129 1.82007 23.2633 1.33112C23.7476 0.966736 24.2535 0.639954 24.8052 0.379028C25.1522 0.216827 25.5087 0.0757751 25.8894 0.0240479C26.0845 -0.00415039 26.2893 -0.00650024 26.4868 0.0122986C26.7181 0.0334473 26.9157 0.143951 27.0843 0.301453C27.2891 0.491882 27.4385 0.71991 27.559 0.966736C27.7661 1.40161 27.8842 1.8624 27.9661 2.3302C28.1058 3.12241 28.1082 3.92169 28.0601 4.7186C27.9902 5.88928 27.7782 7.0412 27.4794 8.17899C27.2747 8.95239 27.0265 9.7117 26.7567 10.464C26.723 10.558 26.6796 10.6473 26.6386 10.7413C26.535 10.7108 26.5182 10.6285 26.4796 10.565C26.1351 9.99377 25.7496 9.44839 25.316 8.93591C24.5065 7.97681 23.5669 7.16107 22.4683 6.53107C21.5841 6.02328 20.6469 5.64951 19.6327 5.46616C19.5989 5.45911 19.5652 5.44971 19.5315 5.44031C19.5002 5.43088 19.4664 5.42148 19.3966 5.40268Z" fill="#EE820B" fill-opacity="1.000000" fill-rule="nonzero"/>
	<path id="Vector" d="M6.80127 9.55185C6.76273 9.47897 6.73138 9.42725 6.70972 9.37317C6.24716 8.29651 5.89542 7.1893 5.67377 6.04211C5.49307 5.10178 5.43042 4.15442 5.48343 3.20233C5.51956 2.54883 5.64001 1.90469 5.90024 1.29349C6.0231 1.00903 6.17487 0.743408 6.39169 0.517731C6.56757 0.334381 6.76755 0.188629 7.02292 0.132202C7.0976 0.115753 7.17709 0.104004 7.25418 0.094574C7.79868 0.0452271 8.30701 0.17215 8.80331 0.374329C9.2948 0.574158 9.75735 0.830383 10.1934 1.12659C10.9764 1.65787 11.6751 2.28082 12.3135 2.97195C12.9038 3.61139 13.4314 4.29547 13.9108 5.0195C13.947 5.07358 13.9734 5.1347 14.012 5.20993C13.9494 5.23343 13.9036 5.25928 13.8554 5.26398C12.063 5.44501 10.4873 6.13379 9.08276 7.2175C8.29257 7.8287 7.61075 8.54099 7.01328 9.33087C6.96027 9.40375 6.9169 9.49072 6.80127 9.55185Z" fill="#EE820B" fill-opacity="1.000000" fill-rule="nonzero"/>
</svg>
