<svg width="128.000000" height="48.000000" viewBox="0 0 128 48" fill="none" xmlns="http://www.w3.org/2000/svg" xmlns:xlink="http://www.w3.org/1999/xlink">
	<desc>
			Created with Pixso.
	</desc>
	<defs/>
	<path id="Vector" d="M71.58 32.46C69.45 28.69 64.28 28.67 63.14 28.67C61.98 28.67 56.52 28.66 54.59 32.55C53.37 34.98 54.2 37.64 54.24 37.77C54.47 38.49 55.05 39.85 56.4 40.93C57.54 41.84 58.71 42.02 60.19 42.28C61.37 42.48 62.31 42.47 63.22 42.46C64.16 42.45 65.12 42.44 66.32 42.19C67.65 41.92 68.85 41.69 70.03 40.75C70.55 40.34 71.75 39.36 72.28 37.6C73.02 35.1 71.83 32.89 71.58 32.46ZM67.99 37.51C67.48 38.21 66.83 38.45 66.05 38.75C64.91 39.17 63.95 39.17 63.2 39.17C62.37 39.17 61.46 39.16 60.38 38.75C59.67 38.47 58.96 38.2 58.42 37.44C58.25 37.2 57.77 36.44 57.83 35.41C57.89 34.34 58.49 33.63 58.76 33.34C60.09 31.83 62.16 31.85 63.29 31.87C64.43 31.88 66.38 31.91 67.65 33.36C67.9 33.65 68.51 34.36 68.58 35.45C68.58 35.65 68.62 36.63 67.99 37.51Z" fill="#EF5924" fill-opacity="1.000000" fill-rule="nonzero"/>
	<path id="Vector" d="M59.19 9.91C56.55 5.73 50.3 5.79 48.92 5.79C47.52 5.81 40.9 5.86 38.61 10.21C37.17 12.93 38.2 15.88 38.25 16.04C38.54 16.83 39.25 18.34 40.9 19.52C42.3 20.52 43.72 20.72 45.52 20.99C46.95 21.2 48.08 21.18 49.18 21.15C50.32 21.12 51.48 21.1 52.94 20.81C54.54 20.49 55.99 20.22 57.41 19.16C58.03 18.7 59.46 17.59 60.09 15.62C60.97 12.84 59.5 10.4 59.19 9.91ZM54.9 15.58C54.3 16.36 53.51 16.64 52.56 16.98C51.19 17.46 50.03 17.48 49.12 17.49C48.11 17.49 47.01 17.49 45.69 17.04C44.83 16.75 43.97 16.45 43.31 15.61C43.1 15.34 42.51 14.5 42.56 13.35C42.63 12.16 43.35 11.37 43.66 11.04C45.25 9.34 47.77 9.35 49.13 9.35C50.51 9.35 52.87 9.36 54.42 10.95C54.73 11.27 55.48 12.06 55.57 13.28C55.6 13.5 55.66 14.6 54.9 15.58Z" fill="#EF5924" fill-opacity="1.000000" fill-rule="nonzero"/>
	<path id="Vector" d="M91.48 21.04L87.92 21.04C87.42 21.04 87.01 20.65 87.02 20.17L87.04 11.98C87.04 11.5 87.44 11.12 87.94 11.12L91.39 11.12C91.89 11.12 92.29 11.5 92.29 11.97C92.32 14.71 92.35 17.44 92.38 20.16C92.4 20.65 91.99 21.04 91.48 21.04Z" fill="#EF5924" fill-opacity="1.000000" fill-rule="nonzero"/>
	<path id="Vector" d="M91.73 7.15C91.73 7.15 91.73 7.15 91.73 7.13C91.73 7.07 91.73 7 91.73 6.94C91.73 5.54 90.78 4.39 89.62 4.39C88.45 4.39 87.5 5.54 87.5 6.94C87.5 7.02 87.5 7.09 87.51 7.17C87.51 7.17 87.5 7.17 87.5 7.18L87.51 7.19C87.61 8.48 88.51 9.5 89.61 9.5C90.71 9.5 91.63 8.47 91.72 7.17L91.73 7.15Z" fill="#EF5924" fill-opacity="1.000000" fill-rule="nonzero"/>
	<path id="Vector" d="M125.93 20.99L122.36 20.99C121.86 20.99 121.45 20.6 121.46 20.12L121.48 11.93C121.48 11.45 121.89 11.06 122.38 11.06L125.84 11.06C126.33 11.06 126.74 11.44 126.74 11.92C126.76 14.65 126.79 17.38 126.82 20.11C126.83 20.59 126.43 20.99 125.93 20.99Z" fill="#EF5924" fill-opacity="1.000000" fill-rule="nonzero"/>
	<path id="Vector" d="M126.17 7.1C126.17 7.09 126.16 7.09 126.16 7.08C126.17 7.02 126.17 6.95 126.17 6.89C126.17 5.48 125.22 4.34 124.05 4.34C122.88 4.34 121.94 5.48 121.94 6.89C121.94 6.96 121.94 7.04 121.94 7.11C121.94 7.12 121.94 7.12 121.94 7.13L121.94 7.13C122.04 8.42 122.95 9.44 124.04 9.44C125.15 9.44 126.06 8.42 126.15 7.11L126.17 7.1Z" fill="#EF5924" fill-opacity="1.000000" fill-rule="nonzero"/>
	<path id="Vector" d="M97.27 20.37C97.21 19.41 98.47 15.64 98.42 13.24C98.38 11.19 97.3 6.93 97.27 6.58C97.27 6.57 97.27 6.55 97.27 6.55C97.27 6.46 97.28 6.24 97.46 6.08C97.59 5.97 97.81 5.91 98.13 5.91L101.11 5.91C101.36 5.91 101.57 5.94 101.74 6.01C101.91 6.07 102.03 6.13 102.09 6.18C102.15 6.24 102.23 6.33 102.33 6.47C102.43 6.6 102.48 6.69 102.49 6.7L106.44 12.13C106.52 12.24 106.69 12.24 106.76 12.13L110.76 6.7C110.8 6.63 110.87 6.53 110.95 6.42C111.07 6.28 111.14 6.2 111.25 6.11C111.39 6.02 111.52 5.98 111.61 5.96C111.8 5.91 111.97 5.9 112.1 5.91C113.06 5.91 114.03 5.91 114.99 5.91C115.32 5.91 115.54 5.96 115.66 6.08C115.77 6.18 115.85 6.33 115.85 6.58C115.88 7.52 114.99 11.4 114.98 13.36C114.96 15.45 115.92 19.42 115.85 20.37C115.85 20.48 115.85 20.75 115.64 20.89C115.5 20.99 115.28 21.03 114.99 21.03L112.1 21.03C111.81 21.03 111.59 20.99 111.45 20.89C111.26 20.75 111.24 20.48 111.24 20.37C111.21 19.96 111.56 17.08 112.1 13.2C112.04 12.54 111.7 12.02 111.24 11.9C110.77 11.78 110.26 12.05 110.08 12.29C109.64 12.92 109.13 13.76 108.72 14.81C108.48 15.47 108.32 16.07 108.22 16.6C108.17 16.68 108.03 16.84 107.8 16.96C107.66 17.04 107.51 17.08 107.35 17.08L105.84 17.08C105.55 17.08 105.27 16.92 105.01 16.6C104.9 16.06 104.29 13.22 103.03 12.35C102.81 12.2 102.4 11.94 101.99 12.05C101.53 12.17 101.21 12.73 101.13 13.47C101.68 17.13 102.01 19.82 101.97 20.37C101.96 20.46 101.96 20.74 101.76 20.88C101.62 20.98 101.4 21.03 101.11 21.03L98.13 21.03C97.84 21.03 97.62 20.98 97.47 20.88C97.27 20.74 97.28 20.46 97.27 20.37Z" fill="#EF5924" fill-opacity="1.000000" fill-rule="nonzero"/>
	<path id="Vector" d="M63.65 20.43C63.6 19.46 64.86 15.7 64.81 13.3C64.77 11.25 63.68 6.98 63.65 6.64C63.65 6.62 63.65 6.6 63.65 6.6C63.65 6.52 63.66 6.3 63.85 6.13C63.97 6.03 64.2 5.96 64.52 5.96L67.5 5.96C67.75 5.96 67.95 6 68.12 6.06C68.29 6.12 68.41 6.18 68.48 6.24C68.54 6.29 68.62 6.39 68.72 6.52C68.82 6.66 68.87 6.74 68.88 6.75L72.83 12.18C72.91 12.29 73.07 12.29 73.15 12.18L77.14 6.75C77.18 6.69 77.25 6.58 77.34 6.47C77.45 6.33 77.52 6.25 77.64 6.17C77.78 6.07 77.91 6.03 78 6.01C78.18 5.96 78.35 5.96 78.49 5.96C79.45 5.96 80.41 5.96 81.38 5.96C81.7 5.96 81.92 6.02 82.05 6.13C82.15 6.23 82.23 6.39 82.24 6.64C82.27 7.58 81.38 11.45 81.36 13.41C81.35 15.51 82.3 19.48 82.24 20.43C82.23 20.53 82.23 20.8 82.03 20.94C81.88 21.04 81.67 21.09 81.38 21.09L78.49 21.09C78.2 21.09 77.98 21.04 77.84 20.94C77.64 20.81 77.63 20.54 77.62 20.43C77.59 20.01 77.95 17.14 78.49 13.26C78.42 12.59 78.08 12.08 77.62 11.95C77.16 11.83 76.65 12.1 76.47 12.35C76.02 12.97 75.51 13.81 75.11 14.87C74.86 15.52 74.71 16.13 74.61 16.66C74.55 16.74 74.42 16.89 74.19 17.02C74.05 17.1 73.89 17.14 73.74 17.14L72.23 17.14C71.94 17.14 71.65 16.98 71.39 16.66C71.29 16.12 70.68 13.28 69.41 12.41C69.19 12.26 68.79 11.99 68.38 12.1C67.92 12.22 67.59 12.79 67.51 13.52C68.07 17.18 68.4 19.87 68.36 20.42C68.35 20.52 68.35 20.8 68.14 20.94C68 21.03 67.78 21.08 67.49 21.08L64.51 21.08C64.22 21.08 64 21.03 63.86 20.94C63.66 20.8 63.66 20.52 63.65 20.43Z" fill="#EF5924" fill-opacity="1.000000" fill-rule="nonzero"/>
	<path id="Vector" d="M38.1 35.69C38.1 34.65 38.27 33.7 38.63 32.84C38.98 31.98 39.48 31.24 40.13 30.62C40.78 29.99 41.55 29.51 42.44 29.18C43.34 28.84 44.33 28.67 45.41 28.67C46.42 28.67 47.31 28.77 48.09 28.97C48.87 29.16 49.52 29.42 50.05 29.73C50.57 30.05 50.97 30.39 51.24 30.75C51.51 31.11 51.64 31.46 51.64 31.79C51.64 32.01 51.58 32.23 51.48 32.44C51.37 32.65 51.24 32.83 51.07 32.97C50.91 33.12 50.73 33.23 50.52 33.32C50.32 33.41 50.1 33.45 49.88 33.45C49.5 33.45 49.19 33.33 48.94 33.08C48.77 32.93 48.59 32.77 48.39 32.61C48.19 32.46 47.96 32.32 47.68 32.2C47.41 32.08 47.09 31.98 46.72 31.9C46.35 31.83 45.91 31.79 45.4 31.79C44.17 31.79 43.24 32.08 42.59 32.66C41.93 33.24 41.61 34.25 41.61 35.69C41.61 37.13 41.93 38.14 42.59 38.72C43.24 39.3 44.18 39.59 45.4 39.59C45.91 39.59 46.34 39.55 46.72 39.47C47.09 39.4 47.41 39.3 47.68 39.17C47.95 39.05 48.19 38.92 48.39 38.76C48.59 38.6 48.77 38.45 48.94 38.29C49.19 38.05 49.5 37.92 49.88 37.92C50.1 37.92 50.32 37.96 50.52 38.05C50.73 38.14 50.91 38.26 51.07 38.41C51.24 38.56 51.37 38.73 51.48 38.93C51.58 39.13 51.64 39.35 51.64 39.6C51.64 39.93 51.51 40.27 51.24 40.64C50.97 41 50.57 41.34 50.05 41.65C49.52 41.96 48.87 42.22 48.09 42.42C47.31 42.61 46.42 42.71 45.41 42.71C44.33 42.71 43.34 42.54 42.44 42.21C41.55 41.87 40.78 41.38 40.13 40.76C39.48 40.14 38.97 39.4 38.63 38.54C38.27 37.68 38.1 36.73 38.1 35.69Z" fill="#EF5924" fill-opacity="1.000000" fill-rule="nonzero"/>
	<path id="Vector" d="M75.68 30.6C75.91 30.6 76.09 30.62 76.23 30.64C76.36 30.66 76.51 30.68 76.65 30.7C76.96 30.73 77.13 30.58 77.16 30.26C77.21 29.58 77.38 28.97 77.65 28.42C77.93 27.87 78.32 27.39 78.82 26.98C79.32 26.57 79.95 26.26 80.71 26.04C81.47 25.81 82.35 25.7 83.35 25.7C83.5 25.7 83.63 25.76 83.74 25.89C83.85 26.01 83.95 26.16 84.01 26.36C84.07 26.54 84.12 26.74 84.16 26.94C84.19 27.14 84.21 27.31 84.21 27.46C84.21 27.6 84.19 27.76 84.16 27.94C84.12 28.12 84.08 28.29 84.01 28.44C83.95 28.6 83.85 28.73 83.74 28.83C83.63 28.93 83.5 28.98 83.35 28.98C82.41 28.98 81.74 29.12 81.34 29.4C80.94 29.68 80.7 29.97 80.62 30.26C80.59 30.39 80.62 30.49 80.7 30.59C80.77 30.68 80.89 30.73 81.04 30.7C81.28 30.67 81.52 30.65 81.78 30.64C82.03 30.62 82.27 30.62 82.49 30.62C82.64 30.62 82.77 30.68 82.88 30.81C83 30.93 83.09 31.09 83.15 31.28C83.22 31.47 83.27 31.66 83.3 31.86C83.34 32.06 83.35 32.23 83.35 32.38C83.35 32.52 83.34 32.69 83.3 32.89C83.27 33.1 83.22 33.29 83.15 33.48C83.09 33.67 83 33.82 82.88 33.95C82.77 34.07 82.64 34.13 82.49 34.13C82.27 34.13 82.03 34.12 81.78 34.11C81.52 34.1 81.28 34.07 81.04 34.04C80.89 34.03 80.77 34.06 80.68 34.14C80.59 34.23 80.55 34.34 80.55 34.48C80.55 35.06 80.55 35.69 80.57 36.37C80.58 37.05 80.6 37.71 80.62 38.36C80.63 39.02 80.65 39.64 80.65 40.23C80.66 40.83 80.67 41.33 80.67 41.73C80.67 41.89 80.6 42.01 80.47 42.12C80.34 42.22 80.18 42.3 79.98 42.36C79.78 42.42 79.58 42.47 79.37 42.5C79.16 42.54 78.98 42.55 78.83 42.55C78.68 42.55 78.51 42.54 78.3 42.5C78.08 42.47 77.88 42.43 77.69 42.36C77.49 42.3 77.33 42.22 77.2 42.12C77.07 42.01 77 41.89 77 41.73C77 41.32 77.01 40.83 77.01 40.23C77.02 39.64 77.04 39.02 77.05 38.36C77.06 37.71 77.08 37.05 77.1 36.37C77.11 35.69 77.12 35.06 77.12 34.48C77.12 34.34 77.08 34.23 76.99 34.14C76.89 34.06 76.78 34.02 76.63 34.04C76.47 34.06 76.32 34.08 76.18 34.1C76.04 34.12 75.87 34.14 75.65 34.14C75.51 34.14 75.38 34.08 75.27 33.95C75.15 33.83 75.06 33.68 75 33.48C74.93 33.29 74.88 33.1 74.85 32.9C74.81 32.7 74.8 32.53 74.8 32.38C74.8 32.24 74.81 32.07 74.85 31.87C74.88 31.66 74.93 31.47 75 31.28C75.06 31.09 75.15 30.94 75.27 30.81C75.41 30.66 75.53 30.6 75.68 30.6Z" fill="#EF5924" fill-opacity="1.000000" fill-rule="nonzero"/>
	<path id="Vector" d="M86.79 30.6C87.02 30.6 87.2 30.62 87.34 30.64C87.47 30.66 87.62 30.68 87.76 30.7C88.07 30.73 88.24 30.58 88.27 30.26C88.32 29.58 88.48 28.97 88.76 28.42C89.04 27.87 89.42 27.39 89.93 26.98C90.43 26.57 91.06 26.26 91.82 26.04C92.58 25.81 93.45 25.7 94.46 25.7C94.61 25.7 94.73 25.76 94.85 25.89C94.96 26.01 95.05 26.16 95.12 26.36C95.18 26.54 95.23 26.74 95.27 26.94C95.3 27.14 95.32 27.31 95.32 27.46C95.32 27.6 95.3 27.76 95.27 27.94C95.23 28.12 95.19 28.29 95.12 28.44C95.05 28.6 94.96 28.73 94.85 28.83C94.73 28.93 94.61 28.98 94.46 28.98C93.52 28.98 92.84 29.12 92.45 29.4C92.05 29.68 91.81 29.97 91.73 30.26C91.7 30.39 91.73 30.49 91.8 30.59C91.88 30.68 92 30.73 92.14 30.7C92.38 30.67 92.63 30.65 92.89 30.64C93.14 30.62 93.38 30.62 93.6 30.62C93.75 30.62 93.88 30.68 93.99 30.81C94.1 30.93 94.2 31.09 94.26 31.28C94.32 31.47 94.37 31.66 94.41 31.86C94.44 32.06 94.46 32.23 94.46 32.38C94.46 32.52 94.44 32.69 94.41 32.89C94.37 33.1 94.33 33.29 94.26 33.48C94.2 33.67 94.1 33.82 93.99 33.95C93.88 34.07 93.75 34.13 93.6 34.13C93.38 34.13 93.13 34.12 92.89 34.11C92.63 34.1 92.39 34.07 92.14 34.04C91.99 34.03 91.88 34.06 91.79 34.15C91.7 34.24 91.65 34.35 91.65 34.49C91.65 35.07 91.66 35.69 91.68 36.37C91.69 37.05 91.71 37.72 91.73 38.37C91.74 39.02 91.75 39.65 91.76 40.24C91.77 40.83 91.78 41.34 91.78 41.74C91.78 41.89 91.71 42.02 91.58 42.12C91.45 42.23 91.29 42.31 91.09 42.37C90.89 42.43 90.69 42.48 90.48 42.51C90.27 42.54 90.09 42.56 89.94 42.56C89.79 42.56 89.62 42.54 89.4 42.51C89.19 42.48 88.99 42.44 88.79 42.37C88.6 42.3 88.43 42.23 88.31 42.12C88.18 42.02 88.11 41.89 88.11 41.74C88.11 41.33 88.11 40.83 88.12 40.24C88.13 39.65 88.14 39.02 88.16 38.37C88.17 37.72 88.19 37.05 88.21 36.37C88.22 35.69 88.23 35.07 88.23 34.49C88.23 34.35 88.19 34.24 88.09 34.15C88 34.06 87.89 34.03 87.74 34.04C87.58 34.06 87.43 34.08 87.29 34.1C87.15 34.12 86.98 34.14 86.76 34.14C86.61 34.14 86.49 34.08 86.37 33.95C86.26 33.83 86.17 33.68 86.1 33.48C86.04 33.29 85.99 33.1 85.96 32.9C85.92 32.7 85.91 32.53 85.91 32.38C85.91 32.24 85.92 32.07 85.96 31.87C85.99 31.66 86.03 31.47 86.1 31.28C86.17 31.09 86.26 30.94 86.37 30.81C86.51 30.66 86.64 30.6 86.79 30.6Z" fill="#EF5924" fill-opacity="1.000000" fill-rule="nonzero"/>
	<path id="Vector" d="M121.43 28.67C122.35 28.67 123.2 28.78 123.99 29.01C124.78 29.23 125.48 29.54 126.06 29.92C126.65 30.31 127.12 30.77 127.47 31.31C127.82 31.85 128 32.43 128 33.07C128 33.86 127.82 34.52 127.47 35.05C127.12 35.58 126.66 36.01 126.06 36.33C125.48 36.66 124.78 36.89 123.99 37.03C123.2 37.16 122.34 37.23 121.43 37.23C120.77 37.23 120.17 37.19 119.63 37.1C119.08 37.02 118.65 36.93 118.33 36.85C118.15 36.82 118.03 36.84 117.94 36.91C117.86 36.99 117.84 37.09 117.88 37.22C117.94 37.43 118.03 37.64 118.18 37.88C118.32 38.11 118.52 38.33 118.79 38.53C119.06 38.73 119.41 38.9 119.84 39.03C120.26 39.17 120.8 39.23 121.45 39.23C121.95 39.23 122.38 39.19 122.74 39.12C123.11 39.04 123.42 38.95 123.69 38.83C123.96 38.71 124.19 38.58 124.38 38.43C124.58 38.28 124.76 38.13 124.92 37.97C125.17 37.73 125.48 37.62 125.86 37.62C126.07 37.62 126.28 37.66 126.49 37.75C126.69 37.83 126.88 37.94 127.04 38.09C127.2 38.23 127.34 38.4 127.44 38.59C127.55 38.78 127.61 39 127.61 39.23C127.61 39.55 127.47 39.88 127.2 40.23C126.93 40.59 126.54 40.91 126.03 41.21C125.51 41.51 124.87 41.76 124.1 41.95C123.34 42.14 122.45 42.25 121.45 42.25C120.35 42.25 119.34 42.08 118.45 41.76C117.56 41.43 116.8 40.96 116.18 40.36C115.56 39.76 115.07 39.04 114.74 38.22C114.4 37.39 114.23 36.47 114.23 35.46C114.23 34.46 114.4 33.54 114.74 32.71C115.07 31.88 115.56 31.16 116.18 30.56C116.8 29.96 117.56 29.5 118.45 29.17C119.33 28.83 120.33 28.67 121.43 28.67ZM118.33 34.08C118.67 34.14 119.12 34.23 119.7 34.31C120.27 34.41 120.85 34.45 121.44 34.45C122.32 34.45 123.05 34.33 123.63 34.08C124.22 33.84 124.52 33.5 124.52 33.06C124.52 32.63 124.22 32.29 123.63 32.04C123.05 31.8 122.31 31.68 121.44 31.68C120.83 31.68 120.31 31.74 119.89 31.85C119.46 31.97 119.11 32.12 118.83 32.3C118.56 32.47 118.35 32.66 118.2 32.86C118.06 33.06 117.96 33.25 117.91 33.44C117.87 33.57 117.89 33.7 117.97 33.82C118.05 33.96 118.17 34.04 118.33 34.08Z" fill="#EF5924" fill-opacity="1.000000" fill-rule="nonzero"/>
	<path id="Vector" d="M105.12 28.71C106.03 28.71 106.89 28.82 107.69 29.05C108.49 29.27 109.18 29.58 109.78 29.97C110.37 30.36 110.84 30.82 111.19 31.36C111.54 31.9 111.71 32.49 111.71 33.13C111.71 33.93 111.54 34.59 111.19 35.12C110.84 35.65 110.37 36.07 109.78 36.41C109.18 36.73 108.49 36.96 107.69 37.1C106.89 37.24 106.03 37.3 105.12 37.3C104.46 37.3 103.85 37.26 103.3 37.18C102.76 37.09 102.32 37.01 102 36.92C101.82 36.89 101.69 36.91 101.61 36.99C101.53 37.06 101.5 37.17 101.54 37.3C101.6 37.5 101.69 37.72 101.84 37.96C101.98 38.2 102.18 38.41 102.45 38.62C102.72 38.82 103.07 38.99 103.5 39.12C103.93 39.26 104.47 39.32 105.11 39.32C105.62 39.32 106.05 39.28 106.42 39.21C106.78 39.13 107.1 39.04 107.37 38.92C107.64 38.8 107.87 38.66 108.07 38.51C108.27 38.37 108.45 38.21 108.61 38.06C108.86 37.82 109.18 37.71 109.55 37.71C109.77 37.71 109.98 37.75 110.18 37.83C110.39 37.92 110.57 38.03 110.74 38.17C110.9 38.32 111.03 38.49 111.14 38.68C111.24 38.87 111.3 39.09 111.3 39.32C111.3 39.64 111.17 39.98 110.9 40.34C110.63 40.69 110.23 41.02 109.72 41.32C109.19 41.63 108.55 41.87 107.78 42.07C107 42.26 106.12 42.36 105.11 42.36C104 42.36 103 42.2 102.1 41.87C101.2 41.55 100.44 41.08 99.81 40.47C99.18 39.87 98.7 39.15 98.36 38.31C98.02 37.47 97.85 36.56 97.85 35.54C97.85 34.53 98.02 33.61 98.36 32.78C98.7 31.94 99.18 31.22 99.81 30.62C100.44 30.01 101.2 29.54 102.1 29.22C103 28.87 104.01 28.71 105.12 28.71ZM102 34.14C102.34 34.21 102.8 34.29 103.37 34.38C103.95 34.47 104.53 34.51 105.12 34.51C106 34.51 106.74 34.39 107.33 34.14C107.92 33.9 108.21 33.56 108.21 33.12C108.21 32.68 107.92 32.34 107.33 32.09C106.74 31.85 106.01 31.72 105.12 31.72C104.51 31.72 103.99 31.79 103.56 31.9C103.13 32.02 102.78 32.17 102.5 32.34C102.23 32.52 102.01 32.71 101.87 32.91C101.73 33.12 101.63 33.31 101.57 33.5C101.54 33.63 101.56 33.76 101.64 33.89C101.72 34.02 101.84 34.1 102 34.14Z" fill="#EF5924" fill-opacity="1.000000" fill-rule="nonzero"/>
	<path id="Vector" d="M31.96 28.61C31.92 29.24 31.92 29.98 31.85 30.71C31.6 33.15 30.96 35.49 29.86 37.71C28.99 39.47 27.89 41.08 26.49 42.49C25.3 43.69 23.97 44.71 22.44 45.49C21.11 46.17 19.71 46.65 18.22 46.9C17.55 47 16.88 47.07 16.19 47.06C15.94 47.06 15.7 47.06 15.45 47.06C13.95 47.01 12.5 46.72 11.1 46.2C9.35 45.54 7.78 44.58 6.39 43.37C4.86 42.04 3.62 40.48 2.62 38.73C1.65 37.01 0.96 35.2 0.52 33.31C0.35 32.57 0.23 31.83 0.14 31.09C0.11 30.88 0.09 30.66 0.07 30.45C-0.01 29.52 -0.01 28.78 0 27.96C0.02 27.23 0.07 26.51 0.17 25.78C0.33 24.58 0.58 23.41 0.94 22.24C1.62 20.09 2.62 18.09 4 16.28C5.15 14.77 6.51 13.46 8.12 12.4C9.66 11.38 11.35 10.67 13.18 10.29C13.69 10.19 14.2 10.11 14.72 10.06C15.43 10 16.13 10 16.84 10.03C17.39 10.06 17.93 10.12 18.48 10.23C19.86 10.48 21.16 10.93 22.4 11.57C23.63 12.2 24.75 12.98 25.76 13.9C27.29 15.28 28.52 16.87 29.49 18.65C30.4 20.32 31.05 22.09 31.46 23.93C31.61 24.65 31.73 25.37 31.82 26.1C31.92 26.91 31.96 27.71 31.96 28.61ZM13.3 14.47C13.18 14.47 13.08 14.47 12.99 14.47C12.52 14.52 12.08 14.6 11.63 14.73C10.77 14.98 9.99 15.39 9.27 15.91C8.37 16.56 7.63 17.35 6.98 18.23C6.05 19.52 5.38 20.92 4.9 22.41C4.65 23.2 4.45 24 4.31 24.82C4.22 25.34 4.15 25.85 4.1 26.38C4.06 26.79 4.05 27.2 4.03 27.62C3.98 28.62 4.04 29.61 4.15 30.6C4.23 31.35 4.37 32.09 4.55 32.82C4.91 34.25 5.42 35.63 6.15 36.94C6.75 38.02 7.48 39 8.4 39.86C9.13 40.55 9.96 41.12 10.9 41.52C11.53 41.78 12.19 41.95 12.86 42.03C12.92 42.04 12.99 42.05 13.03 41.98C13.05 41.89 13 41.8 12.97 41.71C12.43 40 11.98 38.26 11.7 36.5C11.59 35.78 11.51 35.07 11.48 34.36C11.44 33.53 11.45 32.7 11.56 31.89C11.65 31.19 11.81 30.51 12.06 29.84C12.4 28.96 12.91 28.17 13.62 27.51C13.83 27.32 14.03 27.14 14.23 26.95C14.79 26.44 15.19 25.85 15.46 25.17C15.7 24.53 15.82 23.87 15.86 23.2C15.89 22.57 15.85 21.94 15.75 21.32C15.63 20.55 15.45 19.8 15.22 19.05C14.75 17.51 14.1 16.04 13.38 14.59C13.36 14.56 13.33 14.52 13.3 14.47ZM18.27 14.48C18.3 14.57 18.32 14.63 18.34 14.69C18.44 14.9 18.54 15.09 18.63 15.3C19.16 16.46 19.63 17.63 19.99 18.85C20.35 20.05 20.61 21.28 20.64 22.54C20.66 23.35 20.6 24.15 20.37 24.93C20.12 25.79 19.72 26.57 19.09 27.22C18.86 27.45 18.62 27.67 18.38 27.88C17.58 28.59 17.02 29.44 16.69 30.44C16.38 31.38 16.27 32.35 16.25 33.34C16.23 34.1 16.3 34.85 16.39 35.61C16.48 36.37 16.62 37.14 16.79 37.9C17.01 38.92 17.28 39.93 17.59 40.93C17.68 41.25 17.79 41.56 17.88 41.87C17.93 41.99 17.97 42.03 18.08 42.01C18.37 41.98 18.66 41.96 18.94 41.91C20 41.71 20.95 41.27 21.82 40.66C22.73 40.02 23.48 39.24 24.14 38.36C25 37.2 25.64 35.93 26.12 34.59C26.54 33.42 26.83 32.23 27 31C27.09 30.37 27.14 29.74 27.17 29.1C27.2 28.39 27.2 27.68 27.14 26.97C27.1 26.36 27.04 25.74 26.94 25.13C26.76 23.98 26.47 22.85 26.07 21.76C25.6 20.49 24.99 19.29 24.18 18.19C23.56 17.34 22.83 16.57 21.96 15.94C21.03 15.24 19.99 14.75 18.82 14.54C18.66 14.51 18.48 14.46 18.27 14.48Z" fill="#EF5924" fill-opacity="1.000000" fill-rule="nonzero"/>
	<path id="Vector" d="M18.94 5.18C18.97 5.12 19 5.07 19.02 5.03C19.61 4.25 20.25 3.51 20.94 2.81C21.49 2.25 22.08 1.74 22.72 1.27C23.19 0.92 23.69 0.6 24.23 0.36C24.57 0.2 24.91 0.07 25.29 0.02C25.48 -0.01 25.68 -0.01 25.87 0C26.1 0.02 26.29 0.13 26.46 0.28C26.66 0.47 26.8 0.68 26.92 0.92C27.12 1.34 27.24 1.78 27.31 2.23C27.45 2.99 27.46 3.76 27.41 4.53C27.34 5.66 27.13 6.77 26.84 7.85C26.64 8.6 26.39 9.33 26.13 10.05C26.1 10.14 26.05 10.23 26.02 10.31C25.92 10.29 25.9 10.21 25.86 10.14C25.52 9.59 25.15 9.07 24.73 8.58C23.94 7.66 23.02 6.88 21.95 6.27C21.08 5.78 20.17 5.43 19.18 5.24C19.14 5.23 19.11 5.22 19.07 5.21C19.04 5.2 19.01 5.19 18.94 5.18Z" fill="#EF5924" fill-opacity="1.000000" fill-rule="nonzero"/>
	<path id="Vector" d="M6.63 9.17C6.6 9.1 6.57 9.04 6.54 9C6.09 7.96 5.75 6.9 5.53 5.79C5.36 4.88 5.3 3.97 5.35 3.06C5.38 2.43 5.5 1.81 5.76 1.23C5.88 0.96 6.03 0.7 6.24 0.48C6.41 0.3 6.61 0.17 6.85 0.11C6.92 0.09 7 0.08 7.08 0.07C7.61 0.02 8.11 0.15 8.6 0.34C9.08 0.53 9.52 0.78 9.95 1.06C10.72 1.57 11.4 2.17 12.02 2.83C12.6 3.44 13.11 4.1 13.58 4.8C13.62 4.85 13.64 4.9 13.68 4.98C13.62 5 13.57 5.03 13.52 5.03C11.77 5.21 10.23 5.87 8.86 6.91C8.09 7.49 7.43 8.18 6.84 8.94C6.79 9.02 6.75 9.1 6.63 9.17Z" fill="#EF5924" fill-opacity="1.000000" fill-rule="nonzero"/>
</svg>
