<svg width="90.000000" height="67.000000" viewBox="0 0 90 67" fill="none" xmlns="http://www.w3.org/2000/svg" xmlns:xlink="http://www.w3.org/1999/xlink">
	<desc>
			Created with Pixso.
	</desc>
	<defs/>
	<path id="Vector" d="M20.62 20.68C20.53 20.47 20.43 20.25 20.34 20.03C20.1 19.47 19.23 19.29 18.74 19.6C18.15 19.98 18.05 20.6 18.31 21.21C18.97 22.75 19.63 24.28 20.3 25.82C20.39 26.04 20.48 26.26 20.57 26.48C20.82 27.04 21.69 27.22 22.18 26.9C22.76 26.53 22.86 25.91 22.6 25.3C21.94 23.76 21.28 22.22 20.62 20.68Z" fill="#000000" fill-opacity="1.000000" fill-rule="nonzero"/>
	<path id="Vector" d="M30.61 16.5C29.97 16.53 29.44 17.01 29.43 17.67C29.42 19.59 29.41 21.52 29.41 23.45C29.41 23.72 29.4 23.98 29.4 24.26C29.4 24.87 29.94 25.46 30.57 25.43C31.21 25.41 31.75 24.92 31.75 24.27C31.76 22.34 31.77 20.41 31.78 18.49C31.78 18.22 31.78 17.95 31.78 17.68C31.78 17.06 31.24 16.47 30.61 16.5Z" fill="#000000" fill-opacity="1.000000" fill-rule="nonzero"/>
	<path id="Vector" d="M40.57 24.9C41.45 23.4 42.33 21.9 43.21 20.4C43.34 20.19 43.46 19.97 43.59 19.76C43.9 19.23 43.74 18.45 43.18 18.16C42.62 17.86 41.9 18 41.57 18.57C40.69 20.07 39.81 21.56 38.93 23.06C38.81 23.28 38.68 23.49 38.55 23.7C38.24 24.23 38.41 25.01 38.97 25.31C39.53 25.61 40.24 25.46 40.57 24.9Z" fill="#000000" fill-opacity="1.000000" fill-rule="nonzero"/>
	<path id="Vector" d="M88.99 35.44C88.81 33.86 88.11 32.47 86.82 31.5C85.86 30.77 84.69 30.44 83.51 30.3C82.87 30.23 82.22 30.24 81.59 30.39C80.66 30.61 79.8 31.12 79.01 31.64C77.82 32.43 76.68 33.31 75.55 34.17C75.28 34.38 75.01 34.59 74.74 34.8C76.46 31.75 78.22 28.73 80.06 25.75C80.76 24.61 81.41 23.45 81.99 22.25C82.67 20.83 83.3 19.38 84.02 17.98C84.67 16.74 85.43 15.57 85.92 14.25C86.4 12.95 86.48 11.59 86.22 10.23C85.95 8.85 85.16 7.49 83.84 6.88C82.69 6.34 81.42 6.33 80.25 6.7C80.32 6.05 80.32 5.39 80.2 4.73C79.96 3.32 79.02 2.13 77.85 1.37C76.32 0.37 74.41 0.3 72.78 1.07C72.25 1.31 71.77 1.66 71.35 2.06C71.33 2.01 71.3 1.96 71.27 1.91C70.49 0.63 68.97 0.06 67.53 0C66.69 -0.04 65.87 0.14 65.11 0.5C64.38 0.85 63.75 1.41 63.18 1.97C62.17 2.96 61.24 4.02 60.47 5.2C59.88 4.26 58.93 3.58 57.9 3.2C56.89 2.84 55.65 2.78 54.63 3.14C53.48 3.54 52.74 4.41 52.07 5.39C51.19 6.67 50.39 8.01 49.56 9.33C48.92 10.34 48.31 11.11 47.6 12.48C47.35 12.97 47.16 13.37 47.03 13.65C46.91 13.54 46.75 13.4 46.52 13.29C46.08 13.08 45.67 13.07 45.46 13.08C44.73 10.64 43.32 8.33 41.17 6.92C41.29 6.51 41.15 5.92 41.03 5.44C40.82 4.6 40.41 4.02 40.14 3.7C39.64 3.86 38.95 4.14 38.22 4.65C37.52 5.13 37.08 5.44 36.99 5.77C36.97 5.77 36.95 5.77 36.93 5.77C35.46 5.84 34.06 6.27 32.72 6.86C31.64 7.33 30.63 7.94 29.71 8.67C29.21 8.37 28.47 8.01 27.52 7.79C26.85 7.64 26.26 7.61 25.79 7.62C25.51 7.02 25.09 6.28 24.47 5.52C24 4.96 23.54 4.52 23.13 4.19C22.79 4.62 22.39 5.2 22.05 5.94C21.66 6.79 21.46 7.57 21.36 8.16C20.62 8.54 19.45 9.24 18.36 10.46C17.15 11.82 16.59 13.19 16.33 14.01C15.46 13.93 14.59 13.97 13.73 14.16C13.23 14.26 12.75 14.43 12.29 14.63C11.92 14.31 11.42 13.93 10.78 13.58C10.11 13.22 9.49 13.02 9.01 12.89C8.9 13.41 8.77 14.1 8.73 14.93C8.66 16.29 8.63 17.01 8.99 17.24C8.37 18.05 7.87 18.96 7.48 19.91C6.07 23.31 7.15 27.16 9.25 30.03C10.48 31.7 12.03 33.09 13.86 34.05C13.65 35.11 13.58 36.2 13.66 37.27C13.82 39.6 14.64 41.77 16.07 43.62C16.39 44.04 16.74 44.43 17.12 44.79C14.88 47.41 12.64 50.03 10.4 52.65C10.32 52.7 10.24 52.77 10.16 52.85C9.07 53.98 7.98 55.12 6.88 56.26C5.14 58.08 3.39 59.9 1.65 61.72C1.25 62.14 0.84 62.56 0.43 62.98C-0.12 63.56 -0.18 64.58 0.43 65.14C1.03 65.69 2.01 65.76 2.6 65.14C3.69 64 4.78 62.86 5.88 61.73C7.62 59.91 9.36 58.09 11.11 56.27C11.51 55.85 11.92 55.43 12.33 55.01C12.39 54.94 12.45 54.86 12.51 54.78C12.68 54.77 12.86 54.77 13.03 54.78C13.22 54.78 13.42 54.79 13.61 54.8C13.71 54.81 13.8 54.82 13.89 54.83C13.94 54.83 13.99 54.84 14.04 54.84C14.05 54.84 14.1 54.85 14.14 54.86C14.17 54.86 14.21 54.87 14.22 54.87C14.27 54.88 14.32 54.89 14.37 54.9C14.48 54.91 14.58 54.93 14.68 54.96C14.93 55.01 15.18 55.07 15.43 55.15C15.65 55.21 15.87 55.29 16.09 55.37C16.18 55.4 16.27 55.44 16.37 55.48C16.4 55.49 16.44 55.51 16.48 55.53C16.85 55.7 17.22 55.89 17.56 56.11C17.72 56.2 17.87 56.3 18.02 56.41C18.08 56.45 18.15 56.5 18.21 56.55C18.26 56.58 18.49 56.73 18.34 56.64C18.2 56.56 18.41 56.7 18.46 56.74C18.52 56.78 18.57 56.83 18.63 56.88C18.75 56.98 18.86 57.09 18.98 57.2C19.35 57.55 19.7 57.92 20.01 58.33C20.39 58.81 21.27 58.76 21.67 58.33C22.14 57.82 22.08 57.19 21.67 56.67C19.73 54.21 16.74 52.69 13.63 52.46C13.99 52.04 14.35 51.62 14.71 51.2C14.86 51.22 15.03 51.22 15.19 51.18C15.46 51.11 15.73 51.08 15.99 51.02C15.95 51.03 15.91 51.04 15.88 51.05C15.93 51.03 16 51.02 16.03 51.02C16.11 51.01 16.19 51.01 16.27 51C16.49 50.99 16.72 50.98 16.95 50.99C17.17 50.99 17.39 51.01 17.61 51.03C17.61 51.03 17.61 51.03 17.62 51.03C17.68 51.04 17.74 51.06 17.8 51.07C17.91 51.09 18.01 51.11 18.11 51.13C18.4 51.2 18.68 51.28 18.95 51.38C19.04 51.41 19.13 51.45 19.22 51.48C18.95 51.38 19.32 51.53 19.37 51.56C19.76 51.75 20.13 51.97 20.48 52.22C20.5 52.24 20.52 52.25 20.54 52.27C20.64 52.34 20.63 52.33 20.49 52.22C20.57 52.26 20.66 52.36 20.73 52.41C20.85 52.52 20.97 52.63 21.09 52.74C21.3 52.95 21.5 53.17 21.69 53.39C21.7 53.42 21.72 53.44 21.74 53.46C21.79 53.53 21.83 53.59 21.88 53.66C22.22 54.16 22.92 54.45 23.48 54.09C23.98 53.77 24.28 53.03 23.91 52.49C23.04 51.22 21.87 50.15 20.48 49.49C19.34 48.96 18.11 48.67 16.88 48.65C17.11 48.38 17.33 48.12 17.56 47.85C18.09 47.7 18.63 47.58 19.18 47.5C19.19 47.49 19.2 47.49 19.22 47.49C19.22 47.49 19.22 47.49 19.22 47.49C19.33 47.48 19.44 47.47 19.55 47.46C19.8 47.44 20.05 47.42 20.3 47.41C20.84 47.4 21.38 47.42 21.93 47.47C21.98 47.48 22.03 47.49 22.08 47.49C22.1 47.49 22.15 47.5 22.19 47.51C22.23 47.51 22.29 47.52 22.3 47.53C22.37 47.54 22.45 47.55 22.52 47.56C22.83 47.62 23.14 47.69 23.44 47.77C23.95 47.9 24.44 48.07 24.93 48.26C24.94 48.26 24.94 48.27 24.95 48.27C24.99 48.29 25.03 48.3 25.07 48.32C25.18 48.37 25.29 48.42 25.39 48.47C25.6 48.57 25.8 48.68 26 48.79C26.36 48.99 26.72 49.22 27.07 49.46C27.15 49.52 27.23 49.58 27.32 49.64C27.34 49.66 27.39 49.7 27.44 49.73C27.48 49.77 27.56 49.83 27.58 49.85C27.65 49.9 27.71 49.96 27.78 50.01C28 50.2 28.2 50.39 28.41 50.59C28.85 51.03 29.64 51.07 30.07 50.6C30.49 50.14 30.54 49.4 30.07 48.94C27.4 46.3 23.62 44.84 19.86 45.09C19.89 45.07 19.91 45.05 19.93 45.03C20.13 44.79 20.34 44.57 20.58 44.36C20.66 44.28 20.74 44.22 20.82 44.15C20.82 44.14 20.83 44.14 20.84 44.13C20.84 44.13 20.84 44.13 20.85 44.13C21.02 44 21.2 43.88 21.38 43.78C21.56 43.67 21.74 43.59 21.93 43.5C21.93 43.5 22.11 43.42 22.13 43.42C22.26 43.37 22.41 43.33 22.55 43.29C22.77 43.23 22.99 43.19 23.22 43.14C23.26 43.14 23.31 43.14 23.36 43.13C23.47 43.12 23.59 43.11 23.7 43.11C23.9 43.11 24.11 43.11 24.31 43.12C24.44 43.13 24.56 43.14 24.67 43.15C24.68 43.15 24.69 43.15 24.7 43.15C24.7 43.15 24.71 43.15 24.71 43.16C25.07 43.22 25.43 43.3 25.78 43.41C25.93 43.45 26.07 43.5 26.22 43.56C26.33 43.6 26.74 43.81 26.34 43.6C26.48 43.67 26.63 43.73 26.77 43.81C27.31 44.09 28.07 43.97 28.38 43.39C28.66 42.86 28.54 42.09 27.96 41.79C26.64 41.1 25.1 40.7 23.61 40.77C21.72 40.86 19.93 41.65 18.61 42.99C18.41 42.8 18.22 42.59 18.05 42.38C17.97 42.29 17.9 42.2 17.82 42.11C17.81 42.1 17.81 42.09 17.81 42.09C17.8 42.08 17.79 42.07 17.78 42.06C17.63 41.85 17.48 41.63 17.35 41.41C17.22 41.21 17.1 41 16.99 40.79C16.93 40.68 16.87 40.56 16.81 40.45C16.79 40.39 16.77 40.34 16.74 40.29C16.74 40.27 16.68 40.16 16.66 40.11C16.65 40.08 16.64 40.06 16.64 40.05C16.61 39.99 16.59 39.92 16.56 39.85C16.52 39.73 16.47 39.61 16.43 39.49C16.35 39.24 16.28 38.99 16.22 38.74C16.16 38.51 16.11 38.28 16.07 38.05C16.05 37.95 16.04 37.84 16.02 37.74C16.02 37.68 16.01 37.61 16 37.56C15.92 36.75 15.94 35.94 16.03 35.13C16.03 35.11 16.04 35.08 16.04 35.06C16.04 35.08 16.03 35.1 16.03 35.11C16.03 35.09 16.04 35.06 16.04 35.04C16.04 35.04 16.04 35.03 16.04 35.03C16.06 34.89 16.05 34.94 16.04 35.01C16.05 34.96 16.06 34.91 16.07 34.85C16.09 34.7 16.12 34.56 16.15 34.41C16.2 34.17 16.26 33.94 16.32 33.72C16.44 33.27 16.25 32.6 15.78 32.39C15.06 32.07 14.36 31.69 13.71 31.24C13.61 31.17 13.51 31.1 13.41 31.03C13.38 31.01 13.36 30.99 13.33 30.97C13.32 30.96 13.3 30.95 13.27 30.93C13.04 30.74 12.81 30.54 12.59 30.33C12.16 29.94 11.77 29.51 11.41 29.06C11.39 29.03 11.3 28.91 11.28 28.88C11.2 28.78 11.13 28.68 11.06 28.57C10.87 28.3 10.69 28.03 10.52 27.74C10.31 27.39 10.12 27.03 9.94 26.66C9.91 26.58 9.87 26.5 9.84 26.42C9.83 26.38 9.77 26.27 9.77 26.25C9.67 26.02 9.59 25.78 9.52 25.54C9.45 25.31 9.38 25.07 9.33 24.83C9.31 24.72 9.28 24.61 9.26 24.5C9.25 24.43 9.24 24.36 9.23 24.29C9.22 24.26 9.2 24.1 9.2 24.08C9.2 24.06 9.2 24.04 9.2 24.04C9.19 23.98 9.19 23.92 9.18 23.86C9.17 23.74 9.17 23.62 9.16 23.5C9.15 23.19 9.16 22.89 9.19 22.58C9.19 22.51 9.2 22.45 9.21 22.39C9.21 22.38 9.22 22.26 9.23 22.21C9.23 22.2 9.24 22.18 9.24 22.17C9.25 22.1 9.27 22.01 9.28 21.93C9.33 21.73 9.38 21.52 9.44 21.31C9.47 21.18 9.52 21.06 9.56 20.93C9.6 20.84 9.63 20.74 9.67 20.65C9.69 20.62 9.7 20.59 9.71 20.56C9.71 20.55 9.71 20.55 9.72 20.54C9.85 20.25 9.99 19.96 10.15 19.68C10.33 19.37 10.52 19.07 10.73 18.78C10.79 18.7 11.04 18.45 10.78 18.71C10.84 18.65 10.89 18.57 10.95 18.5C11.1 18.33 11.25 18.16 11.41 18.01C11.58 17.84 11.75 17.68 11.93 17.53C11.97 17.5 12 17.48 12.03 17.45C12.04 17.45 12.04 17.45 12.04 17.45C12.15 17.37 12.26 17.29 12.38 17.21C12.6 17.07 12.84 16.94 13.08 16.82C13.13 16.8 13.18 16.77 13.22 16.75C13.23 16.75 13.24 16.74 13.25 16.74C13.25 16.74 13.25 16.74 13.24 16.74C13.25 16.74 13.26 16.74 13.26 16.74C13.29 16.73 13.31 16.72 13.33 16.72C13.43 16.68 13.53 16.63 13.62 16.6C13.98 16.49 14.34 16.42 14.7 16.34C14.71 16.34 14.72 16.34 14.72 16.34C14.73 16.34 14.74 16.34 14.75 16.34C14.85 16.33 14.95 16.32 15.05 16.31C15.21 16.3 15.37 16.3 15.53 16.3C15.81 16.3 16.09 16.32 16.37 16.35C16.42 16.36 16.46 16.37 16.51 16.37C16.63 16.39 16.75 16.42 16.88 16.45C17.45 16.57 18.2 16.28 18.32 15.63C18.43 15.06 18.59 14.51 18.8 13.97C18.84 13.88 18.89 13.8 18.93 13.71C19 13.55 19.09 13.4 19.18 13.25C19.28 13.07 19.39 12.9 19.5 12.73C19.55 12.66 19.6 12.6 19.65 12.53C19.67 12.5 19.68 12.49 19.69 12.48C19.71 12.45 19.73 12.42 19.75 12.39C19.95 12.16 20.15 11.94 20.37 11.74C20.49 11.62 20.62 11.51 20.74 11.4C20.79 11.36 20.83 11.33 20.87 11.3C20.89 11.28 20.9 11.28 20.91 11.27C20.93 11.26 20.94 11.24 20.96 11.23C21.39 10.92 21.85 10.65 22.33 10.42C22.42 10.38 22.52 10.34 22.62 10.29C22.26 10.48 22.62 10.29 22.72 10.26C22.89 10.19 23.07 10.13 23.25 10.08C23.48 10.01 23.71 9.95 23.95 9.9C24.03 9.89 24.12 9.87 24.21 9.86C24.22 9.85 24.23 9.85 24.24 9.85C24.24 9.85 24.25 9.85 24.25 9.85C24.34 9.84 24.42 9.83 24.5 9.83C24.88 9.79 25.26 9.79 25.64 9.82C25.78 9.83 25.95 9.82 26.08 9.86C26.1 9.86 26.11 9.87 26.12 9.87C26.17 9.88 26.23 9.89 26.28 9.9C26.6 9.96 26.9 10.04 27.21 10.13C27.35 10.18 27.49 10.23 27.62 10.27C27.72 10.31 28.14 10.5 27.78 10.33C28.01 10.44 28.24 10.54 28.46 10.66C28.71 10.79 28.96 10.95 29.2 11.12C29.64 11.42 30.26 11.27 30.62 10.94C30.81 10.76 31.01 10.59 31.21 10.43C31.25 10.4 31.29 10.37 31.33 10.33C31.34 10.33 31.34 10.33 31.35 10.32C31.35 10.32 31.35 10.31 31.36 10.31C31.5 10.21 31.65 10.1 31.79 10C32.35 9.63 32.93 9.31 33.54 9.03C33.71 8.95 33.89 8.88 34.05 8.8C33.7 8.97 34.07 8.8 34.16 8.76C34.32 8.7 34.47 8.64 34.64 8.59C35.23 8.39 35.85 8.21 36.48 8.13C36.53 8.13 36.59 8.12 36.61 8.12C36.68 8.11 36.74 8.11 36.81 8.1C36.99 8.09 37.18 8.09 37.36 8.09C37.55 8.09 37.74 8.11 37.92 8.13C37.93 8.13 37.93 8.13 37.94 8.13C38.05 8.14 38.16 8.17 38.26 8.19C38.5 8.24 38.74 8.31 38.97 8.4C38.98 8.4 39.01 8.42 39.04 8.43C39.05 8.43 39.08 8.44 39.13 8.46C39.14 8.46 39.15 8.47 39.15 8.47C39.16 8.47 39.16 8.48 39.17 8.48C39.16 8.48 39.16 8.48 39.16 8.48C39.28 8.54 39.4 8.6 39.53 8.66C39.76 8.79 39.98 8.93 40.2 9.09C40.24 9.12 40.28 9.15 40.32 9.18C40.32 9.18 40.32 9.18 40.32 9.18C40.44 9.28 40.56 9.39 40.68 9.49C40.89 9.69 41.1 9.9 41.29 10.12C41.38 10.22 41.46 10.33 41.55 10.43C41.56 10.44 41.56 10.44 41.57 10.45C41.62 10.52 41.67 10.59 41.72 10.66C42.12 11.23 42.46 11.83 42.74 12.46C42.77 12.53 42.8 12.59 42.83 12.66C42.84 12.7 42.86 12.74 42.86 12.76C42.93 12.92 42.99 13.1 43.05 13.27C43.18 13.65 43.28 14.04 43.38 14.43C43.5 14.96 44 15.25 44.51 15.29C44.65 15.31 44.78 15.32 44.92 15.34C44.93 15.34 44.94 15.34 44.95 15.34C45.03 15.36 45.11 15.36 45.2 15.38C45.59 15.45 45.99 15.54 46.38 15.66C46.59 15.72 46.8 15.79 47.01 15.87C47.12 15.91 47.22 15.95 47.32 15.99C47.39 16.02 47.46 16.06 47.53 16.09C47.88 16.25 48.23 16.44 48.56 16.65C48.69 16.72 48.81 16.81 48.94 16.89C49.02 16.95 49.1 17.01 49.18 17.06C49.22 17.09 49.26 17.12 49.3 17.16C49.74 17.53 50.17 17.9 50.56 18.33C50.67 18.45 50.78 18.57 50.89 18.7C50.94 18.76 50.99 18.83 51.05 18.89C51.05 18.89 51.05 18.9 51.05 18.9C51.05 18.9 51.05 18.9 51.05 18.89C50.96 18.73 51.06 18.92 51.09 18.95C51.31 19.26 51.52 19.57 51.7 19.9C51.79 20.06 51.87 20.22 51.95 20.37C51.98 20.44 52.03 20.62 52.08 20.67C52.1 20.71 52.11 20.75 52.13 20.79C52.27 21.18 52.38 21.58 52.47 21.98C52.49 22.07 52.5 22.17 52.52 22.26C52.53 22.32 52.54 22.37 52.55 22.43C52.58 22.56 52.54 22.32 52.54 22.32C52.59 22.51 52.58 22.75 52.59 22.95C52.61 23.35 52.6 23.76 52.56 24.16C52.55 24.23 52.54 24.3 52.54 24.37C52.52 24.41 52.52 24.47 52.51 24.51C52.48 24.72 52.43 24.92 52.39 25.13C52.29 25.53 52.17 25.92 52.02 26.3C52 26.34 51.99 26.38 51.97 26.42C51.92 26.55 51.91 26.53 51.93 26.49C51.89 26.58 51.84 26.71 51.83 26.74C51.73 26.95 51.62 27.15 51.51 27.35C51.28 27.77 51.02 28.16 50.73 28.54C50.71 28.57 50.69 28.59 50.69 28.6C50.67 28.62 50.65 28.63 50.64 28.65C50.56 28.74 50.49 28.84 50.41 28.93C50.24 29.12 50.06 29.31 49.87 29.49C49.7 29.67 49.52 29.84 49.33 30C49.24 30.08 49.14 30.16 49.05 30.24C49.01 30.27 48.98 30.3 48.94 30.33C48.92 30.34 48.91 30.35 48.9 30.36C48.9 30.36 48.89 30.37 48.88 30.37C48.45 30.7 48.2 31.14 48.34 31.69C48.47 32.24 48.64 32.83 48.67 33.4C48.67 33.38 48.67 33.36 48.67 33.34C48.67 33.38 48.67 33.43 48.67 33.45C48.68 33.51 48.69 33.57 48.69 33.63C48.71 33.79 48.72 33.95 48.73 34.1C48.76 34.46 48.76 34.83 48.76 35.19C48.75 35.54 48.73 35.88 48.7 36.23C48.69 36.33 48.68 36.44 48.67 36.55C48.67 36.56 48.67 36.57 48.67 36.58C48.64 36.8 48.6 37.01 48.56 37.22C48.46 37.7 48.33 38.18 48.17 38.65C48.11 38.83 48.05 39 47.98 39.17C47.98 39.18 47.97 39.18 47.97 39.19C47.92 39.29 47.88 39.39 47.83 39.49C47.66 39.84 47.47 40.19 47.27 40.53C46.77 41.37 46.21 42.16 45.66 42.96C44.86 44.12 44.05 45.27 43.28 46.45C42.79 47.2 42.31 47.96 41.84 48.73C40.64 47.82 39.45 46.92 38.25 46.01C38.03 45.84 37.61 45.82 37.35 45.89C37.08 45.96 36.78 46.17 36.65 46.42C36.5 46.7 36.43 47.03 36.53 47.33C36.62 47.64 36.8 47.83 37.06 48.03C38.24 48.93 39.43 49.82 40.61 50.72C39.42 52.64 38.19 54.55 36.97 56.46C35.27 59.17 33.57 61.88 31.89 64.6C31.57 65.13 31.75 65.92 32.31 66.21C32.87 66.51 33.57 66.35 33.91 65.8C36.16 62.15 38.47 58.53 40.75 54.9C41.52 55.6 42.35 56.22 43.23 56.75C42.98 59.83 43.55 62.91 44.83 65.73C45.08 66.29 45.93 66.47 46.43 66.16C47.01 65.79 47.13 65.15 46.86 64.55C46.82 64.47 46.78 64.39 46.75 64.31C46.74 64.29 46.7 64.19 46.68 64.15C46.63 64.02 46.57 63.88 46.52 63.75C46.38 63.37 46.26 63 46.15 62.62C45.91 61.82 45.74 61.01 45.63 60.19C45.62 60.15 45.61 60.07 45.61 60.03C45.6 59.94 45.59 59.86 45.58 59.77C45.57 59.59 45.55 59.41 45.54 59.23C45.52 58.86 45.51 58.48 45.51 58.11C45.51 58.05 45.52 57.98 45.52 57.91C45.69 57.99 45.87 58.06 46.04 58.13C46.61 58.34 47.35 57.89 47.49 57.31C47.64 56.65 47.29 56.1 46.67 55.87C46.57 55.83 46.47 55.79 46.37 55.75C46.35 55.74 46.29 55.72 46.24 55.7C46.2 55.68 46.11 55.64 46.11 55.64C46.06 55.62 46.01 55.59 45.96 55.57C45.85 55.52 45.75 55.47 45.65 55.42C45.16 55.18 44.68 54.91 44.21 54.62C43.98 54.47 43.75 54.32 43.53 54.16C43.43 54.09 43.33 54.01 43.23 53.94C43.2 53.91 43.15 53.88 43.11 53.85C43.1 53.84 43.09 53.83 43.09 53.83C42.73 53.54 42.39 53.24 42.05 52.92C42.04 52.91 42.03 52.9 42.02 52.89C42.11 52.74 42.2 52.59 42.3 52.44C43.16 51.07 44 49.67 44.87 48.31C45.67 47.07 46.5 45.86 47.34 44.65C48.43 43.07 49.57 41.5 50.28 39.7C51.25 37.21 51.3 34.43 50.77 31.83C52.07 30.72 53.17 29.4 53.89 27.85C54.69 26.15 55.12 24.25 54.9 22.37C54.88 22.21 54.85 22.05 54.82 21.89C54.87 21.83 54.92 21.77 54.96 21.7C57.33 18.04 59.41 14.1 60.7 9.91C60.84 9.46 60.95 8.99 61.02 8.53C61.22 8.44 61.39 8.29 61.49 8.08C61.87 7.32 62.3 6.59 62.79 5.9C62.89 5.76 62.99 5.62 63.1 5.48C63.1 5.48 63.1 5.48 63.1 5.48C63.11 5.47 63.11 5.47 63.12 5.46C63.19 5.37 63.25 5.29 63.32 5.22C63.51 4.99 63.7 4.78 63.9 4.56C64.42 4 64.96 3.46 65.54 2.96C65.57 2.94 65.6 2.91 65.62 2.9C65.68 2.85 65.75 2.8 65.82 2.76C65.97 2.67 66.12 2.59 66.28 2.51C66.28 2.5 66.29 2.5 66.29 2.5C66.37 2.47 66.44 2.45 66.52 2.42C66.6 2.4 66.67 2.38 66.75 2.36C66.79 2.35 66.83 2.35 66.87 2.34C66.87 2.33 66.88 2.33 66.91 2.33C66.92 2.33 66.92 2.33 66.92 2.33C66.92 2.33 66.92 2.33 66.92 2.33C66.95 2.33 66.98 2.32 67.01 2.32C67.08 2.32 67.15 2.31 67.22 2.31C67.39 2.31 67.55 2.32 67.72 2.34C67.73 2.34 67.79 2.35 67.82 2.35C67.86 2.35 67.9 2.36 67.95 2.37C68.11 2.41 68.28 2.45 68.45 2.51C68.47 2.52 68.5 2.53 68.52 2.54C68.57 2.57 68.63 2.59 68.68 2.61C68.75 2.65 68.82 2.69 68.89 2.74C68.91 2.75 68.93 2.77 68.96 2.78C69.04 2.86 69.12 2.97 69.21 3.05C69.23 3.1 69.26 3.15 69.29 3.19C69.3 3.22 69.31 3.25 69.32 3.28C69.33 3.33 69.34 3.38 69.35 3.43C69.36 3.54 69.37 3.65 69.37 3.77C69.36 3.93 69.35 4.09 69.33 4.25C69.33 4.25 69.33 4.26 69.33 4.26C69.32 4.36 69.3 4.45 69.28 4.55C69.19 5.02 69.06 5.49 68.92 5.96C68.72 6.59 68.5 7.22 68.26 7.85C68.11 8.22 67.97 8.59 67.81 8.96C67.74 9.16 67.65 9.35 67.57 9.55C67.55 9.6 67.53 9.65 67.51 9.7C67.51 9.7 67.49 9.73 67.48 9.76C67.47 9.79 67.45 9.83 67.45 9.83C67.42 9.9 67.39 9.97 67.36 10.04C66.03 13.11 64.48 16.07 62.88 19.01C61.42 21.67 59.98 24.35 58.58 27.05C58.36 27.48 58.15 27.9 57.93 28.32C57.65 28.87 57.76 29.62 58.34 29.93C58.88 30.21 59.65 30.1 59.95 29.51C61.44 26.6 62.98 23.71 64.55 20.84C66.21 17.79 67.84 14.73 69.24 11.56C69.92 10 70.6 8.42 71.12 6.79C71.33 6.13 71.52 5.44 71.63 4.74C71.97 4.71 72.28 4.52 72.51 4.2C72.61 4.09 72.72 3.97 72.83 3.86C72.96 3.73 73.09 3.62 73.23 3.5C73.26 3.48 73.29 3.46 73.32 3.44C73.44 3.36 73.56 3.29 73.68 3.22C73.78 3.16 73.89 3.11 73.99 3.06C74 3.06 74 3.06 74 3.06C74.05 3.04 74.1 3.02 74.15 3.01C74.29 2.96 74.44 2.93 74.58 2.9C74.63 2.89 74.69 2.87 74.75 2.87C74.79 2.87 74.84 2.87 74.86 2.87C75.04 2.86 75.21 2.87 75.38 2.88C75.4 2.88 75.41 2.88 75.42 2.88C75.49 2.9 75.57 2.92 75.62 2.94C75.77 2.97 75.91 3.02 76.06 3.07C76.07 3.07 76.07 3.07 76.08 3.07C76.17 3.12 76.26 3.16 76.34 3.2C76.47 3.27 76.59 3.34 76.71 3.42C76.75 3.45 76.79 3.48 76.83 3.51C76.84 3.52 76.85 3.53 76.87 3.54C76.92 3.59 77.28 3.97 77.41 4.11C77.38 4.06 77.36 4.02 77.45 4.15C77.46 4.16 77.47 4.16 77.47 4.16C77.47 4.16 77.46 4.16 77.46 4.16C77.49 4.2 77.52 4.25 77.55 4.3C77.6 4.37 77.78 4.61 77.76 4.69C77.76 4.68 77.66 4.42 77.74 4.63C77.76 4.71 77.79 4.78 77.81 4.86C77.86 5.02 77.89 5.17 77.92 5.33C77.93 5.37 77.93 5.39 77.94 5.4C77.94 5.44 77.94 5.48 77.94 5.5C77.95 5.64 77.95 5.78 77.95 5.92C77.94 6.06 77.94 6.19 77.93 6.33C77.92 6.41 77.93 6.52 77.9 6.59C77.9 6.54 77.91 6.49 77.92 6.45C77.91 6.51 77.9 6.56 77.89 6.62C77.78 7.24 77.6 7.85 77.38 8.44C77.33 8.59 77.27 8.74 77.21 8.89C77.19 8.95 77.16 9 77.14 9.05C77.14 9.06 77.14 9.06 77.14 9.06C77.14 9.07 77.13 9.08 77.12 9.09C77 9.38 76.87 9.66 76.73 9.94C76.49 10.43 76.23 10.92 75.97 11.4C75.35 12.59 74.72 13.77 74.09 14.95C72.73 17.49 71.37 20.04 69.99 22.58C68.29 25.71 66.59 28.83 64.86 31.95C64.57 32.49 64.71 33.25 65.28 33.55C65.82 33.85 66.57 33.71 66.88 33.14C69.99 27.52 73.04 21.88 76.06 16.22C76.72 14.99 77.38 13.75 78.04 12.51C78.54 11.56 79.04 10.59 79.45 9.58C79.59 9.56 79.74 9.51 79.87 9.43C80.01 9.34 80.16 9.25 80.31 9.17C80.4 9.12 80.49 9.08 80.58 9.04C80.59 9.03 80.59 9.03 80.59 9.03C80.86 8.93 81.17 8.81 81.47 8.78C81.5 8.78 81.55 8.78 81.58 8.78C81.66 8.77 81.73 8.77 81.81 8.77C81.9 8.77 82.16 8.74 82.24 8.79C82.2 8.79 82.15 8.78 82.1 8.77C82.15 8.78 82.19 8.79 82.23 8.79C82.3 8.8 82.37 8.82 82.44 8.84C82.5 8.86 82.57 8.88 82.64 8.9C82.67 8.91 82.69 8.92 82.7 8.92C82.71 8.92 82.71 8.93 82.71 8.93C82.83 8.99 82.95 9.06 83.07 9.14C83.08 9.15 83.1 9.15 83.11 9.16C83.15 9.19 83.19 9.24 83.22 9.27C83.26 9.31 83.3 9.35 83.33 9.39C83.35 9.4 83.37 9.42 83.38 9.44C83.46 9.54 83.45 9.52 83.35 9.39C83.42 9.41 83.53 9.67 83.57 9.74C83.63 9.83 83.67 9.93 83.71 10.02C83.73 10.06 83.74 10.1 83.75 10.14C83.82 10.35 83.88 10.57 83.93 10.79C83.96 10.93 83.98 11.08 84 11.23C84 11.24 84 11.25 84 11.27C84.01 11.34 84.01 11.41 84.01 11.48C84.02 11.67 84.02 11.88 84.01 12.08C84.01 12.14 84 12.21 84 12.27C84 12.29 83.99 12.31 83.99 12.32C83.99 12.33 83.99 12.33 83.99 12.34C83.96 12.5 83.93 12.66 83.89 12.81C83.81 13.14 83.71 13.46 83.58 13.78C83.56 13.82 83.55 13.88 83.53 13.92C83.52 13.93 83.51 13.95 83.5 13.96C83.44 14.1 83.38 14.23 83.31 14.36C83.17 14.64 83.03 14.91 82.88 15.17C82.54 15.77 82.2 16.36 81.89 16.98C81.21 18.3 80.62 19.66 79.98 21C79.41 22.18 78.78 23.32 78.08 24.44C77.02 26.17 75.98 27.91 74.96 29.67C73.52 32.13 72.12 34.61 70.75 37.11C67.68 36.33 64.35 36.68 61.54 38.17C59.04 39.49 57.06 41.74 55.91 44.31C55.58 45.04 55.28 45.79 55.09 46.56C54.95 47.16 55.28 47.86 55.91 48.01C56.51 48.15 57.2 47.83 57.35 47.2C57.49 46.65 57.67 46.13 57.88 45.61C57.88 45.6 57.89 45.59 57.89 45.58C57.9 45.57 57.9 45.56 57.91 45.55C57.95 45.44 58.01 45.33 58.06 45.22C58.17 44.99 58.29 44.76 58.41 44.53C58.69 44.02 59.01 43.51 59.36 43.04C59.4 43 59.44 42.95 59.47 42.9C59.48 42.89 59.49 42.88 59.5 42.86C59.61 42.73 59.72 42.6 59.83 42.48C60.05 42.23 60.29 41.98 60.53 41.75C60.78 41.52 61.03 41.3 61.3 41.09C61.33 41.07 61.36 41.04 61.39 41.02C61.46 40.97 61.52 40.93 61.59 40.88C61.75 40.76 61.92 40.66 62.08 40.56C62.43 40.34 62.79 40.15 63.15 39.97C63.24 39.93 63.33 39.89 63.42 39.85C63.42 39.85 63.46 39.83 63.49 39.82C63.53 39.8 63.61 39.77 63.62 39.76C63.86 39.67 64.11 39.58 64.36 39.51C64.81 39.37 65.26 39.26 65.73 39.17C65.82 39.16 65.92 39.14 66.02 39.13C66.04 39.12 66.05 39.12 66.07 39.12C66.09 39.12 66.12 39.11 66.14 39.11C66.36 39.09 66.58 39.07 66.79 39.05C67.23 39.03 67.68 39.03 68.12 39.05C68.31 39.06 68.5 39.08 68.69 39.09C68.78 39.1 68.86 39.11 68.94 39.12C68.96 39.13 68.98 39.13 68.99 39.13C69.06 39.14 69.12 39.15 69.18 39.16C69.06 39.25 68.94 39.34 68.82 39.43C68.39 39.75 67.96 40.08 67.53 40.4C67.03 40.76 66.73 41.42 67.1 42C67.41 42.48 68.18 42.82 68.7 42.43C70.93 40.78 73.11 39.07 75.27 37.33C75.73 36.96 76.19 36.59 76.66 36.23C76.71 36.19 76.77 36.14 76.82 36.1C76.85 36.08 76.89 36.05 76.92 36.03C77.08 35.91 77.23 35.79 77.4 35.67C77.71 35.44 78.02 35.2 78.34 34.97C79.25 34.29 80.16 33.6 81.16 33.05C81.32 32.97 81.47 32.9 81.63 32.82C81.62 32.82 81.61 32.82 81.6 32.83C81.62 32.82 81.63 32.82 81.65 32.81C81.66 32.81 81.67 32.8 81.68 32.79C81.71 32.79 81.73 32.78 81.75 32.77L81.75 32.77C81.84 32.74 81.94 32.71 82.04 32.68C82.19 32.64 82.35 32.62 82.5 32.58C82.46 32.59 82.43 32.6 82.4 32.6C82.44 32.6 82.48 32.59 82.51 32.59C82.79 32.58 83.06 32.59 83.34 32.61C83.42 32.62 83.52 32.64 83.6 32.64C83.57 32.64 83.54 32.64 83.52 32.64C83.56 32.65 83.61 32.65 83.64 32.66C83.88 32.7 84.11 32.75 84.34 32.82C84.45 32.86 84.56 32.9 84.67 32.94C84.67 32.93 84.66 32.93 84.65 32.93C84.66 32.93 84.67 32.94 84.68 32.94C84.7 32.95 84.71 32.96 84.73 32.96C84.76 32.97 84.78 32.98 84.79 32.99C84.81 33 84.83 33.01 84.85 33.02C84.96 33.08 85.07 33.13 85.18 33.2C85.23 33.23 85.38 33.3 85.48 33.37C85.48 33.38 85.5 33.4 85.54 33.44C85.59 33.48 85.64 33.53 85.69 33.57C85.79 33.67 85.88 33.77 85.97 33.87C85.98 33.88 86 33.9 86.02 33.91C86.01 33.91 86.01 33.91 86.01 33.91C86.06 33.96 86.1 34.04 86.14 34.1C86.24 34.26 86.31 34.42 86.4 34.59C86.41 34.59 86.41 34.59 86.41 34.59C86.43 34.67 86.46 34.75 86.49 34.84C86.53 34.97 86.57 35.11 86.6 35.25C86.61 35.31 86.63 35.38 86.64 35.45C86.65 35.53 86.66 35.55 86.67 35.55C86.68 35.67 86.68 35.84 86.68 35.88C86.68 36.12 86.68 36.36 86.66 36.6C86.65 36.69 86.62 36.81 86.63 36.91C86.62 36.93 86.62 36.95 86.62 36.97C86.56 37.26 86.49 37.55 86.38 37.84C86.37 37.87 86.36 37.91 86.34 37.95C86.3 38.03 86.26 38.12 86.22 38.2C86.12 38.38 86 38.55 85.88 38.72C85.88 38.72 85.88 38.72 85.88 38.73C85.87 38.73 85.87 38.74 85.86 38.75C85.79 38.82 85.73 38.89 85.67 38.96C85.52 39.12 85.35 39.27 85.18 39.42C85.1 39.49 85.01 39.57 84.93 39.63C84.9 39.66 84.86 39.68 84.83 39.71C84.84 39.7 84.85 39.69 84.86 39.68C84.67 39.82 84.47 39.96 84.27 40.09C83.33 40.71 82.34 41.27 81.39 41.88C80.1 42.68 78.86 43.55 77.67 44.5C76.89 45.11 76.15 45.77 75.48 46.49C74.99 47.02 74.54 47.59 74.08 48.15C72.58 49.94 70.81 51.44 69 52.91C68.72 53.13 68.44 53.35 68.16 53.57C68.02 53.68 67.88 53.79 67.74 53.9C67.73 53.9 67.72 53.92 67.7 53.93C67.62 53.99 67.53 54.06 67.44 54.12C66.93 54.51 66.4 54.88 65.86 55.23C65.32 55.59 64.75 55.92 64.18 56.22C63.91 56.36 63.65 56.49 63.38 56.61C63.29 56.64 63.21 56.68 63.13 56.71C63.12 56.72 63.11 56.72 63.1 56.73C62.94 56.8 62.78 56.85 62.62 56.92C61.95 57.16 61.26 57.36 60.57 57.52C60.21 57.61 59.84 57.68 59.47 57.74C59.37 57.76 59.26 57.77 59.15 57.79C59.16 57.79 59.02 57.81 58.97 57.81C58.91 57.82 58.83 57.83 58.83 57.83C58.69 57.85 58.56 57.86 58.42 57.87C57.11 57.98 55.79 57.95 54.49 57.79C54.44 57.79 54.39 57.78 54.33 57.77C54.33 57.77 54.33 57.77 54.33 57.77C54.21 57.76 54.1 57.74 53.98 57.72C53.74 57.68 53.49 57.63 53.25 57.59C52.65 57.47 51.95 57.75 51.8 58.4C51.67 58.98 51.97 59.72 52.62 59.84C55.45 60.41 58.36 60.44 61.19 59.79C62.15 59.56 63.08 59.25 63.98 58.88C63.99 58.92 64 58.96 64.03 59C65.09 61.21 66.32 63.34 67.71 65.36C68.06 65.87 68.75 66.15 69.31 65.79C69.81 65.47 70.11 64.73 69.74 64.19C68.36 62.17 67.13 60.05 66.07 57.84C66.98 57.32 67.85 56.73 68.7 56.09C69.99 55.12 71.26 54.11 72.48 53.06C73.37 52.3 74.22 51.51 75 50.65C76.11 49.44 77.06 48.12 78.29 47.03C78.73 46.64 79.19 46.27 79.65 45.91C79.68 45.89 79.71 45.86 79.73 45.85C79.8 45.79 79.88 45.73 79.96 45.68C80.12 45.56 80.28 45.44 80.45 45.32C80.78 45.08 81.11 44.86 81.44 44.63C82.52 43.91 83.64 43.26 84.74 42.58C85.6 42.04 86.48 41.47 87.2 40.75C87.94 40.01 88.48 39.11 88.76 38.11C89.01 37.27 89.09 36.33 88.99 35.44ZM9.84 26.41C9.83 26.39 9.83 26.38 9.82 26.37C9.75 26.21 9.81 26.34 9.84 26.41ZM57.4 5.52C57.4 5.52 57.37 5.52 57.35 5.5C57.37 5.51 57.4 5.52 57.4 5.52ZM54.91 5.6C55.05 5.48 54.99 5.56 54.9 5.61C54.9 5.61 54.91 5.61 54.91 5.6ZM54.43 6.1C54.42 6.1 54.39 6.14 54.36 6.18C54.38 6.14 54.4 6.11 54.43 6.1ZM57.16 12.77C57.09 12.93 57.17 12.76 57.19 12.7C57.18 12.73 57.17 12.75 57.16 12.77ZM58.77 8C58.76 8.02 58.75 8.04 58.74 8.07C58.56 8.6 58.51 9.02 58.49 9.14C58.44 9.46 58.22 10.04 57.8 11.18C57.66 11.56 57.51 11.94 57.36 12.31C57.31 12.42 57.27 12.53 57.22 12.64C57.21 12.66 57.2 12.68 57.19 12.7C57.07 12.92 56.99 13.16 56.89 13.39C56.01 15.34 54.99 17.23 53.88 19.05C53.67 18.65 53.43 18.27 53.18 17.89C53.18 17.89 53.18 17.89 53.18 17.89C53.63 17.6 53.65 16.81 53.68 16.19C53.71 15.33 53.47 14.65 53.3 14.27C52.78 14.29 52.04 14.37 51.2 14.66C50.82 14.79 50.51 14.89 50.27 15C50.17 14.92 50.06 14.85 49.95 14.77C49.62 14.56 49.28 14.37 48.94 14.2C49.38 13.37 49.78 12.73 50.05 12.31C51.26 10.41 52.46 9.03 53.29 7.81C53.8 7.05 54.31 6.27 54.31 6.27C54.32 6.25 54.33 6.23 54.35 6.2C54.36 6.19 54.37 6.18 54.39 6.16C54.46 6.07 54.52 5.99 54.6 5.91C54.66 5.84 54.73 5.76 54.81 5.69C54.84 5.67 54.87 5.64 54.89 5.62C54.99 5.57 55.1 5.51 55.21 5.44C55.24 5.43 55.35 5.37 55.42 5.35C55.52 5.32 55.63 5.29 55.74 5.28C55.78 5.27 55.83 5.27 55.88 5.26C55.85 5.26 55.84 5.26 55.82 5.27C55.92 5.26 56.02 5.26 56.12 5.26C56.21 5.26 56.31 5.26 56.41 5.27C56.46 5.27 56.51 5.28 56.56 5.28C56.56 5.28 56.56 5.28 56.57 5.29C56.79 5.33 57.01 5.38 57.22 5.46C57.23 5.46 57.29 5.49 57.33 5.5C57.44 5.56 57.55 5.61 57.66 5.68C57.71 5.7 57.97 5.84 57.98 5.89C57.98 5.89 57.76 5.7 57.93 5.85C57.97 5.88 58.01 5.92 58.04 5.96C58.14 6.04 58.22 6.14 58.3 6.22C58.3 6.21 58.29 6.2 58.29 6.19C58.29 6.2 58.3 6.22 58.31 6.23C58.32 6.23 58.32 6.24 58.32 6.24C58.34 6.26 58.36 6.29 58.36 6.3C58.38 6.33 58.41 6.36 58.43 6.39C58.5 6.51 58.56 6.63 58.63 6.75C58.63 6.75 58.63 6.75 58.63 6.76C58.65 6.84 58.68 6.92 58.7 6.99C58.71 7.04 58.73 7.13 58.75 7.19C58.78 7.34 58.77 7.53 58.77 7.68C58.77 7.74 58.78 7.89 58.77 8ZM77.93 5.28C77.94 5.29 77.95 5.34 77.95 5.38C77.94 5.34 77.93 5.28 77.93 5.28ZM68.97 39.15C68.98 39.15 68.98 39.15 68.98 39.15C68.92 39.14 68.88 39.13 68.97 39.15ZM69.02 39.15C69.04 39.16 69.06 39.16 69.09 39.16C69.07 39.16 69.05 39.16 69.02 39.15Z" fill="#000000" fill-opacity="1.000000" fill-rule="nonzero"/>
</svg>
