<svg width="40.000000" height="87.000000" viewBox="0 0 40 87" fill="none" xmlns="http://www.w3.org/2000/svg" xmlns:xlink="http://www.w3.org/1999/xlink">
	<desc>
			Created with Pixso.
	</desc>
	<defs/>
	<path id="Vector" d="M35.07 57.52C35.56 57.42 38.07 56.84 39 54.28C39.8 52.11 38.88 50.13 38.72 49.77C37.5 47.12 34.91 46.65 34.63 46.61C34.14 46.53 32.44 46.25 31.05 47.4C28.91 49.16 29.11 52.95 30.05 55.07C30.43 55.93 30.87 56.39 30.98 56.49C32.53 58.03 34.73 57.59 35.07 57.52Z" fill="#E8E3E3" fill-opacity="1.000000" fill-rule="nonzero"/>
	<path id="Vector" d="M37.86 44.79C38.57 44.47 38.7 42.81 38.43 41.7C38.05 40.12 36.71 38.98 35.71 39.01C35.6 39.01 35.29 39.02 35 39.25C34.55 39.59 34.46 40.2 34.43 40.43C34.16 42.16 36.7 45.3 37.86 44.79Z" fill="#E8E3E3" fill-opacity="1.000000" fill-rule="nonzero"/>
	<path id="Vector" d="M31.91 43.68C32.62 43.36 32.75 41.7 32.49 40.59C32.1 39.01 30.76 37.87 29.76 37.9C29.65 37.9 29.34 37.92 29.05 38.14C28.6 38.48 28.51 39.09 28.48 39.32C28.22 41.05 30.75 44.19 31.91 43.68Z" fill="#E8E3E3" fill-opacity="1.000000" fill-rule="nonzero"/>
	<path id="Vector" d="M27.11 47.63C27.82 47.32 27.95 45.66 27.69 44.55C27.31 42.97 25.96 41.83 24.97 41.86C24.85 41.86 24.54 41.87 24.25 42.1C23.8 42.44 23.71 43.05 23.68 43.28C23.42 45.01 25.95 48.15 27.11 47.63Z" fill="#E8E3E3" fill-opacity="1.000000" fill-rule="nonzero"/>
	<path id="Vector" d="M26.99 53.82C27.61 53.32 27.36 51.67 26.86 50.67C26.14 49.24 24.58 48.5 23.62 48.8C23.51 48.84 23.21 48.93 22.98 49.22C22.63 49.68 22.67 50.3 22.69 50.53C22.82 52.27 25.98 54.63 26.99 53.82Z" fill="#E8E3E3" fill-opacity="1.000000" fill-rule="nonzero"/>
	<path id="Vector" d="M12.38 86.89C12.88 86.79 15.38 86.2 16.32 83.64C17.11 81.48 16.2 79.49 16.04 79.13C14.81 76.48 12.22 76.01 11.95 75.97C11.46 75.89 9.76 75.61 8.37 76.76C6.23 78.52 6.43 82.31 7.37 84.43C7.75 85.3 8.19 85.75 8.3 85.86C9.85 87.4 12.05 86.95 12.38 86.89Z" fill="#E8E3E3" fill-opacity="1.000000" fill-rule="nonzero"/>
	<path id="Vector" d="M15.18 74.15C15.89 73.83 16.02 72.17 15.75 71.06C15.37 69.48 14.03 68.34 13.03 68.37C12.92 68.38 12.6 68.39 12.31 68.61C11.87 68.95 11.78 69.56 11.74 69.8C11.48 71.52 14.02 74.66 15.18 74.15Z" fill="#E8E3E3" fill-opacity="1.000000" fill-rule="nonzero"/>
	<path id="Vector" d="M9.23 73.04C9.94 72.73 10.07 71.06 9.8 69.96C9.42 68.38 8.08 67.23 7.08 67.26C6.97 67.27 6.66 67.28 6.36 67.5C5.92 67.84 5.83 68.46 5.79 68.69C5.53 70.41 8.07 73.55 9.23 73.04Z" fill="#E8E3E3" fill-opacity="1.000000" fill-rule="nonzero"/>
	<path id="Vector" d="M4.43 77C5.14 76.68 5.27 75.02 5 73.91C4.62 72.33 3.28 71.19 2.28 71.22C2.17 71.22 1.86 71.23 1.57 71.46C1.12 71.8 1.03 72.41 0.99 72.64C0.73 74.37 3.27 77.51 4.43 77Z" fill="#E8E3E3" fill-opacity="1.000000" fill-rule="nonzero"/>
	<path id="Vector" d="M4.3 83.18C4.93 82.68 4.68 81.04 4.18 80.03C3.46 78.61 1.9 77.86 0.94 78.16C0.83 78.2 0.53 78.29 0.3 78.59C-0.06 79.04 -0.01 79.66 0.01 79.89C0.14 81.63 3.29 83.99 4.3 83.18Z" fill="#E8E3E3" fill-opacity="1.000000" fill-rule="nonzero"/>
	<path id="Vector" d="M29.61 19.62C30.11 19.52 32.61 18.93 33.55 16.37C34.34 14.21 33.43 12.22 33.26 11.86C32.04 9.21 29.45 8.74 29.18 8.7C28.69 8.62 26.99 8.34 25.6 9.49C23.46 11.25 23.66 15.04 24.6 17.16C24.98 18.03 25.42 18.48 25.53 18.59C27.07 20.13 29.27 19.69 29.61 19.62Z" fill="#E8E3E3" fill-opacity="1.000000" fill-rule="nonzero"/>
	<path id="Vector" d="M32.4 6.88C33.12 6.57 33.24 4.9 32.98 3.79C32.6 2.22 31.25 1.07 30.26 1.1C30.14 1.11 29.83 1.12 29.54 1.34C29.09 1.68 29 2.3 28.97 2.53C28.71 4.26 31.24 7.39 32.4 6.88Z" fill="#E8E3E3" fill-opacity="1.000000" fill-rule="nonzero"/>
	<path id="Vector" d="M26.45 5.77C27.17 5.46 27.29 3.79 27.03 2.69C26.65 1.11 25.3 -0.04 24.3 0C24.19 0 23.88 0.01 23.59 0.23C23.14 0.57 23.05 1.19 23.02 1.42C22.76 3.14 25.29 6.28 26.45 5.77Z" fill="#E8E3E3" fill-opacity="1.000000" fill-rule="nonzero"/>
	<path id="Vector" d="M21.66 9.73C22.37 9.41 22.5 7.75 22.23 6.64C21.85 5.06 20.5 3.92 19.51 3.95C19.39 3.95 19.08 3.97 18.79 4.19C18.35 4.53 18.25 5.14 18.22 5.37C17.96 7.1 20.49 10.24 21.66 9.73Z" fill="#E8E3E3" fill-opacity="1.000000" fill-rule="nonzero"/>
	<path id="Vector" d="M21.53 15.91C22.15 15.41 21.91 13.77 21.4 12.77C20.68 11.34 19.12 10.59 18.17 10.89C18.05 10.93 17.76 11.02 17.53 11.32C17.17 11.77 17.22 12.39 17.23 12.62C17.36 14.36 20.52 16.72 21.53 15.91Z" fill="#E8E3E3" fill-opacity="1.000000" fill-rule="nonzero"/>
</svg>
