<svg width="42.000000" height="82.000000" viewBox="0 0 42 82" fill="none" xmlns="http://www.w3.org/2000/svg" xmlns:xlink="http://www.w3.org/1999/xlink">
	<desc>
			Created with Pixso.
	</desc>
	<defs/>
	<path id="Vector" d="M4.38 54.22C3.87 54.13 1.29 53.59 0.32 51.23C-0.49 49.23 0.45 47.4 0.62 47.07C1.88 44.63 4.55 44.19 4.83 44.15C5.33 44.08 7.09 43.82 8.52 44.88C10.72 46.5 10.52 50 9.55 51.96C9.16 52.75 8.7 53.17 8.59 53.27C7 54.69 4.73 54.28 4.38 54.22Z" fill="#E8E3E3" fill-opacity="1.000000" fill-rule="nonzero"/>
	<path id="Vector" d="M1.89 42.99C1.01 42.65 0.85 40.9 1.18 39.73C1.65 38.07 3.31 36.86 4.53 36.9C4.67 36.9 5.06 36.91 5.42 37.15C5.97 37.51 6.08 38.15 6.12 38.4C6.44 40.22 3.32 43.53 1.89 42.99Z" fill="#E8E3E3" fill-opacity="1.000000" fill-rule="nonzero"/>
	<path id="Vector" d="M7.86 41.97C7.16 41.69 7.03 40.23 7.3 39.26C7.67 37.87 9 36.87 9.98 36.9C10.09 36.9 10.4 36.91 10.69 37.1C11.13 37.4 11.22 37.94 11.25 38.15C11.51 39.66 9.01 42.42 7.86 41.97Z" fill="#E8E3E3" fill-opacity="1.000000" fill-rule="nonzero"/>
	<path id="Vector" d="M12.99 45.05C12.29 44.77 12.16 43.31 12.42 42.34C12.8 40.95 14.12 39.94 15.11 39.97C15.22 39.97 15.53 39.98 15.81 40.18C16.25 40.48 16.34 41.02 16.38 41.22C16.63 42.74 14.13 45.5 12.99 45.05Z" fill="#E8E3E3" fill-opacity="1.000000" fill-rule="nonzero"/>
	<path id="Vector" d="M12.7 51.08C12.02 50.6 12.29 48.99 12.84 48.01C13.63 46.62 15.34 45.89 16.38 46.19C16.51 46.22 16.83 46.31 17.09 46.6C17.48 47.04 17.42 47.65 17.41 47.88C17.26 49.57 13.81 51.88 12.7 51.08Z" fill="#E8E3E3" fill-opacity="1.000000" fill-rule="nonzero"/>
	<path id="Vector" d="M27.96 81.89C27.45 81.8 24.87 81.26 23.9 78.9C23.08 76.91 24.02 75.07 24.19 74.74C25.45 72.3 28.12 71.87 28.4 71.83C28.91 71.75 30.66 71.5 32.09 72.56C34.3 74.18 34.09 77.67 33.13 79.63C32.74 80.43 32.28 80.85 32.17 80.95C30.57 82.36 28.3 81.95 27.96 81.89Z" fill="#E8E3E3" fill-opacity="1.000000" fill-rule="nonzero"/>
	<path id="Vector" d="M24.26 69.64C23.56 69.3 23.43 67.55 23.7 66.38C24.07 64.72 25.4 63.51 26.38 63.55C26.49 63.55 26.8 63.56 27.09 63.8C27.53 64.16 27.62 64.8 27.65 65.05C27.91 66.87 25.41 70.18 24.26 69.64Z" fill="#E8E3E3" fill-opacity="1.000000" fill-rule="nonzero"/>
	<path id="Vector" d="M30.59 68.61C29.71 68.28 29.55 66.53 29.88 65.36C30.35 63.69 32.01 62.49 33.23 62.52C33.37 62.52 33.76 62.54 34.12 62.77C34.67 63.13 34.78 63.78 34.82 64.02C35.14 65.84 32.02 69.15 30.59 68.61Z" fill="#E8E3E3" fill-opacity="1.000000" fill-rule="nonzero"/>
	<path id="Vector" d="M36.56 72.72C35.86 72.45 35.73 70.98 36 70.01C36.37 68.62 37.7 67.62 38.68 67.65C38.79 67.65 39.1 67.66 39.39 67.85C39.83 68.15 39.92 68.69 39.95 68.9C40.21 70.41 37.71 73.17 36.56 72.72Z" fill="#E8E3E3" fill-opacity="1.000000" fill-rule="nonzero"/>
	<path id="Vector" d="M36.27 77.77C35.59 77.38 35.86 76.09 36.41 75.31C37.2 74.19 38.91 73.61 39.96 73.85C40.08 73.87 40.41 73.95 40.66 74.18C41.05 74.53 41 75.02 40.98 75.2C40.84 76.56 37.38 78.4 36.27 77.77Z" fill="#E8E3E3" fill-opacity="1.000000" fill-rule="nonzero"/>
	<path id="Vector" d="M10.53 19.37C10.02 19.28 7.44 18.74 6.47 16.38C5.66 14.38 6.6 12.55 6.77 12.22C8.03 9.78 10.7 9.34 10.98 9.3C11.48 9.23 13.24 8.97 14.67 10.03C16.87 11.65 16.67 15.15 15.7 17.11C15.31 17.9 14.85 18.32 14.74 18.42C13.15 19.84 10.88 19.43 10.53 19.37Z" fill="#E8E3E3" fill-opacity="1.000000" fill-rule="nonzero"/>
	<path id="Vector" d="M7.86 7.11C7.16 6.78 7.03 5.03 7.3 3.86C7.67 2.19 9 0.99 9.98 1.02C10.09 1.02 10.4 1.04 10.69 1.27C11.13 1.63 11.22 2.28 11.25 2.52C11.51 4.34 9.01 7.65 7.86 7.11Z" fill="#E8E3E3" fill-opacity="1.000000" fill-rule="nonzero"/>
	<path id="Vector" d="M14.01 6.09C13.31 5.75 13.18 4 13.45 2.83C13.82 1.17 15.15 -0.04 16.13 0C16.24 0 16.55 0.01 16.84 0.25C17.28 0.61 17.37 1.25 17.4 1.5C17.66 3.32 15.16 6.63 14.01 6.09Z" fill="#E8E3E3" fill-opacity="1.000000" fill-rule="nonzero"/>
	<path id="Vector" d="M18.11 10.19C17.41 9.85 17.28 8.1 17.55 6.93C17.92 5.27 19.25 4.06 20.23 4.1C20.34 4.1 20.65 4.11 20.94 4.35C21.38 4.71 21.47 5.35 21.5 5.6C21.76 7.42 19.26 10.73 18.11 10.19Z" fill="#E8E3E3" fill-opacity="1.000000" fill-rule="nonzero"/>
	<path id="Vector" d="M18.77 15.24C18.22 14.85 18.44 13.57 18.88 12.78C19.51 11.67 20.88 11.09 21.72 11.32C21.82 11.35 22.08 11.42 22.28 11.65C22.59 12.01 22.55 12.49 22.54 12.67C22.42 14.03 19.65 15.88 18.77 15.24Z" fill="#E8E3E3" fill-opacity="1.000000" fill-rule="nonzero"/>
</svg>
