<svg width="15.000000" height="15.000000" viewBox="0 0 15 15" fill="none" xmlns="http://www.w3.org/2000/svg" xmlns:xlink="http://www.w3.org/1999/xlink">
	<desc>
			Created with Pixso.
	</desc>
	<defs/>
	<path id="Vector" d="M7.48 15C7.01 15 6.63 14.84 6.32 14.53C6.01 14.23 5.86 13.84 5.86 13.38L5.86 9.13L1.61 9.13C1.15 9.13 0.76 8.97 0.46 8.65C0.15 8.34 0 7.94 0 7.48C0 7.01 0.15 6.63 0.46 6.32C0.76 6.02 1.15 5.86 1.61 5.86L5.86 5.86L5.86 1.61C5.86 1.17 6.03 0.79 6.35 0.47C6.68 0.15 7.06 0 7.48 0C7.97 0 8.36 0.15 8.65 0.46C8.95 0.76 9.1 1.15 9.1 1.61L9.1 5.86L13.35 5.86C13.79 5.86 14.18 6.02 14.5 6.34C14.83 6.65 15 7.04 15 7.51C15 7.95 14.83 8.34 14.5 8.65C14.17 8.97 13.79 9.13 13.35 9.13L9.1 9.13L9.1 13.38C9.1 13.84 8.95 14.23 8.65 14.53C8.36 14.84 7.96 15 7.48 15Z" fill="#000000" fill-opacity="1.000000" fill-rule="nonzero"/>
</svg>
