<svg width="20.000000" height="21.000000" viewBox="0 0 20 21" fill="none" xmlns="http://www.w3.org/2000/svg" xmlns:xlink="http://www.w3.org/1999/xlink">
	<desc>
			Created with Pixso.
	</desc>
	<defs>
		<clipPath id="clip1_1236">
			<rect id="Frame" width="20.000000" height="21.000000" fill="white" fill-opacity="0"/>
		</clipPath>
	</defs>
	<rect id="Frame" width="20.000000" height="21.000000" fill="#FFFFFF" fill-opacity="0"/>
	<g clip-path="url(#clip1_1236)">
		<path id="Vector" d="M9.9758 21C9.37045 21 8.83777 20.7964 8.45038 20.3636C8.03873 19.9309 7.82083 19.3964 7.82083 18.7346L7.82083 12.8036L2.15497 12.8036C1.52542 12.8036 1.01694 12.5746 0.605316 12.1418C0.193695 11.6836 0 11.1236 0 10.4873C0 9.82544 0.193695 9.29092 0.605316 8.85818C1.01694 8.42545 1.52542 8.22183 2.15497 8.22183L7.82083 8.22183L7.82083 2.26544C7.82083 1.65454 8.03873 1.12 8.47458 0.661804C8.9104 0.229095 9.41888 0 9.9758 0C10.6295 0 11.138 0.203644 11.5496 0.636353C11.937 1.06909 12.1307 1.60364 12.1307 2.26544L12.1307 8.22183L17.7966 8.22183C18.3777 8.22183 18.9104 8.4509 19.3463 8.88364C19.7821 9.31638 20 9.87637 20 10.5382C20 11.1491 19.7821 11.6836 19.3463 12.1418C18.9104 12.5746 18.4019 12.8036 17.7966 12.8036L12.1307 12.8036L12.1307 18.76C12.1307 19.4218 11.937 19.9564 11.5496 20.3891C11.1622 20.7964 10.6295 21 9.9758 21Z" fill="#DE5922" fill-opacity="1.000000" fill-rule="nonzero"/>
	</g>
</svg>
