<svg width="15.000000" height="13.000000" viewBox="0 0 15 13" fill="none" xmlns="http://www.w3.org/2000/svg" xmlns:xlink="http://www.w3.org/1999/xlink">
	<desc>
			Created with Pixso.
	</desc>
	<defs/>
	<path id="Vector" d="M7.04 -0.07C8.83 -0.07 10.62 -0.08 12.42 -0.07C14.06 -0.07 14.96 0.82 14.96 2.43C14.97 4.92 14.97 7.42 14.96 9.92C14.96 11.48 14.05 12.37 12.45 12.38C8.84 12.38 5.23 12.38 1.62 12.38C0.01 12.37 -0.89 11.48 -0.9 9.91C-0.9 7.39 -0.9 4.88 -0.9 2.36C-0.89 0.83 0.03 -0.07 1.59 -0.07C3.41 -0.08 5.22 -0.07 7.04 -0.07ZM6.98 10.39C8.75 10.39 10.52 10.38 12.29 10.4C12.79 10.41 12.96 10.26 12.96 9.76C12.94 7.38 12.94 4.99 12.96 2.6C12.96 2.09 12.82 1.91 12.27 1.91C8.78 1.93 5.27 1.92 1.78 1.91C1.29 1.91 1.11 2.05 1.12 2.55C1.14 4.94 1.14 7.33 1.12 9.72C1.11 10.23 1.25 10.41 1.8 10.41C3.52 10.37 5.25 10.39 6.98 10.39Z" fill="#000000" fill-opacity="1.000000" fill-rule="nonzero"/>
</svg>
