<svg width="15.000000" height="13.000000" viewBox="0 0 15 13" fill="none" xmlns="http://www.w3.org/2000/svg" xmlns:xlink="http://www.w3.org/1999/xlink">
	<desc>
			Created with Pixso.
	</desc>
	<defs/>
	<path id="Vector" d="M6.87 12.43C5.14 12.43 3.4 12.44 1.66 12.43C0.07 12.43 -0.79 11.56 -0.79 9.93C-0.8 7.44 -0.8 4.94 -0.79 2.44C-0.79 0.87 0.08 -0.02 1.64 -0.02C5.13 -0.03 8.62 -0.03 12.12 -0.02C13.66 -0.02 14.55 0.88 14.55 2.45C14.56 4.97 14.56 7.48 14.55 10.01C14.54 11.53 13.65 12.42 12.14 12.43C10.39 12.44 8.63 12.43 6.87 12.43ZM6.83 1.97C5.15 1.97 3.48 1.99 1.81 1.96C1.29 1.95 1.15 2.12 1.15 2.64C1.18 5.03 1.17 7.42 1.15 9.8C1.15 10.3 1.29 10.45 1.78 10.45C5.19 10.43 8.6 10.43 12 10.45C12.46 10.46 12.61 10.3 12.61 9.84C12.59 7.43 12.59 5.02 12.61 2.61C12.61 2.12 12.46 1.95 11.97 1.96C10.26 1.98 8.54 1.97 6.83 1.97Z" fill="#000000" fill-opacity="1.000000" fill-rule="nonzero"/>
</svg>
