<svg width="10.000000" height="10.000000" viewBox="0 0 10 10" fill="none" xmlns="http://www.w3.org/2000/svg" xmlns:xlink="http://www.w3.org/1999/xlink">
	<desc>
			Created with Pixso.
	</desc>
	<defs/>
	<path id="Vector" d="M1.89 9.98C1.02 10 0.47 9.36 0.6 8.59C0.69 8.02 0.78 7.43 0.9 6.86C0.97 6.53 0.93 6.28 0.66 6.05C0.22 5.68 -0.17 5.26 -0.58 4.85C-0.93 4.51 -1.1 4.1 -0.94 3.6C-0.78 3.1 -0.42 2.85 0.08 2.77C0.66 2.68 1.24 2.6 1.82 2.53C2.11 2.49 2.32 2.39 2.44 2.09C2.66 1.57 2.93 1.09 3.17 0.59C3.4 0.1 3.73 -0.23 4.29 -0.24C4.88 -0.24 5.22 0.1 5.45 0.6C5.7 1.13 5.95 1.66 6.23 2.18C6.31 2.31 6.49 2.45 6.63 2.47C7.21 2.59 7.79 2.66 8.37 2.74C8.91 2.81 9.36 3.01 9.54 3.57C9.73 4.12 9.51 4.56 9.1 4.93C8.69 5.33 8.27 5.72 7.89 6.14C7.76 6.27 7.68 6.51 7.7 6.69C7.77 7.33 7.9 7.97 8 8.61C8.08 9.08 7.93 9.47 7.56 9.75C7.16 10.04 6.73 10.06 6.29 9.84C5.76 9.57 5.22 9.3 4.7 8.99C4.41 8.82 4.18 8.84 3.89 9.01C3.4 9.29 2.89 9.55 2.38 9.8C2.19 9.9 1.98 9.95 1.89 9.98ZM1.55 9.04C1.81 8.94 1.97 8.9 2.11 8.82C2.7 8.52 3.29 8.22 3.87 7.89C4.17 7.72 4.43 7.72 4.73 7.89C5.31 8.21 5.9 8.52 6.49 8.82C6.63 8.88 6.8 8.9 6.96 8.93C6.96 8.79 6.99 8.64 6.97 8.5C6.9 8.02 6.88 7.53 6.73 7.08C6.49 6.31 6.69 5.77 7.31 5.27C7.79 4.89 8.2 4.39 8.7 3.88C8.5 3.82 8.37 3.76 8.25 3.74C7.6 3.65 6.94 3.54 6.29 3.46C5.89 3.41 5.61 3.26 5.45 2.87C5.18 2.26 4.87 1.67 4.57 1.08C4.51 0.97 4.4 0.88 4.32 0.78C4.23 0.88 4.11 0.96 4.06 1.07C3.75 1.66 3.45 2.25 3.18 2.85C3.01 3.24 2.76 3.42 2.35 3.47C1.69 3.54 1.03 3.65 0.38 3.75C0.26 3.77 0.14 3.85 0.03 3.91C0.1 4.02 0.15 4.15 0.24 4.24C0.48 4.5 0.75 4.73 0.99 4.99C2.26 6.28 2.09 5.67 1.8 7.49C1.72 7.97 1.64 8.45 1.55 9.04Z" fill="#EE820B" fill-opacity="1.000000" fill-rule="nonzero"/>
</svg>
