<svg width="52.371368" height="14.137451" viewBox="0 0 52.3714 14.1375" fill="none" xmlns="http://www.w3.org/2000/svg" xmlns:xlink="http://www.w3.org/1999/xlink">
	<desc>
			Created with Pixso.
	</desc>
	<defs/>
	<path id="Vector" d="M7.42786 9.78375C7.42786 9.88071 7.42786 9.98413 7.42786 10.107C7.36067 10.1167 7.3002 10.136 7.23973 10.136C5.74811 10.136 4.25648 10.1328 2.76488 10.1425C2.48604 10.1458 2.41884 10.0391 2.5062 9.77405C2.73799 9.7482 2.97316 9.72556 3.20497 9.69324C3.76265 9.61243 4.00453 9.35709 4.05829 8.79471C4.07845 8.58783 4.0818 8.38098 4.0818 8.1709C4.0818 5.72092 4.0818 3.2677 4.0818 0.817749C4.0818 0.688446 4.0818 0.559174 4.0818 0.397552C2.93285 0.397552 1.91156 0.63028 1.12207 1.5062C0.940659 1.70981 0.759247 1.91345 0.597992 2.13321C0.453537 2.33685 0.285553 2.4209 0 2.33362C0.0235291 2.19788 0.0503845 2.05243 0.0772705 1.91022C0.188141 1.36398 0.312439 0.820953 0.413223 0.271515C0.45018 0.0743408 0.530807 0 0.732376 0C3.57451 0.00646973 6.41666 0.00323486 9.25879 0C9.45364 0 9.54099 0.0581665 9.5813 0.265045C9.71233 0.950256 9.86687 1.629 10.0147 2.32391C9.71568 2.41443 9.52756 2.36594 9.34277 2.09766C9.08746 1.72598 8.78511 1.37366 8.44916 1.06985C7.72685 0.416962 6.81979 0.394318 5.87578 0.397552C5.86905 0.523621 5.85898 0.639954 5.85898 0.753082C5.85898 3.3259 5.85898 5.89545 5.85898 8.46826C5.85898 8.6525 5.87241 8.83997 5.90601 9.02097C5.96648 9.34094 6.16805 9.55103 6.48048 9.6189C6.78619 9.69 7.09863 9.72879 7.42786 9.78375Z" fill="#000000" fill-opacity="1.000000" fill-rule="nonzero"/>
	<path id="Vector" d="M48.1552 13.6138C48.1552 13.8078 48.1552 13.9467 48.1552 14.118C48.0275 14.1245 47.9133 14.1342 47.7957 14.1342C32.6947 14.1342 17.5971 14.1342 2.49612 14.1375C2.25087 14.1375 2.07619 14.1051 2.14337 13.8078C2.16017 13.7334 2.26096 13.6559 2.33823 13.6203C2.41212 13.588 2.50955 13.6106 2.59354 13.6106C17.6273 13.6106 32.6611 13.6106 47.6982 13.6106C47.8427 13.6138 47.9805 13.6138 48.1552 13.6138Z" fill="#000000" fill-opacity="1.000000" fill-rule="nonzero"/>
	<path id="Vector" d="M41.0028 9.77405C41.0028 9.89688 41.0028 10.0003 41.0028 10.1199C39.874 10.1199 38.7653 10.1199 37.6231 10.1199C37.613 10.0165 37.603 9.91302 37.5929 9.82578C37.6265 9.79669 37.6399 9.77405 37.66 9.77081C38.4193 9.63507 38.4831 9.55426 38.4831 8.76239C38.4831 7.74426 38.4831 6.72614 38.4831 5.70801C38.4831 5.58841 38.4865 5.46561 38.4764 5.34601C38.4059 4.55414 37.8784 4.13071 37.1326 4.37634C36.6858 4.52179 36.2961 4.84824 35.8963 5.11975C35.8291 5.16501 35.8224 5.3363 35.819 5.44943C35.8123 6.54514 35.8157 7.64084 35.8157 8.73331C35.8157 9.57043 35.8694 9.63507 36.6892 9.77405C36.7799 10.0229 36.7328 10.1458 36.4271 10.1425C35.4865 10.1296 34.5458 10.1328 33.6051 10.1425C33.3397 10.1458 33.239 10.0617 33.3263 9.79993C33.3465 9.78699 33.3633 9.76758 33.3801 9.76437C34.1393 9.65768 34.1998 9.58337 34.2031 8.80765C34.2031 7.88647 34.1931 6.96854 34.2065 6.04739C34.2132 5.4462 34.0452 4.97107 33.4472 4.7319C33.3901 4.70926 33.3196 4.63168 33.3129 4.57675C33.3095 4.52826 33.3767 4.43777 33.4304 4.4216C34.1393 4.1889 34.8515 3.96265 35.5637 3.74286C35.6276 3.72345 35.7082 3.75253 35.819 3.76224C35.819 4.05313 35.819 4.33112 35.819 4.67371C36.0173 4.53796 36.1584 4.44101 36.2961 4.34402C36.9613 3.87213 37.6869 3.66205 38.4999 3.76224C39.5212 3.88507 40.089 4.46362 40.1159 5.51083C40.1427 6.60654 40.1259 7.69901 40.1293 8.79471C40.1326 9.59305 40.1931 9.65768 41.0028 9.77405Z" fill="#000000" fill-opacity="1.000000" fill-rule="nonzero"/>
	<path id="Vector" d="M26.0966 7.05255C26.0933 5.19406 27.4942 3.74606 29.3117 3.72989C31.109 3.71375 32.5099 5.12943 32.5166 6.96854C32.5234 8.84964 31.1393 10.3009 29.3285 10.3138C27.4606 10.3268 26.1034 8.9563 26.0966 7.05255ZM30.847 7.21741C30.8268 7.21094 30.8067 7.2077 30.7865 7.20123C30.7596 6.85217 30.7462 6.50308 30.6992 6.15726C30.6286 5.61102 30.5043 5.07773 30.1751 4.62198C29.6913 3.94647 28.7842 3.95291 28.3139 4.63815C28.203 4.79651 28.0989 4.97751 28.0519 5.16174C27.726 6.48047 27.7495 7.78625 28.2971 9.04358C28.5155 9.54456 28.8682 9.95505 29.4662 9.92593C30.0575 9.89685 30.3632 9.4476 30.5077 8.94016C30.6723 8.38098 30.7395 7.79272 30.847 7.21741Z" fill="#000000" fill-opacity="1.000000" fill-rule="nonzero"/>
	<path id="Vector" d="M20.4527 9.37323C20.5266 9.45728 20.5971 9.53485 20.661 9.60919C19.9488 10.6176 18.7595 10.5788 18.2287 9.51544C18.1346 9.58331 18.0439 9.65121 17.9532 9.71585C17.3451 10.1587 16.69 10.4366 15.9241 10.2944C14.8961 10.1037 14.4694 9.03064 15.1077 8.19028C15.3194 7.91229 15.6116 7.67313 15.9106 7.48889C16.5489 7.09781 17.2074 6.74872 17.8692 6.39966C18.1044 6.27359 18.2287 6.13138 18.1985 5.84372C18.1682 5.56253 18.2018 5.27487 18.185 4.99042C18.1649 4.66077 18.0674 4.3537 17.7382 4.21472C17.3687 4.05957 16.9857 4.06604 16.6598 4.31168C16.5691 4.37955 16.512 4.60904 16.5556 4.71893C16.6867 5.05832 16.7001 5.35565 16.4414 5.6304C16.1693 5.91159 15.8334 5.95038 15.4806 5.85666C15.0976 5.75323 14.8893 5.36859 15.0708 5.01306C15.2051 4.75125 15.4067 4.48621 15.6452 4.33109C16.5422 3.74606 17.5299 3.58768 18.5613 3.85916C19.3911 4.07895 19.8177 4.67044 19.8211 5.54312C19.8244 6.65823 19.8211 7.77332 19.8211 8.89163C19.8211 8.98862 19.8177 9.08881 19.8278 9.18576C19.8614 9.56717 20.0126 9.64474 20.3284 9.44434C20.3653 9.42172 20.4023 9.40231 20.4527 9.37323ZM18.1917 6.69379C17.6206 7.02347 17.1033 7.31436 16.7639 7.83151C16.5523 8.15796 16.5019 8.5264 16.5792 8.90457C16.6564 9.27304 16.9689 9.49283 17.3451 9.46375C17.7416 9.43143 18.185 9.11142 18.1884 8.8367C18.1951 8.14825 18.1917 7.45657 18.1917 6.69379Z" fill="#000000" fill-opacity="1.000000" fill-rule="nonzero"/>
	<path id="Vector" d="M10.8646 0.517181C10.8646 0.35556 10.8646 0.210114 10.8646 0.0420532C22.8177 0.0420532 34.7541 0.0420532 46.7139 0.0420532C46.7139 0.200439 46.7139 0.345886 46.7139 0.517181C34.7709 0.517181 22.8245 0.517181 10.8646 0.517181Z" fill="#000000" fill-opacity="1.000000" fill-rule="nonzero"/>
	<path id="Vector" d="M13.6698 6.32855C12.2488 6.32855 10.8479 6.32855 9.40326 6.32855C9.44022 7.30789 9.69554 8.14505 10.5321 8.65894C11.5399 9.27951 12.5142 9.12439 13.4145 8.38422C13.4817 8.43271 13.5455 8.4747 13.6026 8.52319C13.6262 8.5426 13.6396 8.57492 13.653 8.60077C13.2096 9.6803 11.9061 10.4302 10.6564 10.3235C8.92957 10.1748 7.81421 8.76883 7.95195 6.92004C8.06618 5.41708 9.04715 4.15009 10.3506 3.8204C12.064 3.3873 13.5623 4.49918 13.6698 6.32855ZM11.9162 5.86313C11.9598 5.2684 11.8725 4.74481 11.3753 4.38928C10.9957 4.11777 10.5757 4.11777 10.1927 4.37634C9.68546 4.72217 9.48389 5.23932 9.44693 5.86313C10.2834 5.86313 11.0763 5.86313 11.9162 5.86313Z" fill="#000000" fill-opacity="1.000000" fill-rule="nonzero"/>
	<path id="Vector" d="M47.5706 6.31885C46.0722 6.31885 44.6713 6.31885 43.2805 6.31885C43.1024 7.05255 43.5728 8.11917 44.2783 8.61691C45.1517 9.23749 46.1159 9.16638 47.238 8.38742C47.3152 8.44562 47.3992 8.51025 47.5034 8.59106C46.9323 9.66412 46.0622 10.2362 44.883 10.3203C43.2536 10.4366 41.9064 9.24072 41.7889 7.58908C41.7015 6.36087 42.0442 5.29102 42.9647 4.45712C44.248 3.29355 46.3309 3.55859 47.1271 5.00336C47.3388 5.388 47.416 5.84048 47.5706 6.31885ZM45.7531 5.85666C45.7699 5.24579 45.6792 4.70599 45.1584 4.3634C44.7923 4.12421 44.3925 4.12744 44.0297 4.36664C43.5157 4.70923 43.3074 5.22638 43.2704 5.85666C44.1036 5.85666 44.9065 5.85666 45.7531 5.85666Z" fill="#000000" fill-opacity="1.000000" fill-rule="nonzero"/>
	<path id="Vector" d="M25.2131 8.98541C25.3004 9.0856 25.3643 9.15671 25.4449 9.24719C24.9208 9.80313 24.3799 10.2815 23.5804 10.33C22.7976 10.3784 22.2836 9.99707 22.1526 9.21811C22.1022 8.91751 22.0854 8.61047 22.082 8.30341C22.0753 7.09781 22.0787 5.89545 22.0787 4.68985C22.0787 4.57028 22.0787 4.45392 22.0787 4.2923C21.8133 4.2923 21.5815 4.2923 21.3497 4.2923C21.3228 4.26321 21.2959 4.2309 21.269 4.20181C21.3497 4.06284 21.3967 3.88184 21.5109 3.79132C22.1526 3.29034 22.801 2.80228 23.2646 2.10089C23.325 2.01041 23.5132 2.00394 23.698 1.93607C23.698 2.61481 23.698 3.20953 23.698 3.83981C24.2926 3.83981 24.8503 3.83981 25.4315 3.83981C25.4315 3.99496 25.4315 4.121 25.4315 4.28906C24.9477 4.28906 24.4639 4.302 23.9835 4.28262C23.7517 4.27615 23.6912 4.35696 23.6946 4.58319C23.7047 5.9407 23.6912 7.29822 23.7047 8.65573C23.708 8.97571 23.6711 9.35709 24.0406 9.51224C24.4001 9.66092 24.6789 9.43143 24.941 9.2052C25.0216 9.14053 25.1056 9.07266 25.2131 8.98541Z" fill="#000000" fill-opacity="1.000000" fill-rule="nonzero"/>
	<path id="Vector" d="M50.2649 4.44742C49.0857 4.45389 48.135 3.51007 48.1249 2.32065C48.1149 1.13446 49.0622 0.164795 50.2347 0.16156C51.4172 0.158325 52.368 1.10211 52.3713 2.28833C52.3781 3.48746 51.4441 4.44095 50.2649 4.44742ZM48.5281 2.2948C48.5247 3.33231 49.2638 4.12741 50.2381 4.13065C51.209 4.13388 51.9749 3.33878 51.9816 2.32065C51.985 1.29929 51.2291 0.491241 50.2649 0.481537C49.284 0.471863 48.5314 1.26373 48.5281 2.2948Z" fill="#000000" fill-opacity="1.000000" fill-rule="nonzero"/>
	<path id="Vector" d="M50.9032 2.24963C50.9805 2.63748 51.0476 2.96393 51.1182 3.30008C50.836 3.40027 50.6848 3.38412 50.668 3.07382C50.6344 2.49203 50.5168 2.40799 49.8617 2.50174C49.8617 2.70859 49.8785 2.92514 49.8517 3.13846C49.8416 3.21927 49.7274 3.28714 49.6602 3.35825C49.5963 3.29361 49.4787 3.22897 49.4787 3.1611C49.4653 2.53082 49.472 1.90054 49.472 1.25089C49.8953 1.25089 50.2951 1.19595 50.6781 1.26382C51.172 1.35431 51.2358 1.88763 50.9032 2.24963ZM50.2246 1.49652C50.0163 1.47714 49.8281 1.47391 49.8584 1.78098C49.8785 1.97488 49.7945 2.20438 50.1372 2.19144C50.5404 2.17529 50.7184 2.09125 50.7083 1.83591C50.6915 1.5127 50.453 1.50623 50.2246 1.49652Z" fill="#000000" fill-opacity="1.000000" fill-rule="nonzero"/>
</svg>
