<svg width="56.000000" height="15.000000" viewBox="0 0 56 15" fill="none" xmlns="http://www.w3.org/2000/svg" xmlns:xlink="http://www.w3.org/1999/xlink">
	<desc>
			Created with Pixso.
	</desc>
	<defs>
		<clipPath id="clip80_188">
			<rect id="Frame" width="56.000000" height="15.000000" fill="white" fill-opacity="0"/>
		</clipPath>
	</defs>
	<rect id="Frame" width="56.000000" height="15.000000" fill="#FFFFFF" fill-opacity="0"/>
	<g clip-path="url(#clip80_188)">
		<path id="Vector" d="M7.94269 10.3819C7.94269 10.4839 7.94269 10.593 7.94269 10.7234C7.86951 10.7353 7.80579 10.7543 7.73969 10.7543C6.14642 10.7567 4.55081 10.7495 2.95755 10.759C2.66016 10.7614 2.58698 10.6499 2.6814 10.3676C2.92923 10.3392 3.17944 10.3178 3.42963 10.2823C4.02444 10.1969 4.28644 9.92648 4.34073 9.32874C4.36197 9.11053 4.36435 8.88757 4.36435 8.66699C4.3667 6.065 4.36435 3.46536 4.36435 0.863373C4.36435 0.7258 4.36435 0.590607 4.36435 0.41745C3.13693 0.422211 2.0441 0.668884 1.19907 1.59866C1.00552 1.81213 0.809601 2.03036 0.639648 2.26282C0.483887 2.47864 0.304474 2.56879 0 2.47391C0.0259705 2.32922 0.0519409 2.17743 0.0849609 2.0256C0.203003 1.44687 0.335175 0.870483 0.441376 0.289368C0.481506 0.0782776 0.566498 0 0.783661 0C3.82144 0.00473022 6.86163 0.00473022 9.89944 0C10.1071 0 10.2016 0.061676 10.244 0.279877C10.3833 1.00571 10.5485 1.72913 10.7067 2.46442C10.3857 2.56168 10.1874 2.50949 9.98914 2.22485C9.71533 1.82874 9.39194 1.45398 9.03317 1.13379C8.25897 0.441162 7.2912 0.41745 6.28333 0.422211C6.27625 0.557404 6.26443 0.678375 6.26443 0.801697C6.26443 3.53177 6.26208 6.25949 6.26682 8.98956C6.26682 9.18643 6.28098 9.38568 6.31873 9.57779C6.38483 9.91699 6.59726 10.14 6.93478 10.2135C7.25818 10.2823 7.58862 10.325 7.94269 10.3819Z" fill="#000000" fill-opacity="1.000000" fill-rule="nonzero"/>
		<path id="Vector" d="M51.4917 14.4426C51.4917 14.6466 51.4917 14.796 51.4917 14.9786C51.3548 14.9858 51.2321 14.9952 51.1093 14.9952C34.9643 14.9952 18.817 14.9952 2.67197 15C2.40997 15 2.22348 14.9644 2.29666 14.6513C2.31555 14.5707 2.42175 14.49 2.50674 14.4521C2.58463 14.4189 2.68848 14.4426 2.78055 14.4426C18.8571 14.4426 34.9336 14.4426 51.0102 14.4426C51.1565 14.4426 51.3052 14.4426 51.4917 14.4426Z" fill="#000000" fill-opacity="1.000000" fill-rule="nonzero"/>
		<path id="Vector" d="M43.8417 10.37C43.8417 10.5005 43.8417 10.6096 43.8417 10.7377C42.6332 10.7377 41.4483 10.7377 40.228 10.7377C40.2162 10.6262 40.2067 10.5171 40.1973 10.4246C40.235 10.3937 40.2492 10.3676 40.2681 10.3653C41.08 10.223 41.1485 10.1376 41.1485 9.29553C41.1485 8.21396 41.1485 7.13474 41.1485 6.05313C41.1485 5.92505 41.1509 5.79697 41.1391 5.67126C41.0612 4.8316 40.4994 4.3833 39.7039 4.64185C39.2272 4.7984 38.8094 5.1423 38.3821 5.42932C38.309 5.47913 38.3019 5.65939 38.3019 5.77798C38.2948 6.94022 38.2972 8.10248 38.2972 9.26233C38.2972 10.1518 38.3538 10.2182 39.2319 10.3676C39.3286 10.6309 39.2791 10.7614 38.9533 10.759C37.9478 10.7472 36.9423 10.7472 35.9368 10.759C35.6535 10.7614 35.5473 10.6736 35.6394 10.3961C35.6606 10.3819 35.6772 10.3629 35.6984 10.3582C36.508 10.2443 36.5764 10.1684 36.5764 9.34061C36.5764 8.36575 36.567 7.38852 36.5788 6.41367C36.5883 5.7756 36.4041 5.27277 35.7668 5.01898C35.7031 4.99527 35.6299 4.91461 35.6252 4.85294C35.6205 4.80075 35.6937 4.70587 35.7503 4.68692C36.508 4.44022 37.2704 4.20065 38.0328 3.96823C38.1013 3.94687 38.1862 3.97769 38.3043 3.98956C38.3043 4.29791 38.3043 4.59204 38.3043 4.95731C38.5143 4.81262 38.6654 4.71063 38.8141 4.60626C39.5246 4.10815 40.3011 3.88281 41.1721 3.98718C42.265 4.12003 42.8716 4.73196 42.8999 5.84204C42.9306 7.00189 42.9094 8.1665 42.9164 9.32639C42.9141 10.1803 42.9778 10.2491 43.8417 10.37Z" fill="#000000" fill-opacity="1.000000" fill-rule="nonzero"/>
		<path id="Vector" d="M27.9044 7.48578C27.8997 5.51471 29.3985 3.97772 31.3435 3.96109C33.2672 3.94449 34.7637 5.44592 34.7708 7.39801C34.7778 9.39279 33.2979 10.9345 31.3624 10.9464C29.3631 10.9583 27.9115 9.50189 27.9044 7.48578ZM32.9839 7.65656C32.9627 7.65179 32.9414 7.64468 32.9202 7.63995C32.8895 7.26993 32.8754 6.89752 32.8282 6.52988C32.7526 5.95114 32.6181 5.38663 32.2687 4.90274C31.7495 4.18643 30.7841 4.19354 30.2789 4.91937C30.1609 5.08777 30.0476 5.27753 29.998 5.4744C29.6487 6.87381 29.6747 8.259 30.2601 9.59442C30.4937 10.1281 30.8714 10.5621 31.511 10.5313C32.1436 10.5005 32.4694 10.0237 32.6252 9.48529C32.7975 8.89233 32.8683 8.26849 32.9839 7.65656Z" fill="#000000" fill-opacity="1.000000" fill-rule="nonzero"/>
		<path id="Vector" d="M21.8713 9.94305C21.9515 10.0308 22.0247 10.1138 22.0955 10.1921C21.3355 11.2618 20.0632 11.2215 19.4944 10.0925C19.3929 10.166 19.2961 10.2348 19.1993 10.306C18.5502 10.7756 17.8492 11.0697 17.0302 10.9179C15.9326 10.7163 15.4723 9.57779 16.1568 8.68594C16.3834 8.39182 16.695 8.13803 17.0136 7.94354C17.6934 7.52844 18.4015 7.15842 19.1073 6.78842C19.3598 6.65558 19.492 6.50616 19.459 6.19781C19.4259 5.89896 19.4613 5.59534 19.4448 5.2941C19.4236 4.94305 19.3197 4.6181 18.9657 4.46869C18.5715 4.30264 18.1631 4.31213 17.8138 4.57303C17.717 4.6442 17.6556 4.88852 17.7029 5.00711C17.8445 5.36765 17.8586 5.68311 17.5801 5.97247C17.2898 6.27133 16.931 6.31165 16.5533 6.21204C16.1426 6.10294 15.9208 5.69495 16.1167 5.31546C16.2583 5.03793 16.4755 4.75806 16.7304 4.59201C17.6887 3.97058 18.7462 3.80215 19.8508 4.0939C20.7407 4.32635 21.1938 4.95493 21.1986 5.87997C21.2033 7.06354 21.2009 8.24713 21.2009 9.43311C21.2009 9.53748 21.1986 9.64182 21.208 9.74619C21.2434 10.1518 21.4063 10.2324 21.7438 10.0213C21.7745 9.99762 21.8146 9.97626 21.8713 9.94305ZM19.4519 7.10388C18.8406 7.45255 18.2882 7.76089 17.9271 8.31119C17.7005 8.65512 17.6462 9.04648 17.7288 9.44733C17.8091 9.83868 18.1466 10.0735 18.5479 10.0403C18.9727 10.0071 19.4472 9.66791 19.4496 9.37381C19.4566 8.64325 19.4519 7.91269 19.4519 7.10388Z" fill="#000000" fill-opacity="1.000000" fill-rule="nonzero"/>
		<path id="Vector" d="M11.6178 0.547913C11.6178 0.377136 11.6178 0.220581 11.6178 0.0426941C24.3993 0.0426941 37.1618 0.0426941 49.9503 0.0426941C49.9503 0.20874 49.9503 0.365265 49.9503 0.547913C37.1783 0.547913 24.4063 0.547913 11.6178 0.547913Z" fill="#000000" fill-opacity="1.000000" fill-rule="nonzero"/>
		<path id="Vector" d="M14.6178 6.71729C13.0977 6.71729 11.5989 6.71729 10.0576 6.71729C10.0977 7.75616 10.3691 8.64328 11.2637 9.19119C12.3424 9.85059 13.381 9.68454 14.3464 8.89944C14.4196 8.95163 14.4857 8.99667 14.5494 9.04651C14.5753 9.06784 14.5872 9.10342 14.6037 9.12952C14.1292 10.2775 12.7343 11.0697 11.4006 10.9559C9.55481 10.7993 8.36047 9.3074 8.50919 7.34348C8.6319 5.74954 9.67993 4.40466 11.0749 4.05362C12.8971 3.59583 14.5022 4.77469 14.6178 6.71729ZM12.7413 6.22156C12.7862 5.58826 12.6941 5.03558 12.163 4.65845C11.757 4.36908 11.3086 4.36908 10.8979 4.64423C10.355 5.00949 10.1402 5.55978 10.1001 6.21918C10.9947 6.22156 11.8444 6.22156 12.7413 6.22156Z" fill="#000000" fill-opacity="1.000000" fill-rule="nonzero"/>
		<path id="Vector" d="M50.8685 6.70541C49.2658 6.70541 47.7693 6.70541 46.2823 6.70541C46.0911 7.48578 46.5963 8.61481 47.3492 9.14612C48.2839 9.80313 49.313 9.72961 50.5145 8.90179C50.5971 8.96347 50.6844 9.03226 50.7977 9.11765C50.1864 10.2562 49.2588 10.8634 47.996 10.9535C46.254 11.0768 44.8142 9.80789 44.6891 8.0574C44.5947 6.75284 44.9629 5.61908 45.9471 4.73434C47.3209 3.50095 49.5491 3.78085 50.3988 5.31546C50.6183 5.71634 50.701 6.19781 50.8685 6.70541ZM48.9236 6.2168C48.9401 5.56927 48.8457 4.99765 48.2863 4.63235C47.8945 4.37619 47.4672 4.38095 47.0778 4.63712C46.5255 5 46.3036 5.55029 46.2658 6.21918C47.1604 6.2168 48.0172 6.2168 48.9236 6.2168Z" fill="#000000" fill-opacity="1.000000" fill-rule="nonzero"/>
		<path id="Vector" d="M26.9626 9.53275C27.057 9.6395 27.1255 9.71539 27.2081 9.81027C26.6487 10.4009 26.0681 10.9061 25.2159 10.9606C24.378 11.0128 23.8304 10.6096 23.6888 9.7818C23.6345 9.46396 23.6156 9.13663 23.6133 8.81168C23.6062 7.53323 23.6109 6.25714 23.6109 4.97867C23.6109 4.85297 23.6109 4.72723 23.6109 4.55884C23.3253 4.55884 23.0798 4.55884 22.832 4.55884C22.8036 4.52802 22.7729 4.49478 22.7446 4.46396C22.8296 4.31689 22.8792 4.12479 23.0043 4.02753C23.6911 3.49384 24.3851 2.97678 24.8784 2.23434C24.9445 2.13712 25.1428 2.13 25.3434 2.05884C25.3434 2.77753 25.3434 3.41083 25.3434 4.07733C25.9784 4.07733 26.5732 4.07733 27.1963 4.07733C27.1963 4.24338 27.1963 4.37384 27.1963 4.55411C26.6794 4.55411 26.1624 4.56595 25.6479 4.54935C25.4001 4.53986 25.3363 4.62762 25.3387 4.86719C25.3481 6.30695 25.3363 7.7467 25.3505 9.18646C25.3528 9.52563 25.3127 9.93124 25.7093 10.0949C26.0916 10.2538 26.3938 10.0071 26.6723 9.76993C26.7549 9.69879 26.8446 9.62762 26.9626 9.53275Z" fill="#000000" fill-opacity="1.000000" fill-rule="nonzero"/>
		<path id="Vector" d="M53.7458 4.72009C52.4854 4.72958 51.4681 3.72629 51.4563 2.46442C51.4468 1.20493 52.4594 0.177887 53.7128 0.173157C54.978 0.168396 55.9929 1.17172 56 2.43121C56.0071 3.69781 55.0086 4.71298 53.7458 4.72009ZM51.8882 2.43359C51.8859 3.53415 52.6742 4.37854 53.7151 4.3833C54.7537 4.38803 55.5751 3.54364 55.5775 2.46204C55.5822 1.37808 54.775 0.51944 53.7411 0.509949C52.7002 0.502838 51.8929 1.34012 51.8882 2.43359Z" fill="#000000" fill-opacity="1.000000" fill-rule="nonzero"/>
		<path id="Vector" d="M54.4304 2.38614C54.5153 2.79648 54.5861 3.14514 54.6593 3.50095C54.3595 3.60767 54.1967 3.59106 54.1778 3.26138C54.14 2.6423 54.0149 2.55453 53.3163 2.65656C53.3163 2.87714 53.3351 3.10721 53.3068 3.33017C53.295 3.41556 53.1746 3.48672 53.1014 3.56497C53.033 3.49619 52.9079 3.42743 52.9079 3.35626C52.8937 2.68738 52.8985 2.01611 52.8985 1.33063C53.3493 1.33063 53.7789 1.27371 54.1872 1.34488C54.7159 1.43738 54.7868 2.00189 54.4304 2.38614ZM53.7033 1.58917C53.4791 1.56784 53.2785 1.56308 53.3115 1.89041C53.3328 2.09677 53.2431 2.33871 53.6113 2.32446C54.0432 2.30786 54.2321 2.21774 54.2203 1.94498C54.2038 1.60342 53.9465 1.59866 53.7033 1.58917Z" fill="#000000" fill-opacity="1.000000" fill-rule="nonzero"/>
	</g>
</svg>
