<svg width="68.997833" height="55.007385" viewBox="0 0 68.9978 55.0074" fill="none" xmlns="http://www.w3.org/2000/svg" xmlns:xlink="http://www.w3.org/1999/xlink">
	<desc>
			Created with Pixso.
	</desc>
	<defs/>
	<path id="Vector" d="M43.7411 43.214C42.9724 43.2491 42.1983 43.2086 41.435 43.1087C41.5709 43.1276 41.34 43.0952 41.3373 43.0925C41.2666 43.0817 41.1933 43.0709 41.1227 43.0573C40.9733 43.0331 40.8266 43.006 40.6799 42.9763C40.3676 42.9142 40.0606 42.8386 39.7564 42.7521C39.091 42.5603 38.4635 42.3173 37.8578 41.9823C36.6654 41.326 35.7364 40.3886 35.1117 39.3109C34.2208 37.7767 34.1393 36.0696 34.563 34.3787C35.1769 31.9288 35.6604 29.4762 35.8641 26.9506C36.1221 23.7795 35.9972 20.5625 35.2991 17.4481C35.0492 16.3272 34.7178 15.2251 34.3131 14.1501C34.0252 13.3857 33.7482 12.6158 33.596 11.8109C33.2402 9.90393 33.6748 7.93753 34.5685 6.23581C34.3131 6.33847 34.0578 6.44382 33.8025 6.54645C36.2661 7.27304 38.7297 7.99963 41.1933 8.72626C41.5709 8.83701 41.8968 8.5885 42.0299 8.25354C42.9942 5.79285 43.9584 3.32944 44.9227 0.868713C44.6429 1.02539 44.3658 1.18204 44.0861 1.3414C46.4655 2.21927 48.7471 3.55093 50.442 5.43088C50.5561 5.55783 50.6675 5.6875 50.7761 5.81985C50.8331 5.89008 50.8902 5.9603 50.9472 6.03055C50.9825 6.07376 51.0179 6.11966 51.0532 6.1629C51.1482 6.28445 51.0151 6.11426 51.0885 6.20612C51.4063 6.62207 51.7132 7.04614 52.0147 7.47293C53.055 8.94504 54.0491 10.4496 55.0487 11.946C56.635 14.3229 58.1995 16.6864 59.6283 19.1606C60.5572 20.7705 61.4454 22.4128 62.1082 24.1496C62.7736 25.8864 63.2082 27.7043 63.5396 29.5302C63.8655 31.3345 63.9769 33.2145 63.4527 34.9945C62.9393 36.7368 61.8284 38.2467 60.3969 39.3541C60.1579 39.5405 59.8999 39.7161 59.6418 39.8809C58.9112 40.3508 59.5902 41.5204 60.3263 41.0477C61.8012 40.0996 63.0833 38.8436 63.9389 37.3067C64.9602 35.4726 65.2915 33.3766 65.1313 31.3021C64.9846 29.3951 64.5663 27.4584 64.0312 25.6244C63.488 23.7552 62.6976 21.9671 61.7822 20.2492C60.3725 17.5994 58.7645 15.082 57.0994 12.5861C55.9939 10.9276 54.8939 9.26648 53.7639 7.62689C53.1148 6.68692 52.4602 5.74152 51.7295 4.86096C50.2111 3.0296 48.1305 1.63583 45.9738 0.660736C45.4713 0.433838 44.958 0.225861 44.4392 0.0340881C44.0698 -0.100983 43.7275 0.190735 43.6026 0.506775C42.6383 2.96747 41.6741 5.43088 40.7098 7.8916C40.9896 7.73492 41.2666 7.57828 41.5464 7.41891C39.0828 6.69232 36.6192 5.9657 34.1556 5.23911C33.8785 5.15808 33.5254 5.29044 33.3896 5.54974C32.5259 7.1893 32.0234 9.02338 32.1239 10.8844C32.1728 11.7677 32.3493 12.6402 32.6264 13.4802C32.8953 14.2932 33.2266 15.0847 33.482 15.9058C34.4679 19.0877 34.7369 22.4128 34.5793 25.7243C34.4544 28.393 34.0334 31.0401 33.3489 33.6224C33.1343 34.4381 32.955 35.2619 32.9306 36.1074C32.9007 37.1662 33.1153 38.2115 33.5309 39.184C34.1148 40.5426 35.0981 41.7149 36.2905 42.5847C38.3005 44.0514 40.9597 44.6051 43.4179 44.5673C43.5238 44.5646 43.6297 44.5619 43.7357 44.5565C44.613 44.5268 44.6184 43.1735 43.7411 43.214Z" fill="#000000" fill-opacity="1.000000" fill-rule="nonzero"/>
	<path id="Vector" d="M52.634 39.6648C54.8857 39.9268 57.1701 40.6425 59.3077 41.5366C61.2308 42.3416 63.2191 43.3923 64.3572 45.202C64.4984 45.4262 64.6261 45.6585 64.7402 45.8962C64.7836 45.9908 64.8271 46.0853 64.8678 46.1798C64.7945 46.0151 64.857 46.1555 64.8895 46.2339C65.0444 46.6282 65.1693 47.0334 65.2562 47.4493C65.4844 48.5217 65.4083 49.6724 64.8189 50.6232C64.4196 51.2633 63.8139 51.7549 63.1104 52.1412C62.3227 52.5734 61.4698 52.8381 60.5653 53.0461C58.7699 53.4593 56.931 53.5565 55.0759 53.6106C53.4 53.6592 51.7186 53.6997 50.0427 53.5971C48.2989 53.4917 46.4003 53.2351 44.8439 52.5112C44.0589 52.1466 43.4559 51.7495 42.9045 51.1067C42.7089 50.8771 42.4699 50.507 42.3151 50.1478C42.0788 49.5967 41.981 48.9917 41.9837 48.3947C41.9946 46.269 43.2794 44.5916 45.1861 43.7812C47.3292 42.871 49.8254 43.0114 52.0174 43.657C52.6802 43.8542 53.3266 44.0973 53.9541 44.389C54.2855 44.543 54.6847 44.4808 54.883 44.1459C55.0541 43.8542 54.9727 43.3761 54.6386 43.2221C52.0636 42.0282 49.16 41.4421 46.3432 42.0201C44.1078 42.4793 42.0326 43.7839 41.1308 45.934C40.1829 48.1895 40.574 50.9446 42.4699 52.5896C43.9828 53.9023 46.0119 54.4614 47.9594 54.7343C49.8933 55.007 51.8409 55.0341 53.7884 54.9908C55.7115 54.9476 57.6373 54.8909 59.5413 54.6046C61.5242 54.3075 63.6537 53.7375 65.1476 52.3303C66.9158 50.6691 67.0571 48.0868 66.2178 45.9232C65.373 43.7461 63.67 42.2038 61.6247 41.1314C60.5762 40.5831 59.4707 40.1455 58.3679 39.7188C57.0397 39.2056 55.6707 38.8112 54.2692 38.5546C53.7259 38.4547 53.1827 38.379 52.634 38.3142C52.27 38.271 51.9549 38.6545 51.9549 38.9895C51.9549 39.3893 52.2673 39.6216 52.634 39.6648Z" fill="#000000" fill-opacity="1.000000" fill-rule="nonzero"/>
	<path id="Vector" d="M51.3438 25.3462C53.9894 26.2321 56.3661 27.8825 58.0691 30.0866C58.2919 30.3756 58.6531 30.5296 58.9981 30.3297C59.2833 30.1622 59.4653 29.6977 59.2425 29.4059C57.3086 26.9047 54.7119 25.0518 51.7051 24.0442C50.8739 23.766 50.5181 25.0706 51.3438 25.3462Z" fill="#000000" fill-opacity="1.000000" fill-rule="nonzero"/>
	<path id="Vector" d="M51.8273 27.8636C53.7259 28.5011 55.5865 29.7814 56.8224 31.3777C57.0451 31.6667 57.4064 31.8207 57.7513 31.6208C58.0365 31.4534 58.2185 30.9888 57.9958 30.6971C56.5046 28.7658 54.5109 27.3396 52.1885 26.5617C51.8409 26.4455 51.447 26.6967 51.3519 27.0344C51.2514 27.4017 51.4796 27.7475 51.8273 27.8636Z" fill="#000000" fill-opacity="1.000000" fill-rule="nonzero"/>
	<path id="Vector" d="M51.1781 29.7814C53.0767 30.4189 54.9373 31.6992 56.1732 33.2955C56.3959 33.5845 56.7572 33.7385 57.1022 33.5386C57.3874 33.3712 57.5694 32.9066 57.3466 32.6148C55.8554 30.6836 53.8617 29.2574 51.5394 28.4795C51.1917 28.3633 50.7978 28.6145 50.7028 28.9521C50.6023 29.3195 50.8304 29.6653 51.1781 29.7814Z" fill="#000000" fill-opacity="1.000000" fill-rule="nonzero"/>
	<path id="Vector" d="M51.7186 32.5797C51.8273 32.5689 51.9359 32.5663 52.0446 32.5689C52.0799 32.5689 52.1179 32.5717 52.1532 32.5743C52.1804 32.5771 52.2972 32.5933 52.1804 32.5743C52.0609 32.5555 52.1858 32.5771 52.213 32.5825C52.2564 32.5905 52.2999 32.5987 52.3406 32.6095C52.4248 32.6311 52.5036 32.6608 52.5851 32.6851C52.6612 32.7094 52.4683 32.6257 52.5824 32.6851C52.6286 32.7094 52.6747 32.731 52.7209 32.7553C52.7943 32.7958 52.8594 32.8418 52.9273 32.8904C52.998 32.939 52.816 32.7958 52.9083 32.8769C52.9382 32.9039 52.9708 32.9309 53.0007 32.9606C53.0496 33.0065 53.093 33.0524 53.1365 33.1038C53.1609 33.1308 53.1827 33.1659 53.2098 33.1902C53.093 33.0903 53.1501 33.1119 53.1935 33.1686C53.2669 33.2685 53.3321 33.3712 53.3972 33.4738C53.4787 33.6062 53.5575 33.7439 53.6227 33.8844C53.6363 33.9141 53.6471 33.9573 53.6662 33.9816C53.6254 33.8817 53.6173 33.8655 53.6444 33.9303C53.6499 33.9411 53.6526 33.9546 53.658 33.9654C53.6825 34.0275 53.7042 34.0924 53.7259 34.1572C53.8346 34.4921 54.2012 34.746 54.5625 34.6299C54.8993 34.5219 55.1546 34.1599 55.0378 33.7979C54.8233 33.1416 54.4511 32.4474 53.9323 31.972C53.3375 31.4264 52.5253 31.1508 51.7186 31.2238C51.5339 31.24 51.3737 31.2886 51.2379 31.421C51.1211 31.5371 51.0314 31.7316 51.0396 31.8991C51.0532 32.2421 51.3384 32.6122 51.7186 32.5797Z" fill="#000000" fill-opacity="1.000000" fill-rule="nonzero"/>
	<path id="Vector" d="M64.3952 40.2131C64.7239 40.1807 65.0525 40.1753 65.3839 40.1996C65.4409 40.205 65.498 40.2077 65.555 40.2158C65.5686 40.2158 65.6908 40.232 65.6419 40.2266C65.593 40.2185 65.7207 40.2401 65.7343 40.2428C65.7832 40.2509 65.8348 40.2617 65.8837 40.2698C66.0901 40.3103 66.2938 40.3643 66.4948 40.4265C66.579 40.4535 66.6605 40.4805 66.742 40.5102C66.78 40.5237 66.8208 40.5426 66.8588 40.5561C66.9349 40.5832 66.78 40.5183 66.8941 40.5696C67.0408 40.6345 67.182 40.7047 67.3233 40.7803C67.5514 40.9046 67.7715 41.045 67.9806 41.199C68.2685 41.4097 68.7493 41.2557 68.9095 40.9559C69.097 40.6048 68.972 40.2563 68.6651 40.0321C67.4482 39.1435 65.8945 38.7167 64.3925 38.8625C64.0394 38.8976 63.6971 39.1489 63.7134 39.5378C63.7324 39.8755 64.0176 40.2509 64.3952 40.2131Z" fill="#000000" fill-opacity="1.000000" fill-rule="nonzero"/>
	<path id="Vector" d="M62.4531 41.1801C64.0883 41.2854 65.6908 41.7554 67.1006 42.4982C67.4238 42.6684 67.8394 42.5793 68.0295 42.2551C68.2088 41.9499 68.111 41.5015 67.785 41.3314C66.1309 40.4589 64.3219 39.9484 62.4531 39.8295C62.0864 39.8052 61.7741 40.1564 61.7741 40.5048C61.7741 40.8911 62.0864 41.1558 62.4531 41.1801Z" fill="#000000" fill-opacity="1.000000" fill-rule="nonzero"/>
	<path id="Vector" d="M27.4384 30.2352C27.49 30.1785 27.2971 30.2892 27.2591 30.3135C27.1939 30.3513 27.2999 30.3162 27.3705 30.3189C27.3976 30.3189 27.4981 30.3351 27.3678 30.3162C27.4004 30.3216 27.433 30.327 27.4628 30.3324C27.5525 30.3513 27.6421 30.3702 27.7317 30.3892C28.0984 30.4702 28.476 30.5701 28.8535 30.5755C29.2365 30.5809 29.6304 30.4702 29.8993 30.1839C30.2578 29.803 30.2551 29.2952 30.179 28.8144C30.1655 28.7253 30.1492 28.6388 30.1302 28.5497C30.122 28.5011 30.1111 28.4525 30.103 28.4038C30.1057 28.4254 30.1274 28.4795 30.1057 28.4173C30.0595 28.2823 30.1193 28.3768 30.0514 28.4741C29.9862 28.5119 29.921 28.5524 29.8558 28.5902C29.7798 28.6902 29.6901 28.7253 29.5869 28.6956C29.6114 28.6794 29.6766 28.7388 29.6005 28.6928C29.9047 28.8792 30.2687 29.1034 30.6245 29.1548C31.1677 29.2331 31.5996 28.8414 31.6322 28.3066C31.654 27.9446 31.5344 27.5746 31.4068 27.2423C31.2275 26.7805 31.0156 26.3321 30.7522 25.9107C30.6381 25.7297 30.5131 25.5542 30.3909 25.3786C30.3475 25.3165 30.3067 25.2543 30.266 25.1922C30.2551 25.176 30.247 25.1517 30.2334 25.1355C30.2089 25.0842 30.2089 25.0896 30.2388 25.1517C30.3366 25.3462 30.2958 25.5488 30.1111 25.7649C30.0106 25.8216 29.9101 25.881 29.8124 25.9377C29.7879 25.9485 29.5326 25.9323 29.5706 25.9404C29.6086 25.9458 29.6548 25.9917 29.5896 25.9458C29.5027 25.881 29.644 25.9728 29.6575 25.9782C29.6956 25.9971 29.7363 26.0161 29.7743 26.035C30.0215 26.1538 30.2741 26.2672 30.5349 26.351C31.1759 26.5617 31.874 26.5779 32.5286 26.405C33.118 26.2484 33.7753 25.8999 33.8731 25.2408C33.9654 24.6196 33.4955 24.1496 33.0338 23.8092C32.5775 23.4743 32.0614 23.215 31.529 23.0205C31.2764 22.9287 31.0156 22.8557 30.7549 22.7936C30.6571 22.7693 30.5566 22.745 30.4588 22.7207C30.4289 22.7126 30.3909 22.6937 30.3583 22.691C30.6028 22.7072 30.6055 23.4716 30.5349 23.6148C30.5376 23.6094 30.3936 23.7444 30.4833 23.6634C30.5485 23.604 30.4751 23.6607 30.4452 23.6742C30.5213 23.6418 30.6028 23.6175 30.6843 23.5932C30.8853 23.531 31.089 23.477 31.29 23.4176C31.6567 23.3095 32.075 23.1907 32.3384 22.899C32.5938 22.6154 32.6318 22.2156 32.4199 21.8969C32.1999 21.5619 31.7789 21.4214 31.4176 21.2999C30.7413 21.073 30.0161 21.0163 29.3126 21.1054C29.5299 21.2702 29.7499 21.435 29.9672 21.6024C29.5679 20.3437 29.0871 19.1066 28.4868 17.9289C28.0848 17.1402 27.6367 16.3245 27.0554 15.6519C26.4959 15.0009 25.6647 14.7713 24.9829 15.3224C24.2821 15.8896 23.8231 16.8161 23.4102 17.5913C23.1739 18.0343 22.9648 18.4881 22.7502 18.9418C22.704 19.0391 22.6253 19.1417 22.5899 19.2417C22.6334 19.1174 22.6904 19.1255 22.6443 19.1687C22.5764 19.2336 22.7339 19.1066 22.7285 19.1093C22.6062 19.1768 22.905 19.058 22.7638 19.0904C23.0082 19.031 22.9512 19.0742 22.8806 19.0715C22.7665 19.0688 23.0571 19.1012 23.0001 19.0904C22.9784 19.0877 22.9594 19.0823 22.9403 19.0742C22.8453 19.0445 23.0952 19.1795 23.011 19.1039C22.9784 19.0742 22.9105 19.031 22.8697 19.0148C22.8263 18.9959 23.0082 19.139 22.8914 19.0283C22.8561 18.9959 22.8181 18.9662 22.7828 18.9337C22.2613 18.4529 21.8104 17.883 21.3595 17.3347C20.9521 16.8404 20.5501 16.3407 20.1508 15.841C19.7243 15.3062 19.2544 14.6471 18.4966 14.6201C17.0896 14.5688 16.5627 16.527 16.1715 17.5508C15.6446 18.9229 15.1991 20.3248 14.8189 21.7456C15.1502 21.6105 15.4843 21.4755 15.8157 21.3431C14.5364 20.7354 13.0479 20.576 11.6979 21.0649C11.0352 21.3053 10.3344 21.8239 10.5734 22.6262C10.8287 23.4797 11.8527 23.9173 12.6214 24.1766C12.6214 23.7417 12.6214 23.3095 12.6214 22.8747C11.9261 22.9989 11.2715 23.269 10.6522 23.6013C10.0709 23.9119 9.43803 24.3657 9.31309 25.0572C9.19086 25.7378 9.61459 26.4158 10.2257 26.7156C11.046 27.1154 11.9424 26.8372 12.6024 26.278C12.8822 26.0404 12.8469 25.565 12.6024 25.3219C12.3199 25.041 11.9288 25.0923 11.6409 25.3219C10.7391 26.0485 8.68564 27.8393 10.2719 28.9171C10.9808 29.4005 11.8935 29.3519 12.6214 28.9413C12.9202 28.7739 13.1918 28.547 13.4417 28.3147C13.5341 28.2283 13.621 28.1418 13.7134 28.0554C13.7487 28.023 13.784 27.9933 13.8166 27.9582C13.8573 27.923 13.8356 27.9392 13.7487 28.0068C13.8573 27.942 13.7704 27.9636 13.4852 28.0716C13.3711 28.0419 13.257 28.0095 13.143 27.9798C13.1484 27.9825 13.1511 27.9852 13.1565 27.9852C13.075 27.9041 12.9936 27.8231 12.9121 27.7421C12.9148 27.7475 12.9202 27.7556 12.9229 27.761C12.8931 27.6475 12.8605 27.5341 12.8306 27.4206C12.8306 27.3828 12.9229 27.1505 12.8469 27.2964C12.8251 27.3396 12.8034 27.3855 12.7817 27.4287C12.7111 27.5854 12.6377 27.7475 12.597 27.9149C12.5128 28.2769 12.5318 28.6712 12.7246 28.9954C12.874 29.2493 13.1185 29.4357 13.3765 29.5707C13.4743 29.622 13.5775 29.6653 13.678 29.7166C13.7106 29.7328 13.7541 29.7652 13.784 29.776C13.8953 29.8111 13.7677 29.7625 13.7297 29.7085C13.8274 29.8489 13.5966 29.3249 13.7351 29.2898C13.7161 29.2952 13.6319 29.3843 13.6237 29.3897C13.5286 29.46 13.3983 29.5329 13.2896 29.5977C12.9555 29.803 12.6269 30.0137 12.3227 30.2595C11.7984 30.6809 11.3611 31.2103 11.0026 31.7748C10.5055 32.5581 10.1497 33.4468 9.9351 34.3463C9.79114 34.9486 9.72595 35.5672 9.67706 36.183C9.65533 36.4612 9.64718 36.6395 9.59286 36.8691C9.58743 36.8961 9.58199 37.0339 9.56841 36.9609C9.5657 36.9447 9.50865 36.9799 9.60101 36.9204C9.65533 36.8853 9.68792 36.8745 9.74225 36.8475C9.87806 36.8637 9.88892 36.861 9.76941 36.834C9.72867 36.8205 9.68792 36.807 9.64989 36.7908C9.3321 36.68 9.02245 36.6179 8.71552 36.8043C8.40044 36.9933 8.28907 37.3607 8.33797 37.7065C8.37056 37.9306 8.45477 38.1305 8.54168 38.3412C8.58786 38.452 8.63403 38.5627 8.67206 38.6761C8.68564 38.7194 8.69922 38.7626 8.71009 38.8058C8.72639 38.8895 8.7291 38.8895 8.71552 38.8058C8.71281 38.8733 8.71552 38.8787 8.72095 38.822C8.75898 38.6951 8.81873 38.6194 8.9138 38.5384C8.94368 38.5249 8.97627 38.5141 9.00616 38.5006C8.95183 38.5141 8.95183 38.5141 9.01159 38.5033C9.01431 38.4682 9.07134 38.5222 8.95726 38.4925C9.0985 38.5303 8.998 38.4979 8.96541 38.4925C8.69107 38.4304 8.41946 38.3385 8.14783 38.2521C7.45248 38.0333 6.75169 37.8469 6.02103 37.7902C4.64663 37.6794 3.24235 38.1197 2.07437 38.8193C1.3247 39.2677 0.292542 39.9754 0.0480804 40.8748C-0.318611 42.2092 1.50668 42.1363 2.31883 42.1498C3.17987 42.1633 4.04092 42.1552 4.89924 42.1552C5.22247 42.1552 5.5457 42.1579 5.86621 42.1849C6.0835 42.2038 5.74941 42.1552 5.93955 42.193C5.98844 42.2038 6.04276 42.2227 6.09166 42.2281C6.19759 42.2389 6.07536 42.2254 6.04819 42.2065C6.11067 42.2443 6.09166 42.2281 5.99116 42.1606C5.88251 41.9121 5.84177 41.8527 5.86621 41.9823C5.86621 41.8635 5.86621 41.7419 5.86621 41.6231C5.84448 41.7635 6.06178 41.4664 5.90967 41.5528C5.86349 41.5798 5.80102 41.6555 5.76299 41.6933C5.64348 41.8094 5.52668 41.9364 5.45063 42.085C5.25778 42.4523 5.30939 42.8683 5.56471 43.187C6.05906 43.8029 7.03418 43.9622 7.77843 43.9757C8.6286 43.9892 9.45433 43.7407 10.1877 43.3221C10.4566 43.1681 10.7065 42.9925 10.9591 42.8142C11.046 42.7521 11.1357 42.6927 11.2253 42.6333C11.2497 42.6171 11.2905 42.6063 11.3122 42.5847C11.2416 42.6603 10.9129 42.6522 10.7961 42.5658C10.7147 42.4847 10.6332 42.4037 10.5517 42.3227C10.5354 42.1876 10.5164 42.0552 10.5001 41.9202C10.4838 41.9742 10.4838 41.9769 10.5028 41.9283C10.568 41.8689 10.4783 41.9769 10.4648 42.0012C10.4159 42.0904 10.367 42.1795 10.3208 42.2686C10.1904 42.5171 10.0655 42.7791 10.06 43.0627C10.0492 43.7164 10.6495 44.0352 11.2307 43.9082C11.7115 43.8056 12.157 43.5517 12.6242 43.4004C12.9012 43.3112 13.1918 43.2329 13.4825 43.1978C13.6264 43.1816 13.7758 43.1735 13.9225 43.1762C13.9877 43.1762 14.0529 43.1789 14.1181 43.1843C14.2566 43.1951 14.08 43.1708 14.2213 43.1951C14.683 43.2816 14.8705 43.4085 15.3159 43.6219C15.9108 43.9082 16.5274 44.1486 17.1684 44.3161C18.4015 44.6402 19.6646 44.6672 20.9331 44.6456C22.2477 44.624 23.5977 44.6537 24.8987 44.4214C26.026 44.2188 27.0337 43.6084 27.8431 42.8142C28.7395 41.9364 29.4755 40.7425 29.6983 39.4973C29.9047 38.3466 29.7689 37.1554 29.6928 35.9994C29.6467 35.2809 29.6086 34.5597 29.5 33.8466C29.3968 33.1794 29.1605 32.5392 28.8698 31.9288C28.6091 31.3831 28.2804 30.8807 27.9382 30.3838C27.8214 30.2136 27.7127 30.0434 27.6068 29.8678C27.5144 29.7166 27.6204 29.9678 27.5851 29.8138C27.5579 29.6923 27.5986 29.9732 27.5959 29.8894C27.5959 29.8651 27.509 30.1515 27.5498 30.0947C28.0332 29.3681 26.8571 28.6902 26.3764 29.414C26.083 29.8543 26.3084 30.3729 26.5611 30.7646C26.8734 31.2535 27.2211 31.7154 27.4981 32.2259C28.2614 33.6224 28.2695 34.9459 28.3673 36.5018C28.4135 37.2338 28.4733 37.9712 28.4325 38.7059C28.4271 38.8193 28.4189 38.9301 28.4054 39.0435C28.3809 39.2542 28.4325 38.9138 28.3945 39.1137C28.3836 39.1732 28.3728 39.2326 28.3592 39.292C28.2886 39.6188 28.1772 39.9403 28.036 40.2428C27.6937 40.9613 27.2157 41.5906 26.6127 42.112C26.3275 42.3605 26.0097 42.5739 25.6728 42.7521C25.4039 42.8953 25.3415 42.9223 25.0101 43.0168C24.418 43.1816 23.9372 43.2086 23.3016 43.2383C22.3808 43.2816 21.4546 43.295 20.5311 43.3058C19.0371 43.3221 17.5948 43.1951 16.2177 42.5658C15.7043 42.3307 15.2046 42.0309 14.6477 41.9121C13.8573 41.7446 13.0262 41.8607 12.2656 42.1039C11.9587 42.2011 11.6599 42.3253 11.3611 42.4442C11.2579 42.4847 11.1547 42.5279 11.0487 42.5603C10.9999 42.5766 10.9428 42.5847 10.8939 42.6036C10.8152 42.6198 10.8342 42.6171 10.9455 42.5982C11.0243 42.6009 11.0949 42.6225 11.1628 42.663C11.247 42.8062 11.3339 42.9466 11.4182 43.0898C11.3991 43.1897 11.3991 43.1978 11.4182 43.1168C11.5078 43.0385 11.3856 43.1681 11.448 43.0439C11.4996 42.9412 11.5567 42.844 11.6083 42.7413C11.7577 42.4577 11.9071 42.1525 11.812 41.8229C11.6925 41.4178 11.2633 41.2098 10.864 41.3178C10.6468 41.3773 10.4593 41.5177 10.2773 41.6474C9.75583 42.0147 9.22617 42.3686 8.60144 42.5333C8.21845 42.6333 7.8083 42.6549 7.41445 42.6036C7.25148 42.582 7.08579 42.5414 6.92825 42.4928C6.95541 42.5009 6.71095 42.4064 6.77071 42.4334C6.68922 42.3929 6.62132 42.3767 6.62132 42.3443C6.62132 42.401 6.768 42.7278 6.62946 42.7494C6.69737 42.7386 6.86578 42.5198 6.91467 42.4658C7.18629 42.1606 7.30309 41.7338 7.07764 41.3665C6.74083 40.8181 5.95042 40.8235 5.38544 40.81C4.50539 40.7884 3.62262 40.81 2.74256 40.8046C2.39489 40.8019 2.04449 40.7992 1.69682 40.783C1.5583 40.7776 1.42249 40.7668 1.28396 40.756C1.24864 40.7533 1.06123 40.7209 1.25137 40.7533C1.19704 40.7425 1.14 40.7263 1.08567 40.7209C0.958008 40.7074 1.1563 40.7533 1.21062 40.8127C1.30569 40.9154 1.36001 41.0315 1.36544 41.172C1.36001 41.0531 1.33556 41.3611 1.35729 41.2341C1.3763 41.118 1.26495 41.3611 1.34371 41.2557C1.36001 41.2341 1.37087 41.2044 1.38445 41.1801C1.41162 41.1396 1.43607 41.0991 1.46323 41.0585C1.50668 40.9991 1.50397 41.0018 1.45508 41.0667C1.47952 41.0369 1.50397 41.0072 1.53114 40.9775C2.39761 40.0348 3.64706 39.3676 4.94813 39.1678C5.72225 39.0489 6.48822 39.1732 7.23518 39.3839C7.8246 39.5513 8.48193 39.8727 9.11208 39.8349C9.89436 39.789 10.2094 39.0651 10.0084 38.3763C9.93781 38.1278 9.81016 37.8982 9.72595 37.6551C9.70966 37.6065 9.69879 37.5282 9.67434 37.485C9.67706 37.512 9.67978 37.539 9.6825 37.566C9.69064 37.2743 9.5005 37.4255 9.10937 38.0225C9.27506 38.1305 9.56841 38.1873 9.75854 38.1899C10.6006 38.2115 10.8939 37.4471 10.9808 36.7557C11.065 36.0777 11.0813 35.3997 11.2389 34.7298C11.4779 33.7115 11.8527 32.7796 12.5291 31.9531C12.7572 31.6749 13.018 31.4075 13.3086 31.1887C13.6509 30.9321 14.0393 30.743 14.3843 30.4918C14.6722 30.2811 14.9302 30.0407 15.009 29.6787C15.1013 29.2439 14.8786 28.863 14.5228 28.6307C14.3571 28.5227 14.0312 28.3363 13.9062 28.3012C13.9116 28.3039 13.9171 28.3093 13.9225 28.312C13.8682 28.2553 13.86 28.2499 13.9008 28.3012C13.966 28.2202 13.7894 28.6685 13.9062 28.2634C13.947 28.1229 13.9823 28.0446 14.0447 27.9068C14.2213 27.5233 14.2675 27.0587 13.8383 26.8048C13.4933 26.5995 13.143 26.7426 12.8686 26.9749C12.472 27.3126 12.1515 27.7339 11.6789 27.8744C11.5512 27.9122 11.4888 27.923 11.353 27.9068C11.3285 27.9041 10.9808 27.7691 10.989 27.7664C11.0107 27.7556 11.0243 27.8852 11.027 27.9258C11.0243 27.8636 11.0542 27.7988 11.0134 27.996C11.046 27.8312 10.9618 28.0635 11.0352 27.9392C11.4154 27.2829 12.013 26.7372 12.5997 26.2672C12.2792 25.9485 11.9587 25.6298 11.6382 25.3111C11.3475 25.5569 11.0515 25.6028 10.7364 25.438C10.8939 25.519 10.769 25.4758 10.7228 25.4137C10.5897 25.2354 10.7744 25.519 10.6413 25.3029C10.6495 25.3138 10.6359 25.3381 10.6495 25.2625C10.6413 25.3057 10.6956 25.2057 10.7201 25.176C10.9645 24.9032 11.3448 24.7411 11.6735 24.5845C12.0891 24.3846 12.5237 24.2495 12.9773 24.1658C13.6862 24.0388 13.5558 23.061 12.9773 22.8639C12.6703 22.7585 12.3634 22.6316 12.0999 22.4425C12.0239 22.3885 11.9478 22.3263 11.8881 22.2534C11.9505 22.3263 11.8473 22.2075 11.8582 22.2021C11.8718 22.221 11.8799 22.2453 11.8772 22.2696C11.8718 22.3398 11.8527 22.3966 11.8392 22.4614C11.8229 22.5397 11.7577 22.5019 11.85 22.456C11.937 22.4155 11.7658 22.51 11.8555 22.456C11.9016 22.429 11.9478 22.402 11.9967 22.3803C12.0972 22.3317 11.9913 22.3804 12.0565 22.356C12.0999 22.3398 12.1434 22.3263 12.1896 22.3101C12.2982 22.275 12.4096 22.2453 12.5209 22.221C12.6785 22.1859 12.836 22.1616 12.9936 22.1319C13.1158 22.1103 12.9365 22.14 12.9094 22.1427C12.9555 22.1373 13.0017 22.1319 13.0479 22.1265C13.2462 22.1075 13.4445 22.1021 13.6427 22.1129C14.1642 22.1373 14.7346 22.3128 15.1258 22.4992C15.5142 22.6829 16.0031 22.5451 16.1226 22.0967C16.454 20.865 16.8316 19.6495 17.2689 18.4529C17.4319 18.0045 17.603 17.5616 17.785 17.1186C17.8909 16.862 18.005 16.6081 18.1435 16.365C18.1924 16.2786 18.244 16.1867 18.3065 16.1084C18.3391 16.0679 18.3961 16.0273 18.4233 15.9868C18.3961 16.0301 18.5129 15.9463 18.4559 15.9598C18.3608 15.9868 18.4124 15.9193 18.4477 15.9733C18.4966 16.0463 18.6351 16.1273 18.6976 16.1975C18.9285 16.4487 19.1322 16.7269 19.3441 16.9916C19.7189 17.4616 20.0965 17.9289 20.4794 18.3908C20.895 18.8932 21.3133 19.4118 21.7914 19.8602C22.063 20.1141 22.3645 20.3572 22.7421 20.4059C23.2907 20.4761 23.6683 20.1276 23.8937 19.6631C24.3528 18.715 24.7955 17.7588 25.3931 16.8863C25.5289 16.6891 25.5207 16.6945 25.643 16.5568C25.7217 16.4649 25.8168 16.392 25.8983 16.3029C25.9227 16.2758 25.7543 16.4055 25.8793 16.3245C25.9227 16.2975 26.0069 16.2867 25.8847 16.3137C25.7462 16.3461 25.844 16.3326 25.8766 16.3245C25.9037 16.3191 25.7652 16.3515 25.7652 16.338C25.7706 16.2867 26.083 16.5919 26.1265 16.6459C26.2514 16.7999 26.3573 16.9727 26.466 17.1375C26.705 17.5049 26.925 17.883 27.1315 18.2666C27.7643 19.4442 28.2478 20.6841 28.6525 21.9563C28.734 22.2102 29.0084 22.4884 29.3071 22.4533C29.8178 22.3912 30.323 22.3912 30.8228 22.5289C30.9016 22.5505 30.9776 22.5748 31.0537 22.6018C31.0863 22.6126 31.3226 22.7315 31.3606 22.7261C31.3633 22.7261 31.3525 21.9266 31.3416 21.9833C31.3307 22.04 31.4557 21.9158 31.385 21.9482C31.366 21.9563 31.3443 21.9779 31.3253 21.9833C31.1759 22.0076 31.4502 21.9401 31.2873 21.9995C30.7223 22.2075 29.777 22.2588 29.4402 22.8287C29.1768 23.2717 29.4267 23.7633 29.8721 23.947C30.2524 24.1037 30.6734 24.155 31.0618 24.2874C31.4557 24.4224 31.8305 24.6277 32.1755 24.86C32.2977 24.941 32.4362 25.0977 32.5259 25.1544C32.6019 25.203 32.5041 25.1922 32.5286 25.095C32.4471 25.4029 32.5693 24.8735 32.6019 24.9059C32.6128 24.914 32.5204 24.968 32.5231 24.968C31.7626 25.4191 30.9287 25.0788 30.2361 24.7654C29.8178 24.5764 29.299 24.4953 29.0219 24.9707C28.8046 25.3408 28.9812 25.7189 29.1985 26.035C29.4593 26.4131 29.7146 26.7886 29.9183 27.1991C29.9645 27.2937 30.0079 27.3909 30.0514 27.4882C30.0568 27.499 30.0867 27.5746 30.0595 27.5044C30.0242 27.4206 30.0785 27.5503 30.084 27.5692C30.1546 27.7583 30.2198 27.9446 30.266 28.1391C30.2741 28.1742 30.2795 28.2094 30.2877 28.2445C30.2605 28.1121 30.2904 28.2472 30.2768 28.2526C30.2795 28.2391 30.2795 28.2283 30.2823 28.2148C30.3013 28.0014 30.4588 27.8717 30.7603 27.8204C30.8011 27.7637 30.8282 27.8852 30.8174 27.8204C30.8146 27.7907 30.8635 27.842 30.8119 27.815C30.7712 27.7934 30.7304 27.7718 30.6897 27.7502C30.6055 27.7043 30.524 27.6529 30.4371 27.607C30.0025 27.372 29.4538 27.2099 29.0437 27.5908C28.639 27.9662 28.7422 28.5011 28.8345 28.9846C28.8617 29.1331 28.8563 29.098 28.8671 29.2223C28.8698 29.2601 28.8671 29.2952 28.8671 29.333C28.8644 29.2493 28.8427 29.3546 28.8617 29.3357C28.8834 29.3168 28.8997 29.2736 28.9242 29.2493C28.9486 29.225 28.9812 29.2088 29.0165 29.2034C29.0002 29.2088 28.9812 29.2142 28.9649 29.2196C28.954 29.2331 28.8128 29.2385 28.973 29.2223C28.9323 29.225 28.8888 29.2277 28.8481 29.225C28.8046 29.2223 28.7612 29.2196 28.7177 29.2169C28.5982 29.2088 28.7313 29.2223 28.658 29.2088C28.5493 29.1898 28.4434 29.1682 28.3375 29.1439C28.1446 29.1007 27.9518 29.0521 27.7562 29.0197C27.3189 28.9441 26.8001 28.9143 26.4741 29.2817C26.2324 29.5545 26.2025 29.9678 26.4741 30.2379C26.724 30.4783 27.1939 30.508 27.4384 30.2352Z" fill="#000000" fill-opacity="1.000000" fill-rule="nonzero"/>
	<path id="Vector" d="M20.072 33.093C20.091 33.1065 20.2323 33.2226 20.2404 33.2199C20.2295 33.2253 20.11 33.1173 20.2241 33.2091C20.254 33.2334 20.2839 33.255 20.311 33.2794C20.4278 33.3739 20.5419 33.4711 20.656 33.5711C20.9059 33.7953 21.1449 34.033 21.3704 34.2815C21.4763 34.3976 21.5768 34.5164 21.6773 34.638C21.7017 34.6677 21.7262 34.7001 21.7506 34.7298C21.8294 34.8271 21.6936 34.6542 21.7452 34.7217C21.7859 34.7758 21.8267 34.8298 21.8674 34.8838C22.0277 35.1026 22.1771 35.3295 22.3183 35.5591C22.503 35.8616 22.9349 36.0021 23.2473 35.8022C23.5515 35.605 23.6873 35.2025 23.4917 34.8784C22.7855 33.7169 21.8566 32.7283 20.7565 31.9288C20.6234 31.8315 20.3871 31.8181 20.2323 31.8613C20.0747 31.9045 19.9036 32.026 19.8275 32.1719C19.6428 32.523 19.7651 32.8715 20.072 33.093Z" fill="#000000" fill-opacity="1.000000" fill-rule="nonzero"/>
	<path id="Vector" d="M19.507 34.4894C19.9824 34.9784 20.4577 35.47 20.8977 35.9886C20.9385 36.0372 20.9792 36.0858 21.02 36.1371C21.0906 36.2209 20.9358 36.0237 20.9819 36.0858C20.9955 36.1047 21.0118 36.1263 21.0254 36.1452C21.0824 36.2236 21.1395 36.3073 21.1884 36.3911C21.2563 36.5045 21.3133 36.6206 21.3704 36.7395C21.4274 36.8556 21.3405 36.6557 21.3676 36.7314C21.3812 36.7638 21.3948 36.7989 21.4084 36.8313C21.4328 36.8988 21.4573 36.9664 21.479 37.0366C21.5849 37.3716 21.9571 37.6227 22.3156 37.5093C22.6551 37.4012 22.905 37.0393 22.7909 36.6774C22.6008 36.0777 22.3075 35.5699 21.9082 35.0891C21.4573 34.5489 20.9629 34.0411 20.4713 33.5359C20.2241 33.282 19.7569 33.2712 19.5098 33.5359C19.2544 33.8061 19.2436 34.2166 19.507 34.4894Z" fill="#000000" fill-opacity="1.000000" fill-rule="nonzero"/>
	<path id="Vector" d="M19.5967 36.1966C19.6238 36.2263 19.651 36.2587 19.6754 36.2911C19.6401 36.2452 19.6048 36.1992 19.5695 36.1533C19.651 36.2587 19.7162 36.3748 19.7705 36.4964C19.7488 36.4424 19.7243 36.3883 19.7026 36.3343C19.7569 36.4667 19.795 36.6044 19.814 36.7449C19.8058 36.6855 19.7977 36.626 19.7895 36.5666C19.8058 36.7043 19.8058 36.8421 19.7868 36.9799C19.795 36.9204 19.8031 36.861 19.8113 36.8016C19.7922 36.9366 19.7542 37.0636 19.7026 37.1906C19.7243 37.1365 19.7488 37.0825 19.7705 37.0285C19.7406 37.1014 19.7053 37.1689 19.6646 37.2365C19.4799 37.539 19.5885 37.9928 19.909 38.1602C20.2377 38.3331 20.6424 38.2413 20.838 37.9171C21.0987 37.4877 21.202 36.9718 21.134 36.4775C21.0716 36.0102 20.8706 35.5915 20.5528 35.2404C20.3138 34.9783 19.833 34.981 19.5912 35.2404C19.3386 35.5213 19.3441 35.9156 19.5967 36.1966Z" fill="#000000" fill-opacity="1.000000" fill-rule="nonzero"/>
	<path id="Vector" d="M39.4223 44.6402C35.9429 43.476 32.2651 42.9088 28.5928 42.9574C27.7209 42.9682 27.7182 44.3188 28.5928 44.308C32.1537 44.2593 35.6848 44.8131 39.0611 45.9421C39.8895 46.2203 40.2481 44.9157 39.4223 44.6402Z" fill="#000000" fill-opacity="1.000000" fill-rule="nonzero"/>
	<path id="Vector" d="M37.2711 46.1528C33.4928 45.0751 29.5597 44.5619 25.6294 44.6294C24.7575 44.6456 24.7548 45.9962 25.6294 45.9799C29.4457 45.9151 33.2402 46.4094 36.9098 47.4547C37.7518 47.6952 38.1131 46.3932 37.2711 46.1528Z" fill="#000000" fill-opacity="1.000000" fill-rule="nonzero"/>
	<path id="Vector" d="M27.0798 48.1868C23.1576 46.4041 18.7248 46.0016 14.5825 47.2252C13.7459 47.471 14.1018 48.7756 14.9438 48.5271C18.7221 47.4116 22.8072 47.7195 26.3954 49.3537C26.7295 49.5049 27.126 49.4482 27.3243 49.1106C27.4954 48.8188 27.4167 48.338 27.0798 48.1868Z" fill="#000000" fill-opacity="1.000000" fill-rule="nonzero"/>
</svg>
